<?xml version="1.0" standalone="no"?><!DOCTYPE svg PUBLIC "-//W3C//DTD SVG 1.1//EN" "http://www.w3.org/Graphics/SVG/1.1/DTD/svg11.dtd"><svg t="1769744814877" class="icon" viewBox="0 0 1024 1024" version="1.1" xmlns="http://www.w3.org/2000/svg" p-id="12002" xmlns:xlink="http://www.w3.org/1999/xlink" width="128" height="128"><path d="M867.87 340.82c-14.71-19.11-36.71-30.93-65.86-30.93s-59.94 26.39-83.45 52.78c-5.27-13.78-13.38-26.72-24.49-37.83l-76.93-76.93c-42.29-42.29-110.85-42.29-153.14 0l-76.93 76.93c-10.23 10.23-17.92 22.01-23.2 34.56v-1.11c-23.51-26.4-54.41-48.4-83.57-48.4s-51.15 11.82-65.86 30.93-22.13 45.5-22.13 74.66c0 29.16 7.42 55.55 22.13 74.66 14.71 19.11 36.71 30.93 65.86 30.93s59.95-26.4 83.46-52.79l0.03-25.04c5.28 12.62 13.01 24.47 23.29 34.75L464 554.91c42.29 42.29 110.85 42.29 153.14 0l76.93-76.93c11.1-11.1 19.2-24.03 24.48-37.79v28.08c23.51 26.4 54.3 52.79 83.46 52.79 29.16 0 51.15-11.82 65.86-30.93S890 444.63 890 415.47c0-29.15-7.42-55.54-22.13-74.65z" fill="#FFBBA6" p-id="12003"></path><path d="M423.02 285.16s11.35-52.98-7.1-70.59c-18.45-17.6-42.1-11.61-59.71 6.84s-22.49 42.36-4.04 59.96 70.85 3.79 70.85 3.79zM730.13 281.37c18.45-17.6 13.56-41.52-4.04-59.96s-41.26-24.44-59.71-6.84c-18.45 17.6-7.1 70.59-7.1 70.59s52.41 13.82 70.85-3.79zM538.46 207.9s47.52-26.03 48.79-51.5c1.27-25.47-18.73-39.46-44.2-40.73-25.47-1.27-46.76 10.66-48.03 36.13-1.26 25.47 43.44 56.1 43.44 56.1zM352.18 526.71c-18.45 17.6-13.56 41.52 4.04 59.96s41.26 24.44 59.71 6.84c18.45-17.6 7.1-70.59 7.1-70.59s-52.4-13.81-70.85 3.79zM659.29 522.93s-11.35 52.98 7.1 70.59c18.45 17.6 42.1 11.61 59.71-6.84s22.49-42.36 4.04-59.96c-18.45-17.61-70.85-3.79-70.85-3.79zM538.46 600.19s-44.7 30.63-43.43 56.1c1.27 25.47 22.56 37.4 48.03 36.13 25.47-1.27 45.47-15.26 44.2-40.72-1.28-25.48-48.8-51.51-48.8-51.51z" fill="#FFBBA6" p-id="12004"></path><path d="M501.11 861.54c-1.72 0-3.46-0.39-5.1-1.21-5.65-2.83-7.94-9.7-5.12-15.35 53.54-107.07 23.18-171.53 22.86-172.17-2.77-5.65-0.47-12.5 5.16-15.3 5.71-2.79 12.47-0.54 15.29 5.06 1.51 2.98 36.22 74.49-22.85 192.64-2 4.02-6.04 6.33-10.24 6.33z" fill="#FFBBA6" p-id="12005"></path><path d="M535.45 861.54c-3.7 0-7.33-1.79-9.53-5.09-3.51-5.26-2.09-12.35 3.17-15.86 60.52-40.34 16.21-167.75 15.75-169.04-2.11-5.95 1.01-12.49 6.96-14.6 5.91-2.11 12.48 0.99 14.6 6.96 2.1 5.92 50.55 145.59-24.62 195.71a11.37 11.37 0 0 1-6.33 1.92z" fill="#FFBBA6" p-id="12006"></path><path d="M408.99 423.36c-4.18 0-7.57 4.03-7.57 8.99v98.88c0 4.96 3.39 8.99 7.57 8.99s7.57-4.03 7.57-8.99v-98.88c0-4.96-3.39-8.99-7.57-8.99zM469.61 354.57c1.65 0.21 27.61 3.4 52.17 3.4 13.21 0 26.02-0.92 34.43-3.73 3.97-1.32 6.11-5.61 4.79-9.58-1.33-3.97-5.62-6.12-9.58-4.79-17.28 5.77-63.56 1.72-79.94-0.33-4.11-0.54-7.93 2.42-8.45 6.57-0.51 4.16 2.43 7.95 6.58 8.46z" fill="#9E1919" p-id="12007"></path><path d="M424.94 414.63c4.65-3.72 8.26-7.35 11.06-11.08 6.12-8.18 9.14-18.11 8.49-27.95-0.19-2.81-2.1-5.3-4.96-6.45-2.86-1.16-6.2-0.79-8.68 0.94-8.74 6.14-21.86 6.55-33.4 6.43-8.48-0.08-17.44-0.34-25.66-2.51-4.49-1.18-9.17 1.11-10.49 5.12-1.32 4.01 1.24 8.22 5.71 9.4 10.29 2.72 21.02 3.05 30.27 3.13 9.55 0.12 19.23-0.28 28.18-2.59-0.9 2.12-2.07 4.15-3.48 6.04-2 2.67-4.71 5.36-8.29 8.23-2.81 2.25-5.67 4.63-8.57 7.04-18.49 15.37-37.58 31.26-57.98 27.66-4.58-0.77-9.02 1.87-9.91 5.97-0.9 4.1 2.08 8.08 6.65 8.89 3.19 0.56 6.3 0.82 9.35 0.82 24.57 0 45.06-17.02 63.37-32.24 2.82-2.34 5.6-4.65 8.34-6.85zM500.83 354.9c-14.61 0-26.5 11.89-26.5 26.5s11.89 26.49 26.5 26.49h22.71c14.61 0 26.5-11.89 26.5-26.49 0-14.61-11.89-26.5-26.5-26.5h-22.71z m34.06 26.5c0 6.26-5.09 11.35-11.35 11.35h-22.71c-6.26 0-11.35-5.09-11.35-11.35s5.09-11.35 11.35-11.35h22.71c6.26-0.01 11.35 5.09 11.35 11.35zM528.58 408.33h-26.49c-34.69 0-62.92 28.23-62.92 62.92v2.52c0 34.7 28.23 62.92 62.92 62.92h26.49c34.7 0 62.92-28.23 62.92-62.92v-2.52c0-34.7-28.23-62.92-62.92-62.92z m48.11 65.43c0 26.53-21.58 48.11-48.11 48.11h-26.49c-26.53 0-48.11-21.58-48.11-48.11v-2.52c0-26.53 21.58-48.11 48.11-48.11h26.49c26.53 0 48.11 21.58 48.11 48.11v2.52z" fill="#9E1919" p-id="12008"></path><path d="M450.2 450.46c4.38-3.22 4.96-8.94 1.3-12.79-8.01-8.41-19.75-13.69-32.21-14.48-5.82-0.38-10.65 3.4-11.07 8.4-0.41 5 3.87 9.35 9.57 9.71 6.8 0.43 13.47 3.43 17.84 8.02 2.05 2.15 4.98 3.26 7.94 3.26 2.34-0.01 4.7-0.7 6.63-2.12zM403.61 359.91l13.28 7.5c1.18 0.66 2.45 0.98 3.71 0.98a7.58 7.58 0 0 0 6.6-3.85c2.05-3.64 0.77-8.26-2.87-10.31l-13.28-7.49a7.561 7.561 0 0 0-10.31 2.87 7.543 7.543 0 0 0 2.87 10.3zM526 465.91v-39.8c0-5.34-4.34-9.68-9.68-9.68s-9.68 4.34-9.68 9.68v39.8h-49.69c-5.34 0-9.68 4.34-9.68 9.68s4.34 9.68 9.68 9.68h49.69v29.9c0 5.34 4.34 9.68 9.68 9.68s9.68-4.34 9.68-9.68v-29.9h49.7c5.34 0 9.68-4.34 9.68-9.68s-4.34-9.68-9.68-9.68H526z" fill="#9E1919" p-id="12009"></path><path d="M482.26 631.86c-4 0-8.05-0.19-12.03-0.58a125.914 125.914 0 0 1-23.72-4.59 125.425 125.425 0 0 1-22.67-9.21c-3.66-1.92-7.26-4.05-10.71-6.33-3.5-2.31-6.92-4.83-10.17-7.48-3.3-2.69-6.5-5.59-9.53-8.61l-69.4-69.4c-3.02-3.02-5.92-6.23-8.61-9.53-2.65-3.25-5.17-6.67-7.47-10.17a125.31 125.31 0 0 1-11.51-21.86c-1.52-3.75-2.87-7.62-4.03-11.51a125.914 125.914 0 0 1-5.16-35.75c0-4 0.19-8.05 0.57-12.03 0.38-3.99 0.96-8.01 1.72-11.95 0.77-3.96 1.73-7.92 2.87-11.77a125.425 125.425 0 0 1 9.21-22.67 125.847 125.847 0 0 1 13.8-20.88c2.69-3.3 5.59-6.5 8.61-9.53l69.4-69.4c3.02-3.02 6.23-5.92 9.53-8.61 3.25-2.65 6.67-5.17 10.17-7.47 3.45-2.28 7.05-4.41 10.71-6.33 3.61-1.9 7.37-3.64 11.15-5.18 3.75-1.52 7.62-2.88 11.51-4.03a125.914 125.914 0 0 1 23.72-4.59c7.97-0.76 16.1-0.76 24.07 0 4 0.38 8.01 0.96 11.95 1.72 3.95 0.77 7.91 1.73 11.77 2.87 3.88 1.15 7.76 2.5 11.51 4.03 3.79 1.54 7.54 3.28 11.16 5.18 3.65 1.92 7.25 4.05 10.71 6.33 3.5 2.31 6.92 4.82 10.17 7.48 3.29 2.69 6.5 5.58 9.53 8.61l69.4 69.4c4.69 4.69 4.69 12.28 0 16.97-4.69 4.69-12.28 4.69-16.97 0l-69.4-69.4a101.64 101.64 0 0 0-7.73-6.98c-2.63-2.14-5.4-4.18-8.22-6.05-2.79-1.84-5.7-3.56-8.65-5.11a102.19 102.19 0 0 0-9.01-4.18 101.316 101.316 0 0 0-18.82-5.57c-3.18-0.62-6.44-1.09-9.67-1.4-6.45-0.62-13.04-0.62-19.49 0-3.23 0.31-6.49 0.78-9.67 1.4-3.2 0.62-6.4 1.4-9.52 2.33-3.14 0.93-6.27 2.02-9.3 3.25a102.19 102.19 0 0 0-9.01 4.18c-2.95 1.55-5.86 3.27-8.65 5.11-2.83 1.87-5.59 3.9-8.22 6.04-2.67 2.18-5.27 4.53-7.73 6.99l-69.4 69.4a101.64 101.64 0 0 0-6.98 7.73c-2.15 2.63-4.18 5.4-6.05 8.22-1.84 2.79-3.56 5.7-5.11 8.65a102.19 102.19 0 0 0-4.18 9.01c-1.23 3.03-2.32 6.16-3.25 9.3-0.92 3.12-1.7 6.32-2.32 9.52a102.314 102.314 0 0 0-1.87 19.42 102.314 102.314 0 0 0 4.19 28.94c0.93 3.14 2.03 6.27 3.25 9.3 1.24 3.06 2.65 6.09 4.18 9.01 1.55 2.95 3.27 5.86 5.11 8.65 1.87 2.82 3.9 5.59 6.04 8.22 2.18 2.67 4.53 5.27 6.98 7.73l69.4 69.4c2.45 2.45 5.05 4.8 7.73 6.98 2.63 2.14 5.39 4.18 8.22 6.04a98.66 98.66 0 0 0 8.65 5.11c2.92 1.53 5.95 2.94 9.01 4.18 3.03 1.23 6.16 2.32 9.3 3.25 3.12 0.92 6.32 1.71 9.52 2.33 3.18 0.62 6.44 1.09 9.67 1.4 6.46 0.62 13.04 0.62 19.49 0 3.24-0.31 6.49-0.78 9.67-1.4 3.2-0.62 6.41-1.4 9.52-2.33 3.14-0.93 6.27-2.02 9.3-3.25 3.06-1.24 6.09-2.65 9.01-4.18 2.95-1.55 5.86-3.27 8.65-5.11 2.82-1.87 5.59-3.9 8.22-6.04 2.67-2.18 5.27-4.53 7.73-6.99l69.4-69.4c2.45-2.45 4.8-5.05 6.99-7.73 2.14-2.63 4.18-5.4 6.04-8.22 1.84-2.79 3.56-5.7 5.11-8.65 1.53-2.92 2.94-5.95 4.18-9.01 1.23-3.03 2.32-6.16 3.25-9.3 0.92-3.12 1.71-6.32 2.33-9.52 0.62-3.18 1.09-6.44 1.4-9.67 0.31-3.23 0.47-6.51 0.47-9.75s-0.16-6.52-0.47-9.75c-0.31-3.24-0.78-6.49-1.4-9.67-0.62-3.2-1.4-6.41-2.33-9.52-0.93-3.14-2.03-6.27-3.25-9.3a102.19 102.19 0 0 0-4.18-9.01c-3.08-5.87-0.83-13.12 5.04-16.21 5.87-3.08 13.12-0.83 16.21 5.04 1.9 3.61 3.64 7.37 5.18 11.16 1.52 3.75 2.87 7.62 4.03 11.51a125.914 125.914 0 0 1 4.59 23.72c0.38 3.99 0.58 8.03 0.58 12.03s-0.19 8.05-0.58 12.03a125.914 125.914 0 0 1-4.59 23.72 125.425 125.425 0 0 1-9.21 22.67c-1.92 3.66-4.05 7.26-6.33 10.71-2.3 3.49-4.82 6.91-7.47 10.17-2.69 3.3-5.59 6.51-8.61 9.53l-69.4 69.4c-3.03 3.03-6.24 5.93-9.53 8.61-3.25 2.65-6.67 5.16-10.16 7.47-3.45 2.28-7.05 4.41-10.71 6.33a125.425 125.425 0 0 1-22.67 9.21 125.914 125.914 0 0 1-23.72 4.59c-3.99 0.39-8.04 0.58-12.04 0.58z" fill="#9E1919" p-id="12010"></path><path d="M743.7 568.51c-27.76 0-58.85-19.12-92.42-56.81-4.41-4.95-3.97-12.53 0.98-16.94 4.95-4.41 12.54-3.97 16.94 0.98 28.41 31.91 54.18 48.77 74.5 48.77 23.99 0 42.95-8.83 56.35-26.25 12.66-16.45 19.64-40.37 19.64-67.34s-6.97-50.89-19.64-67.34c-13.41-17.42-32.37-26.25-56.35-26.25-20.32 0-46.08 16.87-74.5 48.77-4.41 4.95-11.99 5.39-16.94 0.98-4.95-4.41-5.39-11.99-0.98-16.94 33.57-37.7 64.67-56.81 92.42-56.81 31.38 0 57.44 12.31 75.37 35.61 16.11 20.92 24.62 49.27 24.62 81.98s-8.51 61.06-24.62 81.98c-17.93 23.29-43.99 35.61-75.37 35.61z" fill="#9E1919" p-id="12011"></path><path d="M734.9 515.71c-34.86 0-68.14-52.52-71.82-58.51a11.983 11.983 0 0 1 0-12.56c3.68-5.99 36.95-58.51 71.82-58.51 33.49 0 56 26.04 56 64.79-0.01 38.75-22.51 64.79-56 64.79z m-47.26-64.78c12.8 18.66 33.44 40.78 47.26 40.78 29.69 0 32-31.22 32-40.79s-2.31-40.79-32-40.79c-14.89-0.01-35.96 24.44-47.26 40.8z" fill="#9E1919" p-id="12012"></path><path d="M221.99 568.51c-31.38 0-57.44-12.31-75.37-35.61-16.1-20.92-24.62-49.27-24.62-81.98s8.51-61.06 24.62-81.98c17.93-23.29 43.99-35.61 75.37-35.61 29.14 0 62.87 19.11 92.53 52.42 4.41 4.95 3.97 12.53-0.98 16.94-4.95 4.41-12.54 3.97-16.94-0.98-24.75-27.79-52.64-44.38-74.61-44.38-23.99 0-42.95 8.83-56.35 26.25-12.67 16.45-19.64 40.36-19.64 67.34s6.97 50.89 19.64 67.34c13.41 17.42 32.37 26.25 56.35 26.25 20.32 0 46.08-16.87 74.5-48.77 4.41-4.95 11.99-5.39 16.94-0.98 4.95 4.41 5.39 11.99 0.98 16.94-33.57 37.69-64.66 56.81-92.42 56.81z" fill="#9E1919" p-id="12013"></path><path d="M230.79 515.71c-33.49 0-55.99-26.04-55.99-64.79 0-38.76 22.5-64.79 55.99-64.79 34.86 0 68.14 52.52 71.82 58.51 2.37 3.85 2.37 8.71 0 12.56-3.68 5.99-36.96 58.51-71.82 58.51z m0-105.59c-29.69 0-31.99 31.22-31.99 40.79s2.31 40.79 31.99 40.79c14.89 0 35.96-24.45 47.26-40.81-12.8-18.65-33.44-40.77-47.26-40.77z" fill="#9E1919" p-id="12014"></path><path d="M325.81 337.75c-18.19 0-31.69-4.11-40.23-12.26-11.5-10.97-16.74-24.67-15.15-39.62 1.38-12.98 7.88-25.88 18.79-37.31 10.91-11.44 23.5-18.53 36.39-20.52 14.85-2.29 28.78 2.3 40.28 13.28 10.23 9.77 15 26.92 14.17 50.99-0.56 16.32-3.5 30.21-3.63 30.79-0.95 4.42-4.3 7.94-8.67 9.09-0.58 0.15-14.31 3.74-30.59 5.07-3.96 0.33-7.75 0.49-11.36 0.49z m38.9-17.15z m-31.9-69.11c-1.16 0-2.34 0.09-3.54 0.28-7.51 1.16-15.56 5.9-22.68 13.36s-11.48 15.73-12.29 23.28c-0.78 7.36 1.86 14 7.85 19.71 8.14 7.76 33.55 6.33 52.16 2.56 2.88-18.79 3.12-44.27-4.98-52-5.02-4.77-10.56-7.19-16.52-7.19zM639.88 337.75c-3.61 0-7.39-0.16-11.37-0.48-16.28-1.33-30.01-4.91-30.59-5.07a11.988 11.988 0 0 1-8.67-9.09c-0.13-0.58-3.07-14.47-3.63-30.79-0.83-24.07 3.94-41.22 14.17-50.99 21.84-20.84 52.65-17.93 76.67 7.24 24.02 25.17 25.48 56.09 3.64 76.93-8.54 8.14-22.04 12.25-40.22 12.25z m-28.52-27.07c18.63 3.75 44.07 5.19 52.17-2.55 17.77-16.96 1.1-37.2-4.44-43-5.53-5.8-24.97-23.4-42.74-6.44-8.13 7.76-7.88 33.22-4.99 51.99zM480.15 255.33a12 12 0 0 1-6.78-2.1c-0.49-0.34-12.19-8.39-23.82-19.84-17.17-16.89-25.51-32.62-24.81-46.75 1.5-30.15 25.87-49.23 60.61-47.52 15.79 0.79 29.38 5.68 39.31 14.14 11.44 9.75 17.06 23.29 16.27 39.17-0.7 14.13-10.57 28.95-29.33 44.05-12.72 10.24-25.16 17.09-25.68 17.38-1.81 0.99-3.79 1.47-5.77 1.47z m-31.45-67.49c-0.56 11.23 17.14 29.53 32.15 41.16 16.1-10.1 35.54-26.57 36.1-37.75 0.41-8.27-2.24-14.9-7.87-19.71-5.78-4.93-14.64-7.92-24.94-8.44-8-0.4-34.22 0.2-35.44 24.74z" fill="#9E1919" p-id="12015"></path><path d="M332.8 651.48c-14.82 0-30.25-7.11-43.58-21.08-10.91-11.44-17.41-24.34-18.79-37.31-1.59-14.94 3.65-28.64 15.15-39.62 10.23-9.77 27.6-13.72 51.6-11.77 16.28 1.33 30.01 4.92 30.59 5.07 4.37 1.15 7.73 4.67 8.67 9.09 0.13 0.58 3.07 14.47 3.63 30.79 0.83 24.07-3.94 41.22-14.17 50.99-9.72 9.27-21.22 13.84-33.1 13.84z m24.81-22.53z m-31.88-63.71c-10.31 0-19.33 1.53-23.58 5.59-5.99 5.72-8.63 12.35-7.85 19.71 0.8 7.55 5.17 15.82 12.29 23.28 5.53 5.8 24.97 23.4 42.74 6.44 8.14-7.76 7.89-33.22 5-51.99-8.86-1.77-19.26-3.03-28.6-3.03zM632.89 651.48c-11.88 0-23.38-4.57-33.1-13.84-10.23-9.77-15-26.92-14.17-50.99 0.56-16.32 3.5-30.21 3.63-30.79 0.95-4.42 4.3-7.94 8.67-9.09 0.58-0.15 14.31-3.74 30.59-5.07 24-1.95 41.36 2.01 51.6 11.77 11.5 10.97 16.74 24.67 15.15 39.62-1.38 12.97-7.88 25.88-18.79 37.31-13.34 13.97-28.76 21.08-43.58 21.08z m-16.53-31.21c17.77 16.96 37.21-0.64 42.74-6.44 7.12-7.46 11.48-15.73 12.29-23.28 0.78-7.36-1.86-13.99-7.85-19.71-8.14-7.76-33.55-6.33-52.16-2.56-2.88 18.78-3.12 44.26 4.98 51.99zM481.04 739.94c-14.03 0-26.48-3.52-36.22-10.27-12.35-8.56-19.3-21.48-20.09-37.35-0.7-14.13 7.64-29.86 24.81-46.75 11.64-11.45 23.33-19.51 23.83-19.84 3.73-2.56 8.58-2.8 12.55-0.63 0.52 0.29 12.96 7.14 25.68 17.38 18.76 15.1 28.63 29.92 29.33 44.05 0.79 15.87-4.84 29.42-16.27 39.17-9.93 8.46-23.52 13.35-39.31 14.14-1.46 0.07-2.89 0.1-4.31 0.1z m-32.34-48.81c0.41 8.27 3.71 14.61 9.79 18.83 6.24 4.33 15.36 6.43 25.65 5.91 10.3-0.51 19.16-3.51 24.94-8.44 5.64-4.8 8.28-11.43 7.87-19.71-0.56-11.18-19.99-27.64-36.09-37.75-15.01 11.66-32.72 29.97-32.16 41.16z" fill="#9E1919" p-id="12016"></path><path d="M442.8 920.42c-1.8 0-3.63-0.41-5.36-1.27-5.93-2.96-8.33-10.17-5.37-16.1 27.98-55.95 32.68-99.7 31.69-126.55-1.06-28.91-8.75-44.96-8.83-45.11-2.99-5.92-0.59-13.1 5.32-16.09 5.92-2.98 13.15-0.58 16.14 5.34 1.51 3 36.35 74.74-22.86 193.15-2.09 4.2-6.32 6.63-10.73 6.63z" fill="#9E1919" p-id="12017"></path><path d="M477.14 920.42c-3.88 0-7.68-1.88-10-5.34-3.68-5.51-2.19-12.96 3.33-16.64 60.15-40.1 15.99-167.1 15.53-168.38-2.21-6.25 1.05-13.11 7.3-15.32 6.25-2.21 13.1 1.05 15.32 7.3 2.11 5.94 50.69 146.01-24.84 196.37a11.954 11.954 0 0 1-6.64 2.01z" fill="#9E1919" p-id="12018"></path></svg>