<?xml version="1.0" standalone="no"?><!DOCTYPE svg PUBLIC "-//W3C//DTD SVG 1.1//EN" "http://www.w3.org/Graphics/SVG/1.1/DTD/svg11.dtd"><svg t="1769746649962" class="icon" viewBox="0 0 1024 1024" version="1.1" xmlns="http://www.w3.org/2000/svg" p-id="3542" xmlns:xlink="http://www.w3.org/1999/xlink" width="128" height="128"><path d="M909.696 242.176c-3.84 0.384-7.552 0.64-8.96 3.584v0.128l-0.384 0.896v0.128c-3.712 9.216-9.856 19.328-11.648 22.016-14.592 21.888-33.024 20.096-39.936 20.096H173.312c-7.04 0-25.472 1.792-39.936-20.096-1.664-2.56-7.936-12.672-11.648-22.016v-0.128l-0.384-0.896v-0.128c-1.408-2.944-5.12-3.2-8.96-3.584l-74.752 52.992c2.048-2.048 8.192 2.432 9.6 5.632v0.128l0.512 1.408v0.128c2.688 7.168 6.528 13.824 11.392 19.712 0.256 0.256 0.384 0.512 0.512 0.64 2.944 3.584 6.4 6.784 9.984 9.728 13.056 10.496 34.304 6.912 52.992 7.424H899.2c18.688-0.512 39.936 3.072 52.992-7.424 3.712-2.944 7.04-6.272 9.984-9.728 0.128-0.256 0.384-0.384 0.512-0.64 4.864-5.888 8.704-12.544 11.392-19.712v-0.128l0.512-1.408v-0.128c1.408-3.2 7.424-7.68 9.6-5.632l-74.496-52.992z" fill="#55AEFF" p-id="3543"></path><path d="M1023.744 321.28c0-8.32-4.992-16-12.544-19.328l-106.624-75.008c-1.536-1.152-7.04-4.608-13.056-4.608-8.704 0-16.512 5.248-19.84 13.44-0.128 0.256-0.128 0.512-0.256 0.768l-0.384 1.152c0 0.128-0.128 0.256-0.128 0.256-1.792 5.376-4.48 10.368-7.808 14.848-0.128 0.256-0.384 0.512-0.512 0.64-2.048 2.688-4.352 5.12-6.912 7.424-5.888 5.248-13.568 5.504-25.728 5.504-2.688 0-5.504 0-8.448 0.128H202.496c-2.944-0.128-5.76-0.128-8.448-0.128-12.032 0-19.712-0.256-25.728-5.504-2.56-2.304-4.864-4.736-6.912-7.424-0.128-0.256-0.384-0.512-0.512-0.64-3.328-4.48-6.016-9.472-7.808-14.72 0-0.128-0.128-0.256-0.128-0.384l-0.384-1.152c-0.128-0.256-0.128-0.512-0.256-0.64-3.2-8.192-11.008-13.44-19.84-13.44-6.016 0-11.52 3.584-13.056 4.608L12.8 301.952C5.248 305.408 0.384 312.96 0.384 321.28s4.864 15.616 11.904 19.072c-0.128 1.152-0.256 2.304-0.256 3.456 0 11.136 8.32 20.352 19.456 21.248h0.64c1.152 0.256 2.048 1.152 2.176 2.432v0.64c-0.128 0.512-0.128 1.024-0.128 1.28 0 20.352 14.976 33.536 38.016 33.536 1.28 0 2.944 0.128 4.608 0.256 1.92 0.128 3.84 0.256 5.76 0.256h17.152v45.184c0 4.736 3.84 8.576 8.576 8.576h29.824c0.768 8.448 5.12 16.128 11.648 21.376-0.256 1.536-0.384 3.072-0.384 4.608 0 17.024 13.824 30.848 30.848 30.848 0.896 0 1.664 0 2.56-0.128 5.76 7.552 14.848 12.16 24.576 12.16h1.408v217.856H198.4c-4.736 0-8.576 3.84-8.576 8.576v40.576c0 4.736 3.84 8.576 8.576 8.576h83.456c4.736 0 8.576-3.84 8.576-8.576v-40.576c0-4.736-3.84-8.576-8.576-8.576h-10.368V525.952h1.408c7.168 0 13.952-2.56 19.328-6.784v152.32h-10.368c-4.736 0-8.576 3.84-8.576 8.576V720.64c0 4.736 3.84 8.576 8.576 8.576h83.456c4.736 0 8.576-3.84 8.576-8.576v-40.576c0-4.736-3.84-8.576-8.576-8.576h-10.368V457.216h312.448v214.4h-10.368c-4.736 0-8.576 3.84-8.576 8.576v40.576c0 4.736 3.84 8.576 8.576 8.576h83.456c4.736 0 8.576-3.84 8.576-8.576v-40.576c0-4.736-3.84-8.576-8.576-8.576h-10.368v-152.32c5.376 4.352 12.16 6.784 19.328 6.784h1.408v217.856h-10.368c-4.736 0-8.576 3.84-8.576 8.576v40.576c0 4.736 3.84 8.576 8.576 8.576h83.456c4.736 0 8.576-3.84 8.576-8.576v-40.576c0-4.736-3.84-8.576-8.576-8.576h-10.368V525.952h1.408c9.728 0 18.688-4.608 24.576-12.16 0.896 0.128 1.664 0.128 2.56 0.128 17.024 0 30.848-13.824 30.848-30.848 0-1.536-0.128-3.072-0.384-4.608 6.528-5.12 10.88-12.928 11.648-21.376h36.736c4.736 0 8.576-3.84 8.576-8.576v-45.184h11.904c1.792 0 3.712-0.128 5.632-0.256 1.664-0.128 3.456-0.256 4.608-0.256 23.168 0 38.016-13.184 38.016-33.536 0-0.384 0-0.768-0.128-1.28v-0.512c0.128-1.152 1.024-2.176 2.176-2.432h0.64c11.136-1.024 19.456-10.112 19.456-21.248 0-1.152-0.128-2.304-0.256-3.456 7.296-3.456 12.16-10.624 12.16-19.072zM356.736 712.192H290.56v-23.296h66.304v23.296z m375.168 0H665.6v-23.296h66.304v23.296zM129.28 241.024c0.768-0.512 2.56-1.408 3.2-1.536 1.664 0 3.072 0.896 3.712 2.432l0.256 0.896c0 0.128 0.128 0.256 0.128 0.384 2.432 7.168 6.016 13.952 10.624 19.968 0 0.128 0.128 0.128 0.128 0.256 0.128 0.128 0.128 0.256 0.256 0.256l0.128 0.128c2.688 3.584 5.888 6.912 9.216 9.984 11.136 9.856 24.32 9.856 37.12 9.856 2.56 0 5.248 0 7.808 0.128h620.032c2.688-0.128 5.376-0.128 7.936-0.128 12.8 0 25.984 0 37.12-9.856 3.456-3.072 6.528-6.4 9.344-9.984l0.128-0.128 0.256-0.256s0.128-0.128 0.128-0.256c4.608-6.016 8.064-12.672 10.496-19.84 0-0.128 0.128-0.384 0.128-0.512l0.256-0.896c0.64-1.408 2.048-2.304 3.584-2.304 0.64 0.128 2.304 0.896 3.328 1.536l92.8 65.152s-0.128 0.128-0.128 0.256c-0.384 0.384-0.768 0.768-1.152 1.28 0 0.128-0.128 0.128-0.128 0.256l-1.152 1.536c-0.128 0.128-0.256 0.256-0.256 0.512-0.256 0.384-0.512 0.768-0.768 1.28-0.128 0.128-0.128 0.384-0.256 0.512-0.256 0.64-0.64 1.152-0.768 1.792-0.128 0.256-0.128 0.512-0.256 0.64l-0.384 1.152c0 0.128 0 0.128-0.128 0.256-1.792 5.376-4.48 10.368-7.808 14.848-0.128 0.256-0.384 0.512-0.512 0.64-2.048 2.688-4.352 5.12-6.912 7.424-9.472 8.32-21.504 13.184-34.176 13.568H91.52c-3.968-0.128-8.064-0.768-11.904-1.664-8.192-2.176-15.872-6.144-22.272-11.904-0.64-0.512-1.28-1.152-1.92-1.792-1.536-1.536-3.072-3.2-4.48-4.992-0.256-0.256-0.384-0.512-0.64-0.768-0.128-0.256-0.384-0.512-0.512-0.64-2.304-3.072-4.224-6.4-5.888-9.856-0.768-1.664-1.408-3.328-2.048-4.992 0-0.128-0.128-0.256-0.128-0.384l-0.384-1.152c-0.128-0.256-0.128-0.512-0.256-0.64-0.256-0.64-0.512-1.28-0.768-1.792-0.128-0.128-0.128-0.384-0.256-0.512-0.256-0.384-0.512-0.896-0.768-1.28-0.128-0.128-0.128-0.256-0.256-0.512l-1.152-1.536c0-0.128-0.128-0.128-0.128-0.256-0.384-0.384-0.768-0.896-1.152-1.28l-0.128-0.128 92.8-65.152z m-104.32 83.2c-0.64 0.256-1.408 0.64-2.048 1.024-0.384 0.128-0.896 0.256-1.28 0.256-2.304 0-4.096-1.792-4.096-4.096 0-1.92 1.28-3.328 2.56-3.712h0.128c0.128 0 0.256-0.128 0.384-0.128h0.896c1.664 0 3.072 0.896 3.712 2.432l0.256 0.896c0 0.128 0.128 0.256 0.128 0.384 0.256 0.896 0.64 1.792 1.024 2.688-0.512-0.256-1.152 0-1.664 0.256zM51.2 370.432v-0.384c0.128 0.128 0.128 0.256 0 0.384z m156.16 138.368c-5.376 0-10.24-3.2-12.416-8.064-1.408-3.2-4.48-4.992-7.808-4.992-0.896 0-1.792 0.128-2.688 0.384-1.28 0.384-2.688 0.64-4.096 0.64-7.552 0-13.696-6.144-13.696-13.696 0-1.792 0.384-3.584 1.024-5.248 1.792-4.352-0.128-9.344-4.48-11.136-3.968-1.792-6.784-5.376-7.808-9.472h53.376v51.584H207.36z m65.92 275.712h-66.304v-23.296h66.176v23.296z m-47.232-40.576v-286.72h28.288v286.72h-28.288zM285.44 500.864c-2.176 4.864-7.04 8.064-12.416 8.064-0.512 0-1.024 0-1.408-0.128v-51.584h53.376c-0.896 4.224-3.712 7.68-7.808 9.472-4.224 1.92-6.272 6.912-4.48 11.136 0.64 1.664 1.024 3.456 1.024 5.248 0 7.552-6.144 13.696-13.696 13.696-1.408 0-2.816-0.256-4.096-0.64-4.224-1.28-8.704 0.64-10.496 4.736z m24.064 11.648c12.416-3.968 21.376-15.616 21.376-29.44 0-1.536-0.128-3.072-0.384-4.608 2.816-2.304 5.248-4.992 7.168-8.064v201.088h-28.288V512.512z m403.456 0v158.976h-28.288v-200.96c1.92 3.072 4.352 5.76 7.168 8.064-0.256 1.536-0.384 3.072-0.384 4.608 0 13.696 9.088 25.344 21.504 29.312z m36.48-3.712c-5.376 0-10.24-3.2-12.416-8.064-1.408-3.2-4.48-4.992-7.808-4.992-0.896 0-1.792 0.128-2.688 0.384-1.28 0.384-2.688 0.64-4.096 0.64-7.552 0-13.696-6.144-13.696-13.696 0-1.792 0.384-3.584 1.024-5.248 1.792-4.352-0.128-9.344-4.48-11.136-3.968-1.792-6.784-5.376-7.808-9.472h53.376v51.584h-1.408zM815.36 784.512h-66.304v-23.296h66.176v23.296z m-47.232-40.576v-286.72h28.288v286.72h-28.288z m91.008-277.248c-4.224 1.92-6.272 6.912-4.48 11.136 0.64 1.664 1.024 3.456 1.024 5.248 0 7.552-6.144 13.696-13.696 13.696-1.408 0-2.816-0.256-4.096-0.64-4.224-1.408-8.704 0.64-10.496 4.608-2.176 4.864-7.04 8.064-12.416 8.064-0.512 0-1.024 0-1.408-0.128v-51.584h53.376c-0.896 4.224-3.84 7.808-7.808 9.6z m53.376-26.752H116.864v-36.48h795.648v36.48z m78.72-92.032h-0.896c-9.728 1.024-17.152 8.832-17.664 18.56v1.152c0 0.64 0 1.28 0.128 1.92-0.128 13.184-11.392 16-20.864 16-1.792 0-3.84 0.128-5.888 0.256-1.664 0.128-3.328 0.256-4.48 0.256H924.16c-0.896-0.384-1.92-0.512-2.944-0.512H721.664h-0.128-45.44-0.128H346.496h-0.128-45.44-0.128H108.288c-1.024 0-2.048 0.256-2.944 0.512H82.56c-1.28 0-2.944-0.128-4.608-0.256-1.92-0.128-4.096-0.256-5.888-0.256-9.472 0-20.608-2.816-20.864-16 0-0.64 0.128-1.28 0.128-1.92v-1.152c-0.512-9.728-7.936-17.536-17.664-18.56h-0.896c-2.048-0.256-3.584-2.048-3.584-4.096 0-1.28 0.64-2.56 1.664-3.328 0.64-0.256 1.28-0.64 1.92-1.024 0.64-0.384 1.152-0.768 1.664-1.28l0.128 0.128c0.64 0.896 1.152 1.664 1.792 2.56 0 0.128 0.128 0.128 0.128 0.256 0.128 0.128 0.128 0.256 0.256 0.256l0.128 0.128c2.688 3.584 5.888 6.912 9.216 9.984 12.416 11.008 28.416 17.28 44.928 17.92H933.12c10.368-0.384 20.48-2.944 29.696-7.552 1.792-0.896 3.584-1.92 5.376-2.944 1.792-1.024 3.456-2.176 5.12-3.456 1.664-1.28 3.328-2.56 4.864-3.84 3.456-3.072 6.528-6.4 9.344-9.984l0.128-0.128c0.128-0.128 0.128-0.128 0.256-0.384l0.128-0.128c0.64-0.768 1.28-1.664 1.792-2.56 0-0.128 0.128-0.128 0.128-0.256 0.512 0.512 1.024 0.896 1.664 1.28 0.64 0.384 1.152 0.64 1.92 1.024 1.024 0.768 1.664 2.048 1.664 3.328-0.384 2.048-1.92 3.84-3.968 4.096z m11.264-22.528c-0.512 0-0.896-0.128-1.28-0.256-0.64-0.384-1.408-0.768-2.048-1.024-0.64-0.256-1.152-0.384-1.792-0.512 0.384-0.896 0.64-1.792 1.024-2.688 0-0.128 0.128-0.384 0.128-0.512l0.256-0.896c0.128-0.256 0.256-0.384 0.384-0.64l0.128-0.128c0.128-0.128 0.256-0.256 0.384-0.512l0.128-0.128c0.384-0.384 0.768-0.64 1.28-0.768 0.256-0.128 0.384-0.128 0.64-0.256h0.128c0.128 0 0.384 0 0.512-0.128h0.896c0.256 0 0.512 0.128 0.768 0.256 1.28 0.512 2.56 1.792 2.56 3.84-0.128 2.56-1.92 4.352-4.096 4.352z" fill="#002C5B" p-id="3544"></path></svg>