<?xml version="1.0" standalone="no"?><!DOCTYPE svg PUBLIC "-//W3C//DTD SVG 1.1//EN" "http://www.w3.org/Graphics/SVG/1.1/DTD/svg11.dtd"><svg t="1769746666159" class="icon" viewBox="0 0 1024 1024" version="1.1" xmlns="http://www.w3.org/2000/svg" p-id="4201" xmlns:xlink="http://www.w3.org/1999/xlink" width="128" height="128"><path d="M277.632 764.672c-9.088-9.088-9.088-24.064 0-33.152L908.032 101.12c9.088-9.088 24.064-9.088 33.152 0 9.088 9.088 9.088 24.064 0 33.152L310.656 764.672c-9.088 9.088-23.936 9.088-33.024 0z" fill="#55AEFF" p-id="4202"></path><path d="M268.288 838.016c7.808-11.008 16.384-25.088 21.12-36.608 1.024-0.384 2.048-0.768 2.944-1.408 2.176-1.536 4.224-3.2 6.144-5.12L973.824 119.552l0.128-0.128L993.408 99.84c8.704-8.704 12.928-20.224 12.544-31.616 3.072-1.536 5.888-3.456 8.32-5.888 12.288-12.288 12.288-32.256 0-44.672l-6.4-6.4c-5.888-5.888-13.824-9.216-22.272-9.216s-16.384 3.328-22.272 9.216c-2.432 2.432-4.48 5.248-5.888 8.32-11.392-0.256-22.912 3.84-31.616 12.544L906.24 51.84l-0.128 0.128-643.2 643.2c-1.92 1.152-3.456 2.688-4.608 4.608l-27.392 27.392c-0.512 0.512-0.896 0.896-1.28 1.408-3.072 0.768-5.12 1.536-5.76 1.792-5.376 1.92-82.432 31.36-122.24 106.24-36.736 68.864-75.52 104.192-91.392 107.392-5.504 1.152-9.6 5.632-10.112 11.136-0.384 3.84 1.024 7.68 3.712 10.24 1.152 1.152 2.432 2.048 3.968 2.688 0.512 0.256 2.432 1.024 5.632 2.048 1.408 0.64 3.456 1.28 6.016 1.792 25.216 6.528 88.064 14.08 159.104-41.984 46.72-36.992 74.624-70.4 89.728-91.904z m11.008-97.152c-4.864-4.992-10.24-8.448-15.488-10.624l12.672-12.672c1.024-0.128 1.92-0.256 2.944-0.256 6.016 0 11.648 2.304 15.872 6.528l6.016 6.016c5.376 5.376 7.552 12.928 6.016 20.352l-14.08 14.08c-1.92-6.784-5.76-14.848-13.952-23.424zM968.96 50.176l6.528 6.528c1.792 1.792 3.072 3.712 3.84 5.888v0.128c2.56 6.4 1.28 14.08-3.968 19.2l-0.128 0.128c-2.304-5.632-5.76-11.008-10.368-15.488l-6.016-6.016c-4.48-4.48-9.728-7.936-15.36-10.368l0.128-0.128c7.04-6.784 18.432-6.784 25.344 0.128z m-47.36 22.272c1.28-0.256 2.432-0.384 3.712-0.384 6.016 0 11.648 2.304 15.872 6.528l6.016 6.016c5.12 5.12 7.424 12.416 6.272 19.456L329.6 727.808c-2.304-5.888-5.888-11.264-10.496-15.872l-6.016-6.016c-4.352-4.352-9.472-7.808-14.976-10.112L921.6 72.448z m64.128-44.928c1.024 0 2.816 0.256 4.352 1.792l6.4 6.4c2.048 2.048 2.304 5.248 0.896 7.68-1.152-1.536-2.432-3.072-3.84-4.48l-6.528-6.528c-1.408-1.408-2.944-2.688-4.48-3.84 1.152-0.896 2.432-1.024 3.2-1.024zM162.816 909.952C135.808 931.328 110.464 942.08 88.832 947.2c11.392-7.808 24.32-17.92 38.656-30.976 5.248-4.736 5.632-12.672 0.896-17.92s-12.672-5.632-17.92-0.896c-16.64 15.104-30.592 25.6-41.984 33.024 18.816-20.992 38.272-49.28 55.552-81.792 30.208-56.832 88.576-87.424 108.544-94.336 0.128 0 0.384-0.128 0.512-0.128 0 0 1.024-0.384 2.688-0.768 1.792 0.128 3.712-0.256 5.376-0.896 5.888-0.64 13.824 0 19.584 5.888 0.128 0.128 0.128 0.256 0.256 0.256 8.96 9.344 8.32 14.464 7.552 20.864-0.256 2.176-0.512 4.352-0.512 6.784-1.92 8.704-25.728 60.8-105.216 123.648z" fill="#002C5B" p-id="4203"></path></svg>