<?xml version="1.0" standalone="no"?><!DOCTYPE svg PUBLIC "-//W3C//DTD SVG 1.1//EN" "http://www.w3.org/Graphics/SVG/1.1/DTD/svg11.dtd"><svg t="1769744674156" class="icon" viewBox="0 0 1024 1024" version="1.1" xmlns="http://www.w3.org/2000/svg" p-id="7039" xmlns:xlink="http://www.w3.org/1999/xlink" width="128" height="128"><path d="M29.780409 268.765052c-0.604672-1.868985-2.033896-3.902881-1.704075-5.606955 1.511679-7.723307 1.67659-7.668337 4.837373-9.949598 0.769582 1.429224 1.181858 3.270724 2.336232 4.122761 1.209343 0.907008 3.105814 0.907008 4.425097 1.209344 4.122762-2.803478 1.594134-5.24965-0.32982-7.998158 3.847911-1.126888 5.41456-3.490605 5.332104-7.173605 0-0.961978 1.264314-1.978926 2.006411-2.940903 1.649105-2.143836 4.480068-4.150247 4.782403-6.458993 0.632157-4.919829 3.875396-7.283545 7.146121-9.977083 0.934493-0.769582 1.73156-1.759045 2.336231-2.830963 1.484194-2.583597 3.215754-4.672463 6.321568-5.551986 1.044433-0.302336 1.704075-2.033896 2.748508-3.380664 1.456709 0.357306 3.133299 0.797067 5.084739 1.264313 0.549702-2.995873-2.528627-5.771866 0.687127-8.437918 1.236828 0.742097 2.583597 1.594134 3.902881 2.391201 2.116351-0.824552 4.260187-1.649105 7.31103-2.830962 1.978926-6.404023 4.232702-13.770024 6.568934-21.38339 1.978926 2.061381 3.600545 3.765456 5.194679 5.442045 2.885933-2.473657 5.222165-4.315157 7.338516-6.376538 1.154373-1.126888 2.556112-2.556112 2.748507-4.012821 0.494731-3.600545 2.611082-5.029769 6.129173-5.24965-0.247366-1.78653-0.439761-3.215754-0.549702-3.957851 2.061381-1.429224 3.985336-2.446172 5.497015-3.902881 2.033896-1.978926 3.957851-3.435635 6.788814-0.742097 1.099403-1.814015 1.89647-3.023358 2.611083-4.260187 3.353179-5.771866 8.327978-10.141993 12.917986-14.841942 1.154373-1.209343 3.353179-1.401739 5.112224-2.088866-0.247366-1.8415-0.522216-3.875396-0.879522-6.404023 1.8415 0.027485 3.023358 0.05497 4.892344 0.082456 1.154373-3.353179 2.391202-6.898754 3.73797-10.746665 0.604672 0.659642 1.484194 1.594134 3.133299 3.408149-0.027485-3.930366-0.05497-7.03618-0.082455-10.141993 2.803478-1.704075 2.940903 1.814015 4.809888 2.721022 0.824552-1.181858 1.62162-2.308746 2.638568-3.765455 0.549702 1.429224 0.961978 2.501142 1.759044 4.535037 0.659642-2.748508 1.071918-4.507553 1.56665-6.623903 2.830963 0.192396 4.067791-1.401739 5.084739-3.930366 1.236828-3.050844 3.325694-5.744381 5.277135-8.98762 1.814015 1.401739 3.243239 2.473657 4.644978 3.545575 3.545575-0.274851 2.088866-5.387075 5.964262-5.826837 2.775993-0.302336 5.41456-1.95144 8.547859-3.160784-0.05497-3.545575 2.281261-6.376538 4.974799-8.850194 2.363717-2.171321 0.714612-4.397612 0.10994-7.888218l6.019232 3.105814c3.188269-0.219881 5.112224-5.826836 10.032053-1.016948-0.742097-2.198806-0.934493-2.858448-1.264314-3.84791 3.655515 0.412276 5.442045-2.281261 7.750792-4.699949 1.209343 0.632157 2.446172 1.291799 3.600545 1.896471 0.467246-0.274851 0.989463-0.384791 1.071918-0.632157 1.456709-4.644978 6.074202-5.964262 9.207501-8.82271 0.137425-0.10994 0.384791-0.302336 0.494731-0.247366 5.689411 2.281261 9.922113-3.820426 15.666494-2.253776 0.302336-1.73156 0.522216-3.105814 0.824553-4.892344 6.871269 1.78653 10.60924-2.885933 14.594576-6.898754 2.556112-2.556112 5.084739-4.727433 9.15253-4.315157 1.539164 0.16491 3.298209-0.577187 4.782404-1.291799 2.693538-1.291799 5.167194-2.556112 8.437918-2.253776 1.95144 0.16491 4.644978-0.989463 5.991747-2.473657 2.336232-2.611082 5.46953-3.078329 8.327978-4.287672 2.198806-0.934493 4.782403-1.044433 5.991747-3.655515 0.219881-0.467246 1.401739-1.016948 1.814015-0.824552 2.940903 1.401739 3.73797-1.291799 5.19468-3.023359 0.522216 1.181858 0.879522 1.978926 1.456709 3.298209 2.088866-2.033896 4.040306-3.902881 6.294083-6.074202 0.797067 0.302336 1.978926 0.714612 3.518089 1.291799 1.456709-1.346769 2.775993-3.353179 5.716897-3.023359 1.89647 0.192396 3.957851-0.879522 5.881806-1.539164 2.116351-0.742097 4.122762-2.033896 6.294083-2.363717 2.336232-0.357306 5.442045 1.181858 7.063664 0.109941 4.342642-2.858448 9.839658-1.236828 13.934935-4.370127a2.473657 2.473657 0 0 1 1.539164-0.439762c5.551986 0.137425 9.509837-0.934493 13.330262-3.325694 1.016948-0.632157 2.473657-0.549702 3.655515-1.016948 2.693538-1.016948 5.771866-1.429224 5.854322-5.551985 0-0.961978 2.336232-2.721023 3.51809-2.638568 3.188269 0.219881 6.321568 1.236828 10.251934 2.116351 0.467246-0.549702 1.539164-1.73156 2.253776-2.583597 2.583597-0.274851 5.24965 0.16491 7.09115-0.879523 3.133299-1.78653 5.689411-0.989463 8.492889 0.219881 2.363717 1.016948 4.727433 2.061381 7.25606 3.188269 1.099403-1.319284 1.814015-2.363717 2.693537-3.270724 3.160784-3.353179 9.317441-4.425097 13.879964-2.666053 1.099403 0.412276 2.968388 0.797067 3.545575 0.247366 2.666052-2.583597 5.442045-1.236828 7.888217-0.329821 5.689411 2.116351 11.351337 2.721023 17.370569 1.67659 3.792941-0.659642 7.695822-0.797067 11.543732-0.852038 1.346769 0 2.995873 0.604672 3.985337 1.484195 1.923955 1.759045 3.847911 2.088866 6.156657 1.209343 4.535038-1.704075 9.015105-1.044433 13.742538-0.494731 6.898754 0.769582 13.934934 0.274851 21.713211 0.302335 2.143836 1.62162 4.974799 4.452582 9.070076 0.961978 2.858448 0.577187 5.799351 4.480068 8.822709-0.412276 2.913418 3.847911 6.101687 5.387075 10.719181 4.947314 3.51809-0.357306 7.338516 0.769582 10.82912 1.8415 7.475941 2.308746 15.693979 0.522216 22.895069 4.205217 0.494731 0.247366 1.154373 0.274851 1.56665 0.604671 5.24965 4.727433 11.461277 2.940903 17.425538 2.473657 2.033896-0.16491 4.012821-0.659642 6.431508-1.099403 0.549702 0.961978 1.209343 2.061381 1.78653 3.160784 0.961978 1.868985 2.116351 2.858448 4.480068 2.143836 1.319284-0.412276 3.133299-0.439761 4.260187 0.192396 3.160784 1.759045 6.156657 2.253776 9.619777 0.797067 0.742097-0.302336 2.830963 0.604672 3.105814 1.374254 1.099403 3.243239 3.188269 2.940903 5.826836 2.446172 2.528627-0.467246 5.167194-0.384791 7.998157-0.577187 1.374254 3.655515 3.023358 6.926239 6.843785 8.410434 2.391202 0.934493 4.342642 1.566649 6.623903-0.659642 1.264314-1.264314 3.545575-1.511679 5.387075-2.226291 1.291799 4.425097 3.325694 7.475941 7.14612 8.960135 1.89647 0.742097 3.820426 1.456709 5.799352 1.95144 6.651389 1.73156 6.678874 1.704075 10.087023-3.847911 2.775993 1.016948 1.291799 5.854321 6.211627 5.332105-4.012821 6.706359-8.108098 12.038464-11.901038 17.370569-2.803478-0.247366-2.940903-1.704075-2.721023-3.62803 0.522216-4.809888-0.274851-5.442045-5.084739-4.287672-1.429224 0.357306-2.803478 0.797067-4.480068 1.264313-0.797067-1.401739-1.484194-2.638567-2.336231-4.150246-1.209343 0.302336-2.583597 0.329821-3.600545 0.961977-4.232702 2.611082-8.025643 1.429224-12.093434-0.604671-9.097561-4.590008-18.524942-8.410434-28.859331-9.234986-3.985336-0.329821-7.695822-1.594134-11.516247-2.885933-4.150247-1.401739-7.613366-3.46312-11.351337-5.442046-2.528627-1.346769-6.294083-0.412276-9.757203-0.494731 0 4.617493 2.748508 5.799351 5.606956 6.513963 3.600545 0.879522 7.283545 1.511679 10.966546 2.006411 5.46953 0.742097 7.118635 2.363717 7.778277 8.382948-0.742097 0.577187-1.649105 1.181858-2.446172 1.896471-0.632157 0.577187-1.154373 1.291799-2.391202 2.721022 3.957851 1.209343 7.14612 2.473657 10.471815 3.105814 4.672463 0.879522 9.427381 1.236828 14.099844 1.814015 1.126888-1.456709 2.061381-3.875396 3.737971-4.590008 1.78653-0.769582 4.287672 0 6.458993 0.219881 5.964262 0.549702 9.867143 5.30462 15.034337 7.503426 0.797067 0.329821 1.594134 2.253776 1.319284 3.105814-0.522216 1.67659-2.088866 1.78653-3.710486 1.071918-3.62803-1.594134-7.283545-3.215754-11.186426-0.824553 0.302336-3.57306-3.023358-2.940903-5.112225-3.62803 1.73156 1.154373 3.435635 2.336232 5.167195 3.490605 5.387075 2.913418 10.746665 5.854321 16.13374 8.740255 0.604672 0.329821 1.456709 0.769582 2.006411 0.577186 3.902881-1.236828 5.442045 1.264314 6.761329 4.122762 1.099403 2.363717 2.611082 2.968388 5.35959 2.611082 2.830963-0.384791 6.211627-0.247366 8.602829 1.071918 1.8415 1.016948 3.57306 4.260187 3.435635 6.404023-0.16491 3.050844 0.934493 4.919829 3.105813 6.761329-0.577187 1.154373-0.852037 2.611082-1.621619 2.940903-2.748508 1.209343-5.744381 1.814015-7.256061 5.002284-0.219881 0.467246-2.693538 0.522216-3.463119-0.082455-0.632157-0.494731-0.824552-2.913418-0.329821-3.298209 1.73156-1.291799 1.95144-2.198806 0.769582-4.095277-0.549702-0.907008 0.219881-2.611082 0.384791-4.012821-1.539164-0.687127-3.40815-0.852037-3.298209 1.236828 0.219881 3.875396-2.363717 5.634441-5.08474 8.080613-2.363717-1.209343-4.809888-2.473657-7.25606-3.710485-1.154373-0.604672-2.281261-1.594134-3.51809-1.704075-5.551986-0.549702-9.097561-4.782403-13.632598-7.173605-2.088866-1.099403-2.830963-2.885933-3.215754-6.239113 3.792941 1.484194 7.503426 4.370127 11.543732 0.797068-0.989463-2.748508-3.105814-2.556112-5.139709-2.501142-2.693538 0.082455-4.947314-0.522216-7.173605-2.391202-3.73797-3.160784-6.074202-2.418687-8.740255 2.088866-0.357306 0.632157-0.961978 1.099403-1.511679 1.73156-4.260187-0.687127-8.492889-1.236828-12.67062-2.116351-4.150247-0.879522-4.947314-2.171321-4.095277-6.321568 0.384791-1.8415 1.511679-4.040306-0.687127-4.947314-2.253776-0.934493-4.727433-1.346769-7.283545 0.357306-3.023358 2.006411-6.321568 4.260187-9.757203 4.727433-3.298209 0.467246-7.118635-0.687127-10.279418-2.088866-3.133299-1.374254-5.744381-3.957851-8.795225-6.156657 1.291799-1.923955 2.281261-3.40815 3.270724-4.864858-3.078329-2.198806-5.442045-2.501142-7.475941-0.577187-2.033896 1.89647-3.73797 4.122762-5.771866 6.404023-4.754918-0.879522-9.537322-1.566649-14.154815-2.803478-1.264314-0.329821-2.446172-2.226291-3.023358-3.683-2.308746-5.826836-2.226291-5.854321-6.953725-10.746665-2.940903 0.989463-5.854321 1.978926-8.767739 2.940903-0.989463 2.611082 2.968388 5.24965-0.714612 8.300493-1.016948-1.099403-2.253776-2.088866-3.050844-3.353179-1.539164-2.391202-3.765456-3.62803-6.431508-4.095277-1.89647-0.357306-3.902881-0.522216-3.490605 2.638568 0.082455 0.632157-1.071918 1.594134-1.868985 2.143836-1.759045 1.236828-3.62803 2.308746-6.239112 3.930366 1.89647 0.769582 2.940903 1.649105 3.765455 1.484194 5.112224-1.044433 9.702232 1.099403 14.457151 2.171321 1.209343 0.274851 2.501142 0.302336 3.73797 0.16491 5.716896-0.659642 11.241397-0.742097 16.546016 2.281262 2.363717 1.346769 5.24965 1.978926 7.970673 2.528627 7.640851 1.566649 15.364158 2.940903 23.032494 4.370127 0.357306 0.05497 0.797067-0.05497 1.099404 0.082455 3.270724 1.704075 6.349053 4.232702 9.812172 4.974799 3.325694 0.687127 6.623904 0.714612 9.757202 2.528627 2.528627 1.456709 5.497015 2.446172 8.410434 2.913419 5.826836 0.934493 10.691695 3.985336 15.996315 6.129172 5.30462 2.143836 9.784687 5.084739 14.319725 8.300493 0.797067 0.549702 2.143836 0.659642 3.160784 0.494731 6.568933-1.099403 11.791098 0.934493 16.326136 5.854322 3.133299 3.40815 6.953724 5.991747 11.626187 7.503426 4.370127 1.401739 8.410434 3.902881 12.588165 5.909291 0.494731 0.247366 0.907008 0.852037 1.401739 0.879523 8.437919 0.549702 13.357747 6.953724 19.37698 11.543732 0.439761 0.329821 0.934493 0.797067 1.429224 0.824553 4.452582 0.247366 7.03618 3.710485 10.334389 5.881806 6.211627 4.095276 12.203374 8.492889 18.634882 12.203374 3.160784 1.814015 6.376538 2.885933 8.602829 6.294083 1.181858 1.814015 4.535038 2.308746 6.98121 3.160784 1.704075 0.604672 2.666052 1.401739 3.353179 3.243239 0.577187 1.566649 2.198806 2.885933 3.57306 4.040306 3.270724 2.748508 6.678874 5.35959 10.032053 7.998158 0.852037 0.687127 1.73156 1.594134 2.721023 1.814015 3.655515 0.742097 5.497015 3.62803 7.613366 6.184142 1.291799 1.566649 2.473657 3.270724 3.902881 4.672463 4.232702 4.122762 8.602829 8.135583 12.890501 12.203374 0.522216 0.494731 1.154373 1.044433 1.401739 1.67659 3.298209 8.273008 10.251934 13.412718 16.216196 19.459435 3.600545 3.655515 6.788814 7.998157 9.04259 12.588165 2.501142 5.057254 5.799351 8.602829 10.416844 11.928523 4.342642 3.133299 8.465404 7.833247 10.416844 12.753076 3.490605 8.740255 9.152531 16.106255 13.385233 24.351778 3.133299 6.074202 6.486478 12.065949 10.82912 17.53548 2.418687 3.078329 3.57306 7.25606 6.623904 10.114508-0.10994 5.497015 1.759045 10.114508 6.019232 13.687568-0.714612 5.387075 3.73797 8.602829 5.497015 12.945472 1.759045 4.260187 4.205217 8.245523 6.101687 12.478225 0.797067 1.78653 1.978926 4.727433 1.209344 5.661925-2.885933 3.490605-1.374254 7.970672-3.600545 11.818584 0.879522 0.357306 1.649105 0.714612 2.446171 0.989462 3.985336 1.264314 4.617493 1.78653 4.480068 5.799352-0.082455 2.281261 0.549702 3.930366 2.061381 5.5245 2.391202 2.528627 3.847911 5.442045 3.655515 9.070076-0.05497 1.071918 0.247366 2.198806 0.577187 3.243239 2.143836 6.926239 4.452582 13.797509 6.486478 20.778718 0.604672 2.088866 0.494731 4.370127 0.769582 6.568933 0.247366 2.033896 0.274851 4.122762 0.852037 6.074202 1.374254 4.644978 3.40815 9.097561 4.425098 13.797509 1.126888 5.139709 1.566649 10.471814 2.033896 15.721464 0.439761 4.837374 0.632157 9.674747 0.797067 14.539606 0.16491 4.452582-4.425097 8.960135-8.71277 8.712769-0.192396 0-0.412276 0-0.549701-0.10994-2.775993-2.556112-6.596418-4.644978-7.998158-7.805762-1.044433-2.391202-2.995873-6.349053 0.412277-9.619777 1.209343 0.384791 2.556112 0.824552 4.122761 1.319284 0.027485-0.824552 0.274851-1.484194 0.05497-1.78653-0.769582-1.016948-1.539164-2.171321-2.583597-2.748508-3.765456-2.033896-5.771866-4.837374-5.222165-9.317441 0.16491-1.401739-0.247366-3.105814-0.961977-4.287672-2.171321-3.57306-1.429224-6.788814 0.742097-9.867143 1.429224-2.006411 1.566649-3.57306-0.467247-5.30462-0.879522-0.742097-1.319284-2.198806-1.676589-3.408149-1.704075-5.661926-3.490605-11.296367-4.919829-17.013263-1.044433-4.177732-1.484194-8.520374-2.281261-12.780561-0.357306-2.006411-0.879522-3.985336-0.384792-6.431508-1.8415-1.539164-3.902881-2.858448-5.46953-4.644978-1.401739-1.566649-2.226291-3.62803-3.600545-5.964261-1.73156 3.188269-1.264314 5.35959-0.302336 8.245523 1.511679 4.425097 3.73797 9.097561 1.071918 14.182299-1.566649 2.968388 0.10994 5.991747 1.951441 8.300494 4.122762 5.139709 5.222165 10.939061 4.837373 17.260628-0.05497 1.044433 0.302336 2.143836 0.659642 3.160784 0.247366 0.687127 0.879522 1.209343 1.236829 1.868985q4.122762 8.190553-1.429224 15.226733c1.044433 0.714612 2.033896 1.429224 3.078328 2.116351 1.566649 1.016948 2.336232 2.308746 1.704075 4.260187-0.852037 2.693538 0.329821 4.809888 1.401739 7.31103 1.594134 3.683 2.198806 7.888217 2.775993 11.928524 0.384791 2.693538-0.879522 3.765456-3.600545 3.600545-2.006411-0.137425-4.012821-0.577187-6.019232-0.907008-1.319284 5.002284-0.879522 7.283545 3.875396 9.482352 3.902881 1.78653 5.084739 4.480068 5.606955 8.163068 0.439761 3.215754 1.539164 6.156657-0.137425 9.619777-0.852037 1.78653-1.511679 4.919829 1.291799 7.118635 2.033896 1.594134 0.852037 4.095276 0.10994 6.211627-0.384791 1.154373-0.961978 2.611082-0.604672 3.62803 1.95144 5.744381 2.775993 11.351337 0.137426 17.150688-0.714612 1.566649-0.412276 3.62803-0.439762 5.469531-0.05497 3.545575 0 7.063665 0 10.609239v8.135583c-1.868985 0.522216-2.143836 2.308746-2.033895 4.809889 0.16491 3.710485 1.126888 7.640851-1.594135 11.103971-0.549702 0.687127 0 2.171321-0.082455 3.270724-0.10994 1.291799 0.027485 2.858448-0.632157 3.792941-2.775993 3.820426-3.957851 7.750792-2.446172 12.395769 0.219881 0.687127-0.467246 1.73156-0.907007 2.528628-0.852037 1.594134-2.666052 3.215754-2.501142 4.644978 0.274851 2.638567 1.67659 5.167194 2.693537 7.723306 0.274851 0.659642 0.824552 1.236828 1.319284 1.78653 2.006411 2.171321 3.792941 1.978926 5.222165-0.687127 0.604672-1.126888 0.769582-2.473657 1.236828-3.683 0.852037-2.171321 3.188269-2.775993 4.205217-0.934493 1.89647 3.380664 4.122762 6.733844 3.435634 10.994031-0.659642 4.012821-1.264314 8.025643-1.731559 12.065949-0.192396 1.649105 0.302336 3.353179 0.16491 5.002284-0.10994 1.154373-0.742097 2.253776-1.264313 3.655515-0.852037-0.604672-1.566649-0.852037-1.649105-1.236828-0.769582-3.73797-3.160784-6.349053-5.551986-9.180016-2.336232-2.803478-3.902881-6.321568-5.551985-9.647262-1.181858-2.418687-2.721023-3.325694-5.35959-2.611082-2.198806 0.604672-4.480068 0.934493-6.678874 1.374254-1.89647-1.868985-3.683-3.655515-5.46953-5.414561 0.137425 4.919829 0 9.592292 2.940903 13.687569 0.769582 1.099403 0.934493 3.545575 0.219881 4.507552-0.659642 0.907008-2.968388 1.099403-4.397613 0.852038-4.837374-0.852037-9.152531-5.854321-9.729717-10.856606-0.137425-1.291799-0.247366-2.583597-0.412276-4.287672-1.704075-0.522216-3.40815-1.044433-4.864859-1.511679 0-3.160784-0.302336-6.266598 0-9.289956 0.714612-6.843784 1.649105-13.660083 2.638568-20.476382 0.10994-0.769582 1.044433-1.401739 1.539164-2.143836 0.467246-0.714612 1.126888-1.429224 1.264313-2.198807 0.604672-4.177732 1.016948-8.410434 1.649105-12.588165 0.137425-0.961978 1.016948-1.814015 2.171321-3.765455 1.868985 3.655515 3.325694 6.486478 5.057254 9.894627 4.397612-1.923955 8.905165-3.160784 13.715054-2.253776-0.522216-6.733844-1.89647-7.778277-6.788814-5.332105-2.803478-2.116351-6.871269-3.490605-4.562523-8.300493-0.577187-0.439761-0.879522-0.852037-1.154373-0.852038-5.771866 0.274851-8.520374-3.023358-6.019232-8.135582 2.830963-5.799351 2.033896-11.461277 0.961978-17.288114-0.412276-2.171321-0.824552-4.315157-1.209344-6.294083-3.40815-1.814015-5.222165 4.782403-8.850195 0.934493-0.577187-1.649105 1.814015-4.095276-0.989462-5.854321-0.467246-0.302336 0-3.46312 0.934492-4.397613 1.649105-1.649105 2.968388-3.985336 6.376538-3.298209 2.253776 0.467246 3.902881-2.088866 4.040306-4.370127 0.16491-2.556112-0.137425-5.19468-0.632156-7.723307-0.549702-2.693538-1.566649-5.277135-2.528628-8.300493-1.594134 0.247366-3.325694 0.522216-5.41456 0.852037-0.384791-1.016948-0.907008-1.978926-1.126888-2.995873-0.439761-2.061381-0.824552-4.397612 1.511679-5.41456 2.638567-1.154373 3.380664 1.346769 4.205217 3.243239 3.820426-3.545575 3.683-3.490605 2.308747-7.530911-0.714612-2.088866-1.016948-4.315157-1.401739-6.513964-0.357306-2.171321-0.577187-4.370127-0.852038-6.541448-0.082455-0.549702-0.439761-1.346769-0.21988-1.621619 2.913418-3.51809 0.16491-6.678874-0.824553-9.757203-1.291799-3.985336-1.649105-7.805762-1.346768-11.983493 0.192396-2.995873-1.016948-6.129172-1.896471-9.125046-1.044433-3.46312-3.62803-6.239112-2.913418-10.55427 0.467246-2.830963-1.209343-6.129172-2.281261-9.070075-1.484194-4.095276-1.484194-4.452582 3.380664-7.008695 1.016948 1.319284 1.89647 2.995873 3.243239 4.067792 0.742097 0.577187 2.253776 0.219881 3.40815 0.274851 0-1.209343 0.494731-2.721023-0.05497-3.51809-0.797067-1.154373-2.336232-1.759045-3.57306-2.611083-3.820426-2.611082-3.820426-3.050844-0.219881-6.486478 0.384791-0.357306 0.604672-0.879522 1.181858-1.759045-2.006411-1.539164-3.930366-3.050844-5.854321-4.562523 1.126888 3.765456-1.978926 6.101687-2.473657 9.509837-1.429224-1.456709-2.583597-2.885933-3.985336-4.012821-1.154373-0.934493-2.583597-1.539164-4.480068-1.89647 2.363717 3.078329 0.714612 6.074202 0.549702 8.905164-0.16491 2.940903-0.852037 5.854321-1.429224 9.427382l-6.596419-4.232702c0.494731-0.549702 0.769582-1.099403 1.181859-1.264313 5.139709-2.061381 4.947314-1.978926 3.243239-7.503427-1.649105-5.387075-3.050844-10.71918-7.530911-14.677031-2.116351-1.89647-2.088866-5.332105-2.446172-7.613366-0.384791-2.391202-0.549702-4.177732-2.061381-6.266598-3.050844-4.177732-5.771866-8.630314-8.163068-13.220322-1.044433-2.006411-0.934493-4.617493-1.429224-7.42097-5.46953 1.8415-6.321568-4.012821-9.949598-6.266598-0.824552 0.494731-1.67659 1.181858-2.638567 1.484194-0.742097 0.247366-1.649105 0-2.473657 0 0.082455-0.824552-0.082455-1.814015 0.302336-2.446172 0.632157-1.044433 1.594134-1.89647 2.00641-3.73797-1.539164 0.412276-3.105814 0.852037-5.167194 1.401739-0.16491-1.401739-0.302336-2.693538-0.522217-4.699948 3.490605 0.439761 6.376538 0.797067 9.372412 1.154373 2.226291-2.995873 2.446172-5.139709-0.137426-6.706359-4.699948-2.830963-9.015105-6.706359-15.226732-6.074202-2.775993 0.274851-2.940903-0.302336-3.435635-5.442045-0.852037 0.659642-1.511679 1.154373-2.171321 1.676589q-0.824552-3.40815 7.063665-5.112224c0.797067 0.879522 1.594134 1.759045 2.446172 2.721023 2.281261-3.51809 2.198806-4.260187-0.549702-5.029769-1.209343-0.329821-2.556112-0.247366-3.847911-0.329821-3.902881-0.219881-4.122762-0.467246-4.370127-5.30462 2.391202-0.219881 2.501142 5.387075 6.349053 2.253776-2.253776-2.088866-3.325694-4.562523-4.260187-7.366001-0.742097-2.198806-3.847911-3.710485-6.046717-5.304619-1.154373-0.824552-3.023358-0.907008-3.820426-1.923956-1.264314-1.649105-2.281261-1.73156-4.205217-1.319284-1.67659 0.357306-3.600545-0.522216-5.46953-0.852037 3.023358-6.101687 2.775993-7.173605-2.253776-9.344926 1.236828-1.209343 2.336232-2.281261 3.435634-3.380665-5.771866-4.782403-7.668337-4.644978-11.241396 1.099403-1.429224-3.188269-6.513963-3.105814-5.854322-8.300493 1.511679 0.16491 2.858448 0.329821 4.480068 0.494732 0.687127-3.298209 1.374254-6.486478 1.978926-9.482352-2.693538-2.116351-6.513963-3.655515-7.146121-6.074202-0.632157-2.336232-1.759045-3.078329-3.215754-4.095277-0.797067-0.549702-1.868985-1.539164-2.528627-1.319283-3.380664 1.016948-4.315157-1.181858-5.249649-3.545575-0.412276-1.044433-0.687127-2.116351-1.099403-3.325694-3.380664-0.522216-5.964262-1.484194-5.991747-5.826837 0-3.023358-5.854321-6.211627-9.674747-6.019232-2.775993 0.137425-5.5245 0.192396-9.042591 0.329821 3.133299-4.315157-0.989463-7.14612-0.632156-11.158941-1.868985 1.62162-3.270724 2.830963-4.644979 4.012821-0.274851-0.192396-0.577187-0.384791-0.852037-0.577186 0.16491-1.209343 0.357306-2.418687 0.467246-3.655516 0.219881-2.143836-1.868985-5.826836-3.79294-6.101687-0.961978-0.137425-2.253776 0.714612-3.133299 1.456709-1.346769 1.126888-2.446172 2.556112-4.095277 4.315157-0.852037-1.594134-1.319284-2.473657-1.8415-3.463119-1.016948 0.302336-2.061381 0.604672-3.490604 1.016948-0.357306-1.264314-0.659642-2.446172-0.907008-3.29821-1.8415-0.797067-4.177732-1.071918-5.084739-2.363716-1.016948-1.456709-0.714612-3.820426-1.016948-5.854322-1.73156-0.412276-3.62803-0.852037-5.497016-1.291798 0-0.274851 0-0.549702-0.027485-0.852038 0.852037-0.329821 1.704075-0.659642 2.611083-1.016948-0.219881-1.566649-0.961978-3.243239-0.467247-4.370127 1.236828-2.803478-0.137425-4.617493-2.143836-5.551985-2.226291-1.016948-4.754918-0.879522-6.266597 1.814015-0.247366 0.412276-0.879522 0.604672-1.374254 0.907007-2.611082-4.837374-9.234986-6.761329-8.76774-14.567091l-3.902881 5.579471c-1.62162-3.050844-2.913418-5.551986-4.177731-7.943187-2.611082 0.219881-5.057254 0.961978-7.228576 0.467246-2.253776-0.522216-4.507553-3.46312-6.266597-3.078329-2.885933 0.632157-4.370127-1.291799-7.750792-1.374253 2.748508-2.088866 3.875396-3.820426 2.088866-6.129173-1.978926-2.556112-6.596418-4.122762-9.592292-3.105813a2.583597 2.583597 0 0 0-0.989463 0.494731c-5.606956 4.837374-10.746665 2.281261-15.776434-1.044433-3.243239-2.143836-6.486478-4.287672-9.537322-6.678874-2.033896-1.594134-3.902881-2.061381-6.101687-0.522216-2.940903 2.033896-6.074202 0.824552-9.15253 0.522216-0.302336-0.027485-0.494731-0.879522-0.907008-1.649104 1.456709-0.549702 2.748508-1.071918 4.782403-1.8415-0.604672-1.181858-1.016948-3.160784-1.814015-3.325695-4.425097-0.907008-8.960135-1.374254-13.495172-2.00641-0.219881-0.742097-0.467246-1.594134-0.632157-2.116351-3.792941 0.989463-7.31103 1.89647-10.829121 2.803478-0.742097-2.583597-1.374254-4.892344-2.198806-7.750792-2.198806 1.209343-3.710485 2.061381-5.551985 3.078328-0.357306-1.511679-0.632157-2.693538-1.016948-4.287672-4.974799 0.412276-10.032053 0.742097-10.389359-6.926239-2.693538 2.088866-3.298209 5.442045-6.486478 3.957851-0.137425-0.05497-1.209343 1.89647-2.143837 3.40815-1.759045-0.522216-3.655515-1.044433-5.551985-1.649105-0.879522-0.274851-1.923955-1.236828-2.501142-0.989463-3.710485 1.511679-6.019232-0.769582-8.547859-3.160784l-4.205217 3.215754c-1.181858-0.659642-2.473657-1.374254-3.765455-2.088865 1.016948-0.769582 2.061381-1.566649 3.820425-2.913419-3.710485-0.357306-4.754918 0.412276-3.62803 2.995874-3.435635-1.401739-6.843784-2.913418-10.306904-4.205217-3.875396-1.456709-5.332105-0.412276-5.909291 4.205217-4.315157-1.264314-2.006411-5.442045-3.35318-8.108098-3.600545 1.016948-4.809888 4.150247-6.431508 6.294083-2.501142 0.302336-4.727433 1.071918-6.761329 0.687127-1.978926-0.357306-3.765456-1.89647-6.321567-3.270725 0-0.027485-0.192396-1.071918-0.384792-2.171321-1.566649-0.16491-3.023358-0.302336-4.535037-0.467246-0.329821 0.852037-0.632157 1.67659-1.016948 2.721023-1.649105-0.357306-3.243239-0.714612-5.277135-1.181859-0.714612 2.226291-1.401739 4.287672-1.923955 5.909292-3.73797-0.219881-7.393486-0.219881-10.939061-0.769582-1.8415-0.302336-4.012821-1.209343-5.167194-2.583597-1.78653-2.116351-3.600545-2.748508-7.14612-2.198807 1.67659 1.209343 2.721023 1.78653 3.490604 2.638568 0.549702 0.604672 0.659642 1.566649 0.961978 2.363716-0.961978 0.274851-2.061381 0.989463-2.885933 0.742098-1.154373-0.357306-2.088866-1.429224-4.452583-3.188269l-0.302335 3.84791c-0.412276 0-0.879522 0.16491-1.071918 0-1.704075-1.456709-3.270724-2.033896-5.497016-0.577186-1.814015 1.209343-4.205217 1.511679-6.184142 2.473657-2.446172 1.209343-4.644978 1.8415-7.393486 0.494731-1.181858-0.577187-3.160784 0-4.617493 0.577187-3.298209 1.236828-6.458993 2.775993-10.169478 4.425097-1.511679-2.308746-2.858448-4.342642-4.452583-6.733844-5.029769 3.050844-8.520374 8.437919-13.660083 12.972957-4.590008-3.160784-10.032053-2.006411-14.814457 0.439761-4.205217 2.143836-10.471814 2.775993-10.444329 9.729717-2.858448 0.824552-5.277135 1.346769-7.613366-1.456709-1.704075-2.061381-3.215754-1.511679-4.727434 0.989463-0.467246 0.742097-0.769582 1.594134-0.989462 2.088866-3.160784 1.016948-4.122762-3.957851-7.613367-1.78653 0.577187 1.456709 1.126888 2.913418 1.923956 4.947314-2.253776 0-4.370127 0.027485-6.843785 0.05497q-2.226291 3.270724-6.788814 0.989462c-3.325694 1.456709-6.486478 2.885933-10.141993 4.507553-0.632157 2.143836-1.456709 4.809888-2.336232 7.833247-2.775993 0.05497-5.936777 0.769582-8.712769 0-2.611082-0.714612-4.782403-2.940903-7.640851-4.837374-0.659642 2.061381-1.181858 3.545575-1.594135 5.08474-0.384791 1.429224-0.604672 2.885933-0.934492 4.397612-2.693538 2.116351-5.551986 4.067791-8.053128 6.431508-0.907008 0.852037-0.961978 2.638567-1.594135 4.535038-1.923955 0.247366-4.177732 1.071918-6.211627 0.687127-2.885933-0.522216-5.084739 0.632157-6.431508 2.473657-1.62162 2.198806-3.435635 3.105814-6.074202 2.995873-0.797067 1.78653 1.566649 4.782403-1.704075 5.084739-1.868985 0.16491-3.820426-0.687127-6.321568-1.209343-0.687127 1.264314-1.868985 2.748508-2.308746 4.452582-0.687127 2.721023-2.336232 4.260187-4.864859 4.699949-3.820426 0.687127-5.332105 3.545575-6.871269 6.541448-0.824552 1.594134-1.73156 3.160784-2.858448 4.535038-3.435635 4.260187-7.008695 8.437919-10.77415 12.945471-2.501142 0.467246-5.35959 1.016948-8.410434 1.594134 0.687127 2.033896 1.319284 3.902881 1.8415 5.469531-9.949598 3.325694-15.611524 10.691695-21.273449 19.212069-5.799351 0.467246-8.520374 4.562523-8.492889 10.581754-1.923955 2.446172-6.019232 0.797067-6.816299 4.562523-0.549702 2.528627-1.511679 4.947314-2.336232 7.503426-1.649105-0.05497-2.913418-0.10994-4.315157-0.16491-0.192396 0.494731-0.522216 0.989463-0.522216 1.484194-0.137425 4.067791-1.126888 7.475941-4.782404 10.169478-1.923955 1.401739-2.748508 4.315157-4.205216 6.404023-1.456709 2.116351-4.754918 4.425097-4.397613 6.019232 0.907008 3.957851-4.040306 3.160784-4.040306 6.486478 0 2.006411-2.885933 3.930366-4.232702 6.046717-1.566649 2.418687-2.913418 5.002284-4.480068 7.750792 0.879522 2.281261 1.89647 4.919829 3.215755 8.327978-3.050844-0.329821-5.46953-0.494731-6.349053 2.473657-0.219881 0.769582-1.236828 1.346769-1.951441 1.923956-2.088866 1.67659-3.160784 3.46312-1.868985 6.266597 1.126888 2.418687 0.577187 4.507553-1.759045 6.294083-1.181858 0.907008-1.868985 2.638567-2.446172 4.095276-1.67659 4.315157-3.050844 8.740255-4.809888 13.000442-1.456709 3.51809-2.143836 8.053128-1.868986 13.220322 0.082455 1.759045-0.797067 3.545575-1.236828 5.30462-5.24965 1.868985-5.387075 2.281261-2.446172 7.283545 1.071918 1.814015 2.143836 3.600545 3.62803 6.046717-0.192396 1.429224-0.494731 3.73797-0.824552 6.486478-3.57306-0.852037-5.222165 2.446172-7.475941 4.507553-0.659642 0.577187 0 2.611082 0.082455 4.452583 2.336232-0.742097 4.067791-1.291799 5.771866-1.841501 0.934493 3.435635-2.583597 3.188269-3.105813 4.947314-0.879522 4.040306-1.759045 8.080613-2.858448 13.082897 0.494731 0.742097 1.8415 2.308746 2.666052 4.122761 0.439761 0.989463 0.494731 2.858448-0.137425 3.490605-0.632157 0.632157-2.391202 0.467246-3.51809 0.164911-1.209343-0.357306-2.253776-1.291799-3.57306-2.116351-0.687127 0.769582-1.401739 1.539164-2.171321 2.391201-3.160784-0.769582-5.167194-2.721023-5.854322-5.909291-6.211627 1.126888-11.928523 0.742097-17.810329-1.484194-3.40815-1.291799-7.778277-2.418687-11.323852 1.346769-0.797067-1.154373-1.594134-2.308746-2.885933-4.150247-1.401739 2.363717-2.473657 4.205217-3.40815 5.716896-2.748508 0.687127-5.909292 0.604672-7.860732 2.116351-5.5245 4.177732-10.032053 0.934493-14.072359-1.78653-4.617493-3.133299-9.262471-6.568933-12.120919-11.818583-2.116351-3.875396-4.425097-7.503426-4.342643-12.203374 0.05497-2.666052-1.209343-5.41456-0.907007-7.998158 0.329821-2.693538 2.528627-5.222165 2.638567-7.888217 0.137425-3.105814 2.198806-4.837374 3.133299-7.20109 2.528627-6.486478 5.084739-13.137867 3.57306-20.421412-0.219881-1.071918-0.439761-2.226291-0.274851-3.270725 0.412276-2.693538 1.8415-5.442045 1.456709-7.970672-0.769582-4.892344-2.501142-9.619777-3.84791-14.539606-1.923955 0.742097-3.46312 1.346769-5.002284 1.923956-3.875396-5.167194-8.053128-10.004568-11.378822-15.391644-2.006411-3.243239-3.545575-7.25606-3.792941-10.99403-0.219881-3.380664-1.649105-5.964262-2.858448-8.76774-1.016948-2.391202-2.253776-4.672463-3.710485-7.723307-0.412276 1.319284-0.687127 2.116351-0.934493 2.968389q-9.977083-3.078329-7.888217-12.45074c-1.209343-0.797067-2.528627-1.67659-4.012821-2.666053 0.247366-1.539164 0.852037-3.215754 0.604671-4.727433-0.219881-1.346769-1.429224-2.528627-2.363716-4.040306 0.632157-1.099403 1.346769-2.363717 2.088866-3.62803-0.10994-0.329821-0.10994-0.824552-0.329821-0.961978-2.583597-1.62162-3.160784-3.40815-0.989463-5.936777 0.769582-0.879522 1.154373-2.281261 1.291798-3.490605 0.274851-2.336232-0.412276-5.084739 0.577187-6.981209 1.126888-2.143836 3.683-3.545575 5.606956-5.222165 0.247366 1.319284 0.494731 2.611082 0.852037 4.425098 1.814015-2.583597-0.082455-3.243239-0.907007-4.315157zM512.995549 54.161571c-2.501142-0.329821-3.985336-0.907008-5.332105-0.632157-2.666052 0.549702-5.24965 1.484194-7.833247 2.363717-5.029769 1.67659-9.949598 1.566649-15.199248 0.412276-3.655515-0.797067-7.860732-0.329821-11.543732 0.687127-5.277135 1.484194-10.141993 1.978926-14.951882-1.044433-0.577187-0.357306-1.759045-0.824552-2.006411-0.577187-2.363717 2.391202-4.562523-0.797067-6.898754-0.10994-0.357306 0.439761-0.742097 0.824552-1.071918 1.264313-2.968388 3.930366-3.51809 4.095276-7.366001 1.099403-1.978926-1.539164-3.57306-1.209343-5.551985-0.05497-4.452582 2.611082-9.04259 4.727433-13.797509-0.357306-1.8415 2.088866-3.40815 3.820426-5.661926 6.376538-1.209343-0.824552-2.721023-2.693538-3.930366-2.501142-4.782403 0.742097-9.454867 2.061381-14.154815 3.325694-1.868985 0.494731-3.655515 1.374254-5.716896 2.171321-0.329821 0.934493-0.742097 2.143836-1.319283 3.737971 2.446172 0.329821 4.205217 1.484194 7.008694 0.824552 5.854321-1.374254 12.065949-1.126888 17.947756-2.446172 4.397612-0.989463 8.382949-3.710485 13.220322-2.721022 0.274851 0.05497 0.632157-0.329821 0.961977-0.549702 6.404023-4.315157 13.495173-3.243239 20.201532-1.676589 4.699948 1.099403 8.575344 1.759045 12.56068-1.56665 1.264314-1.044433 3.435635-1.78653 5.002284-1.539164 7.25606 1.154373 14.594576 1.429224 21.850636 1.181858 6.074202-0.219881 12.093434-2.391202 18.057696 0.604672 0.274851 0.137425 0.742097-0.137425 1.099403-0.10994 5.002284 0.412276 10.114508-0.907008 15.061822 0.961977 0.687127 0.247366 1.484194 0.302336 2.226292 0.274851 2.638567-0.082455 3.683-1.264314 3.408149-3.957851-0.384791-3.655515-2.885933-5.24965-6.019232-6.294083-2.666052 6.211627-3.215754 7.805762-13.137867 2.638568 0.632157-0.384791 1.209343-0.769582 2.885934-1.814015z m382.125026 320.228633c-2.143836-5.222165-2.088866-5.19468 1.67659-10.004569 0.659642-0.852037 1.099403-2.556112 0.714612-3.490604-0.989463-2.363717-2.501142-4.507553-3.792941-6.733844-0.16491-0.302336-0.219881-0.659642-0.329821-0.961978l2.501142-2.198806c-2.803478-3.353179-5.5245-6.541448-8.135583-9.839658-3.46312-4.342642-8.657799-7.833247-7.503426-14.979367 1.89647-1.236828 4.177732-1.456709 6.651389-1.319283 0.769582 0.027485 2.116351-0.494731 2.281261-1.071918 0.274851-0.907008 0.16491-2.446172-0.439761-2.968389-0.989463-0.852037-2.583597-1.67659-3.765455-1.484194-2.748508 0.467246-5.332105 1.594134-6.541449 4.480068-2.116351-2.061381-3.62803-4.260187-5.716896-5.469531-3.710485-2.143836-6.101687-4.617493-5.46953-9.262471 0.137425-0.989463-0.742097-2.088866-1.62162-4.397612-1.319284 3.435635-2.171321 5.579471-2.995873 7.723307 2.033896 2.363717 3.765456 4.809888 5.909292 6.733844 1.759045 1.594134 2.775993 3.215754 3.353179 5.551985 1.071918 4.315157 2.171321 8.740255 4.122761 12.698106 2.858448 5.771866 6.458993 11.131456 9.647263 16.491046-2.336232 5.139709-2.033896 8.630314 1.704074 11.131456 2.088866 1.401739 2.830963 3.160784 3.957851 5.057254 0.907008 1.539164 0.907008 4.205217 3.737971 4.315158z m7.585881 179.422583c-1.319284-3.435635-1.814015-6.596418-3.545575-8.685285-2.088866-2.528627-5.24965-4.177732-8.300493-6.458993-5.112224 3.160784-3.188269 8.135583-2.858448 12.753076 2.775993-0.302336 5.222165-1.016948 7.475941-0.659642 2.308746 0.357306 4.425097 1.814015 7.228575 3.050844zM320.407614 95.306731c1.868985-4.425097 5.057254-4.397612 8.410433-4.177732 1.264314 0.082455 2.803478 0.10994 3.765456-0.522216 3.902881-2.583597 7.640851-5.35959 11.351337-8.190553 0.522216-0.412276 0.577187-1.429224 0.852037-2.171321-0.329821-0.247366-0.659642-0.494731-0.989463-0.769582l-5.964262 5.139709c-10.169479-1.319284-17.97524 2.995873-17.398053 10.66421z m545.496324 201.60304c-1.67659-0.494731-3.023358-0.879522-4.452582-1.291798-0.137425-2.088866-0.247366-3.875396-0.357306-5.799352-2.473657 0.907008-4.864859-4.205217-7.118635 0.164911 0.742097 2.666052 1.016948 5.579471 2.336231 7.860732 1.264314 2.171321 2.281261 5.057254 5.222165 5.826836 1.456709-2.253776 2.721023-4.232702 4.370127-6.761329zM588.497055 33.025546c-5.881806-4.535038-14.072359-6.623904-19.569375-5.222164 1.62162 1.099403 3.46312 2.006411 4.837374 3.380664 3.875396 3.847911 9.207501 4.727433 14.759486 1.8415z m272.78939 361.758585c2.666052-1.154373 6.458993-1.181858 6.046717-5.689411-0.192396-2.143836-1.401739-3.160784-3.545575-3.655515-3.380664-0.797067-4.782403 1.044433-5.854321 3.655515 1.126888 1.923955 2.226291 3.792941 3.353179 5.689411zM379.115738 73.043819c2.501142 0.412276 4.974799 1.016948 7.503426 1.071918 0.687127 0 2.006411-1.649105 2.006411-2.528627 0-1.649105-3.51809-3.902881-5.057254-3.29821-3.298209 1.291799-6.486478 2.885933-9.949598 4.480068 2.693538 4.232702 3.875396 0 5.497015 0.302336zM264.145661 124.688278l4.397612-5.35959c-4.947314-0.879522-5.881806 0.082455-4.397612 5.35959z m634.438034 228.510931c0.219881 2.226291 0.604672 4.260187 3.243239 4.370127 0.577187 0 1.8415-1.649105 1.704075-2.281261-0.549702-2.473657-2.308746-3.105814-4.947314-2.088866z m-14.29224 68.162991c-0.632157-1.67659-1.209343-3.133299-1.923956-4.974799q-2.281261 4.012821 1.923956 4.974799z m0.357306 44.635765c2.033896-1.923955 3.490605-3.133299 2.501142-6.816299-1.291799 2.446172-3.325694 3.353179-2.501142 6.816299zM256.587265 125.952592c1.8415-0.439761 3.710485-0.852037 2.556112-4.232702-1.154373 1.89647-1.8415 3.050844-2.556112 4.232702z m293.650563 19.404464c0.16491-0.384791 0.329821-0.769582 0.494731-1.126888-0.907008-0.439761-1.8415-0.879522-2.748507-1.319284-0.192396 0.412276-0.357306 0.852037-0.549702 1.264314 0.934493 0.384791 1.868985 0.797067 2.803478 1.181858z m330.617992 465.322355c0.082455 0.467246 0.137425 0.961978 0.219881 1.429224l2.446172-0.247366c-0.10994-0.467246-0.16491-1.374254-0.302336-1.374253-0.769582-0.05497-1.566649 0.10994-2.363717 0.192395zM716.275179 150.964012l0.742097-0.742097c-0.632157-0.604672-1.236828-1.236828-1.868986-1.8415-0.219881 0.247366-0.687127 0.687127-0.659641 0.714612 0.549702 0.659642 1.181858 1.264314 1.78653 1.868985z m-362.253316-69.72964c0.16491-0.907008 0.494731-1.704075 0.302336-1.814016-0.494731-0.357306-1.181858-0.467246-1.814015-0.687126-0.137425 0.439761-0.522216 1.126888-0.357306 1.291798 0.384791 0.467246 1.044433 0.714612 1.868985 1.181858z m538.047868 410.984357c-0.522216-0.384791-0.961978-0.687127-1.374253-0.989463-0.274851 0.439761-0.907008 1.016948-0.797068 1.264314 0.247366 0.494731 0.879522 0.797067 1.346769 1.181858 0.247366-0.439761 0.494731-0.879522 0.797067-1.456709z m-273.201666-330.123261c0.219881-0.274851 0.412276-0.549702 0.632157-0.824552-0.384791-0.219881-0.742097-0.439761-1.126888-0.659642-0.137425 0.329821-0.412276 0.687127-0.329821 0.961978 0.05497 0.219881 0.522216 0.329821 0.824552 0.494731z m-142.894915-20.668778c-0.247366-0.192396-0.494731-0.577187-0.714612-0.549701-0.274851 0.027485-0.494731 0.412276-0.742097 0.632157 0.247366 0.192396 0.494731 0.577187 0.714612 0.549701 0.274851-0.027485 0.494731-0.412276 0.742097-0.632157z m288.9781 110.682406c0.219881-0.247366 0.604672-0.494731 0.577187-0.714612 0-0.247366-0.412276-0.467246-0.632157-0.714612-0.219881 0.247366-0.604672 0.494731-0.577187 0.714612 0 0.247366 0.412276 0.467246 0.632157 0.714612z m-514.245792-12.753076c-0.10994-0.467246-0.137425-0.961978-0.329821-1.319284-0.082455-0.137425-0.604672 0-0.934492 0 0 0.439761 0 0.907008 0.10994 1.346769 0 0.05497 0.604672 0 1.126888-0.027485z" p-id="7040"></path><path d="M942.614788 290.093472c-1.016948-3.847911-2.033896-7.695822-3.133299-11.928523 4.122762-0.852037 5.579471 1.291799 7.008695 3.79294 1.566649 2.693538 3.160784 5.442045 5.139709 7.833247 4.150247 5.002284 3.188269 4.699948 0.302336 9.619777-0.604672 1.044433-1.759045 1.759045-2.556112 2.556112 0.604672 2.363717 1.814015 2.281261 3.490605 1.73156 4.177732-1.401739 5.002284-1.264314 6.184142 2.666053 1.456709 4.864859 2.171321 9.949598 3.215754 14.951882-0.384791 0.219881-0.769582 0.412276-1.154373 0.632157-2.693538-3.023358-5.387075-6.046717-7.943187-8.905165-3.46312 0.274851-6.733844 0.549702-10.389359 0.852037 0.05497 2.088866 0.10994 4.260187 0.16491 6.568933-3.353179-0.769582-5.964262-1.346769-8.547859-2.00641-0.522216-0.137425-1.126888-0.412276-1.429224-0.824553-4.370127-5.854321-10.032053-10.77415-9.207501-19.541889 0.439761-4.837374-3.957851-8.520374-7.943187-11.378822-1.126888-0.824552-2.666052-1.071918-4.892344-1.923956 1.67659 5.029769 1.95144 9.674747 5.579471 13.082897 0.934493 0.879522 1.814015 1.978926 2.281261 3.133299 2.446172 6.019232 4.562523 12.175889 7.14612 18.140151 2.666052 6.156657 6.019232 11.983494 8.520374 18.195121 2.501142 6.156657 3.985336 12.725591 6.541449 18.882248 2.226291 5.387075 4.535038 11.296367 11.488762 12.285829 2.748508 0.384791 3.160784 1.759045 3.160784 4.617493-1.566649-0.907008-2.611082-1.511679-3.820426-2.226291-0.302336 0.439761-0.824552 0.852037-0.824552 1.264313 0.10994 5.167194 0.05497 10.361874 0.522216 15.501584 0.577187 6.651389 1.264314 13.440203 2.638568 19.81674 1.291799 6.046717 1.67659 12.753076 5.5245 18.305062 1.209343 1.759045 1.044433 4.562523 1.319284 6.926239 0.302336 2.556112 0.302336 5.167194 0.659642 7.723307 0.742097 5.30462 2.446172 10.636725 2.226291 15.913859-0.192396 4.864859-0.549702 9.04259 1.566649 13.96242 2.006411 4.617493 0.852037 10.636725 0.989463 16.023799 0.05497 2.088866-0.274851 4.205217-2.611082 5.08474-2.418687 0.907008-4.397612 0-6.046717-1.759045-0.742097-0.797067-1.346769-1.73156-1.951441-2.501142-8.465404 0.714612-9.289956-0.577187-10.554269-9.262471-0.687127-4.699948 1.649105-6.458993 6.404023-5.469531 1.016948 0.219881 1.978926 0.577187 2.913418 0.852038 0.329821-0.687127 0.714612-1.209343 0.632157-1.319284-3.023358-3.902881-1.319284-7.970672-0.439762-12.010979 0.824552-3.73797-0.219881-4.837374-3.902881-4.205216-1.429224 0.247366-2.940903 0.577187-4.287672 0.302336-3.270724-0.659642-3.875396-1.814015-3.683-5.13971 0.137425-2.363717-0.05497-4.754918 0.082455-7.14612 0.05497-0.824552 0.522216-2.198806 1.016948-2.308746 0.907008-0.192396 2.226291 0.082455 2.913418 0.687127 1.154373 1.044433 1.923955 2.473657 3.188269 4.205216 2.336232-3.847911 3.820426-6.926239 1.78653-10.82912-1.044433-2.033896-1.923955-3.050844-4.562523-3.023359-5.497015 0-7.03618-1.759045-7.723306-7.036179-0.137425-1.071918-0.439761-2.226291-0.989463-3.133299-1.126888-1.814015-1.814015-3.51809-1.181858-5.799351 0.302336-1.099403-0.604672-2.446172-0.687127-3.710486-0.082455-1.154373 0.192396-2.336232 0.329821-3.51809 1.319284 0.329821 2.913418 0.302336 3.902881 1.071918 1.594134 1.236828 2.693538 3.078329 4.122761 4.535038 0.577187 0.577187 1.456709 0.852037 2.885933 1.62162-0.05497-1.67659 0.082455-2.721023-0.192395-3.62803-0.302336-1.044433-1.594134-2.116351-1.429224-2.968389 1.099403-5.222165-2.858448-6.596418-6.101687-8.630314-1.484194-0.934493-2.858448-2.061381-4.864859-3.51809 2.088866-0.989463 3.40815-1.594134 4.699948-2.226291 1.484194-0.714612 2.473657-1.759045 1.868985-3.545575-0.577187-1.73156-1.8415-2.171321-3.545575-1.759045-7.09115 1.62162-7.723307-0.412276-10.554269-6.074202-1.67659-3.325694-3.380664-6.678874-0.852037-10.526785 0.714612-1.099403 0.439761-2.858448 0.769582-5.606955 1.319284 2.418687 2.088866 3.820426 2.885933 5.277135 3.820426-3.270724 3.46312-7.833247-0.769582-12.17589-2.116351 0.302336-3.545575 4.287672-6.129173 1.649105-0.961978-0.989463-1.539164-3.270724-1.071918-4.535038 1.181858-3.160784 3.73797-0.687127 5.854322-0.494731 1.649105-3.820426-2.583597-5.24965-2.858448-8.135583-0.247366-2.638567-1.044433-5.222165-1.649105-8.163068-1.978926 2.006411-3.600545 3.62803-5.634441 5.689411-2.226291-3.820426-6.184142-5.551986-6.404023-9.949598 0-0.329821-0.219881-0.797067-0.494731-0.961977-5.854321-3.710485-6.211627-10.306904-8.327978-15.96883-0.907008-2.446172-1.78653-4.919829-2.693538-7.366001-0.247366-0.714612-0.384791-1.649105-0.907007-2.033896-3.957851-2.913418-4.974799-6.871269-4.837374-11.571217 0.027485-1.016948-1.759045-2.088866-2.721023-3.133299-1.319284-1.484194-3.57306-2.858448-3.79294-4.507552-0.742097-5.46953-4.177732-9.509837-6.678874-13.989905-1.319284-2.363717-1.511679-3.875396 0-6.019232 1.071918-1.539164 1.62162-3.435635 2.940903-6.458993-5.936777 1.978926-9.234986-1.264314-12.945471-2.913418-3.902881-1.704075-6.321568-5.057254-7.448456-9.289956-0.797067-3.023358-1.62162-5.909292-3.490605-8.685284-1.374254-2.033896-2.803478-3.133299-4.727433-4.260187-1.401739-0.824552-3.215754-1.923955-3.62803-3.270724-2.006411-6.761329-9.234986-9.784687-11.488762-16.353621-0.384791-1.154373-2.363717-1.67659-3.46312-2.666053-1.484194-1.374254-3.188269-2.693538-4.122762-4.397612-2.638567-4.727433-2.226291-5.35959 1.923956-8.98762 1.181858-1.044433 1.95144-3.105814 2.033895-4.754919 0.137425-2.088866-1.868985-2.528627-3.62803-2.666052-4.342642-0.329821-8.657799-0.632157-13.852479-0.989463 0 0.05497-0.604672-0.907008-0.687126-1.89647-0.219881-2.940903-1.126888-4.150247-4.562523-3.792941-4.617493 0.467246-7.943187-2.775993-10.994031-5.826836-3.930366-3.902881-7.943187-7.778277-11.461277-12.065949-1.814015-2.198806-2.611082-5.222165-4.012821-8.190553-1.291799 0.302336-2.666052 0.604672-3.105814 0.687127-5.139709-3.875396-9.592292-7.448456-14.29224-10.691695-4.040306-2.775993-5.854321-4.809888-6.706359-8.82271 5.057254 0.632157 6.074202 0 8.602829-5.881806-2.363717-1.236828-4.672463-2.748508-7.20109-3.683-1.95144-0.714612-4.040306-0.467246-5.277135 1.814015-1.319284 2.473657-3.490605 3.133299-6.541448 2.638567 0-6.843784-8.053128-5.332105-10.087024-10.114508-6.816299 1.429224-11.736128-1.759045-14.29224-8.987621-0.522216-1.511679-1.154373-2.995873-1.868985-4.864858-1.8415 0.604672-3.243239 0.961978-4.562523 1.511679-5.139709 2.143836-11.131456 0.439761-14.154814-4.122762-2.006411-3.023358-1.814015-5.661926 1.264313-7.695821 2.556112-1.67659 3.545575-3.023358 1.374254-5.744381-0.687127-0.852037-0.989463-2.556112-0.659642-3.655515 1.346769-4.535038 2.885933-9.070075 4.617493-13.467688 0.852037-2.198806 3.57306-2.418687 5.716896-0.742097 0.852037 0.687127 1.704075 2.391202 2.226291 2.281261 4.672463-1.044433 6.513963 2.666052 9.180016 5.057254 1.511679 1.374254 3.050844 2.693538 5.442045 1.181859 0.742097-0.467246 2.446172 0.137425 3.435635 0.687127 1.62162 0.907008 3.270724 1.95144 4.425097 3.353179 1.071918 1.319284 2.391202 3.40815 2.006411 4.727433-0.549702 2.006411-2.336232 3.847911-5.167194 2.748508-0.247366-0.082455-0.632157 0.219881-1.539165 0.577187 0.549702 1.044433 0.907008 2.748508 1.67659 2.968388 5.991747 1.73156 10.059538 6.431508 14.841942 9.867143 2.775993 1.978926 5.30462 4.370127 8.327978 6.266597 2.721023 1.67659 4.727433 4.507553 7.888217 7.695822-0.412276-3.325694-0.302336-5.689411-1.016948-7.778277-1.099403-3.243239 0.16491-4.947314 3.325695-6.376538 1.346769 0.797067 3.600545 1.374254 4.342642 2.748508 1.89647 3.51809 5.002284 5.387075 8.108097 7.42097 0.467246 0.302336 0.824552 1.181858 1.154374 1.126889 6.239112-0.797067 6.294083 4.452582 7.888217 8.080612 0.302336 0.714612 0.329821 2.116351-0.10994 2.473657-0.714612 0.577187-2.088866 0.989463-2.885934 0.659642-4.315157-1.649105-7.833247-4.260187-9.015105-9.399896-2.363717 0.632157-4.397612 1.181858-6.816299 1.8415 1.566649 5.277135 4.672463 8.492889 9.757202 9.839657 2.473657 0.659642 4.947314 1.374254 8.080613 2.253777 0.659642-0.852037 1.67659-2.116351 2.638567-3.40815 1.89647-2.638567 4.480068-3.160784 6.321568-0.632157 1.67659 2.336232 3.600545 3.243239 6.239113 3.930366 3.325694 0.879522 3.545575 4.260187 0.879522 9.015106-1.511679-0.247366-3.105814-0.522216-5.029769-0.852038-0.329821 4.535038 2.143836 6.871269 5.964262 8.575344 1.209343-2.116351 2.473657-4.287672 3.79294-6.596418 3.298209 1.016948 6.046717 3.133299 9.289956 0.742097 0.742097-0.549702 2.693538 0.577187 4.122762 0.961978-0.494731 7.173605 3.710485 11.983494 6.513963 16.491046 2.116351 0.467246 3.957851 0.357306 4.809889 1.209343 1.319284 1.374254 2.253776 3.325694 2.721022 5.167195 0.219881 0.852037-0.824552 2.583597-1.731559 3.023358-0.879522 0.439761-2.913418 0.16491-3.40815-0.549701-1.8415-2.638567-4.012821-1.814015-7.338516-1.401739 7.09115 5.661926 9.317441 14.567091 17.480509 18.662367 0.934493-2.803478 1.759045-5.277135 2.638568-7.970672 2.198806 0.659642 3.73797 1.319284 5.35959 1.539164 1.649105 0.219881 3.820426 2.226291 4.919829-0.329821 0.494731-1.154373-0.412276-3.050844-0.961978-4.507552-0.879522-2.253776-2.253776-4.342642-2.885933-6.651389-0.412276-1.539164 0.05497-3.325694 0.137425-5.002284 3.957851 0 5.46953 2.473657 6.761329 4.535038 1.89647 3.023358 3.957851 5.222165 7.640852 5.909291 1.319284 0.247366 2.446172 1.539164 4.040306 2.611082 0.577187-1.704075 1.099403-3.160784 1.594134-4.590007 0.522216 0.137425 0.961978 0.10994 1.209344 0.302335 1.8415 1.511679 3.57306 3.188269 5.497015 4.562523 3.078329 2.198806 6.019232 4.342642 6.953725 8.382949 0.302336 1.319284 1.511679 2.446172 2.336231 3.655515 2.143836 3.133299 0.852037 5.579471-2.995873 6.321568-2.116351 0.412276-4.232702 1.236828-6.101687 2.336231-1.704075 0.989463-2.693538 2.666052-0.687127 5.057254 0.797067-0.302336 1.704075-0.824552 2.666052-0.989462 0.769582-0.137425 1.62162 0.192396 2.446172 0.302336-0.467246 0.824552-0.797067 1.868985-1.484194 2.418686-0.632157 0.494731-1.67659 0.439761-2.666052 0.659642-0.10994 2.308746-0.10994 4.342642-0.302336 6.376538-0.412276 4.040306 0.577187 7.228575 4.370127 9.509837 1.566649 0.934493 2.418687 3.078329 3.655515 4.754918 4.480068-1.264314 5.222165-2.473657 3.188269-6.239112-1.126888-2.088866-2.721023-3.957851-4.287672-5.799352-3.050844-3.57306-2.995873-6.871269 0.329821-10.279419 1.181858-1.209343 2.363717-2.391202 3.545575-3.57306 0.522216 2.061381 0.687127 4.232702 1.594134 6.046717 0.934493 1.89647 2.583597 3.435635 4.919829 4.644978-0.16491-1.099403-0.329821-2.171321-0.604671-4.150246 1.456709 0.10994 3.792941 0.05497 3.84791 0.357306 0.412276 2.556112 0.412276 5.19468 0.577187 8.795224l3.62803 3.435635c0.714612-1.484194 1.319284-2.721023 2.171321-4.452582 4.864859 2.858448 6.541448 7.695822 9.647262 11.406307-9.839658 6.129172-9.509837 10.60924-4.342642 13.742538 3.73797-1.8415 1.8415-9.125046 8.602829-8.93265-0.329821 2.226291-0.577187 3.957851-0.907007 6.046717 5.991747 1.67659 6.404023 7.338516 9.125045 12.203374-2.033896 0.467246-3.57306 0.824552-5.277135 1.236829-0.797067 4.480068 2.473657 7.888217 3.710486 11.956008-2.418687 2.143836-4.754918 4.177732-6.98121 6.129172 0.549702 0.824552 0.797067 1.401739 0.961978 1.374254 5.029769-0.714612 8.465404 1.154373 10.71918 5.826837 0.852037 1.759045 1.704075 4.480068 4.809889 3.79294 1.016948 3.050844 1.62162 6.376538 5.167194 8.850195-0.879522-4.040306-0.604672-7.860732-5.222165-8.685284z m-65.414483-87.072724c-1.071918-1.319284-2.116351-2.638567-3.683001-4.617493q0.412276 4.562523 3.710486 4.590008-0.329821 3.765456 2.693537 3.353179c-0.989463-1.209343-1.868985-2.281261-2.721022-3.353179z m-10.691695 12.478225c1.484194 3.243239 2.940903 6.156657 4.205217 9.125046 1.511679 3.545575 3.847911 6.266598 7.036179 8.437918 1.62162 1.099403 3.133299 2.611082 4.150247 4.287672 2.693538 4.397612 5.112224 8.93265 7.585881 13.467688 2.528627 4.644978 5.002284 9.317441 7.723307 14.40218 0.412276-0.05497 1.484194-0.16491 2.583597-0.302335 0.549702-0.05497 1.154373 0 1.67659-0.164911 2.721023-0.769582 3.902881-3.710485 1.8415-5.442045-3.243239-2.693538-3.188269-6.046717-3.133299-9.482352 2.033896-1.8415 4.095276-1.814015 6.431508-1.181858 1.868985 0.522216 3.957851-0.384791 2.995874-2.501142-1.346769-3.023358-2.281261-6.898754-6.816299-7.420971-0.604672 0.769582-1.154373 1.484194-1.759045 2.198806-2.803478 3.298209-6.596418 3.188269-10.306904 2.721023-3.902881-0.494731-3.023358-3.985336-3.655516-6.568933-0.357306-1.511679-1.044433-3.62803-2.171321-4.150247-6.431508-2.940903-9.949598-8.190553-12.120919-14.539606-0.907008-2.638567-2.281261-3.655515-6.239112-2.885933z m69.72964 90.096083c1.456709 1.67659 2.418687 3.133299 3.710486 4.095276 0.632157 0.467246 1.89647 0.082455 2.885933 0.082455-0.192396-0.824552-0.082455-2.088866-0.577187-2.391201-3.985336-2.391202-4.370127-6.486478-5.35959-10.389359-0.632157-2.528627-1.8415-4.919829-2.830963-7.503427-4.260187 3.188269-5.799351 3.490605-7.695821 1.814016-2.006411-1.78653-1.978926-4.232702 0.247365-7.970673-2.061381-1.016948-4.067791-2.006411-6.706358-3.298209 1.044433 7.833247 3.930366 14.12733 8.602829 19.376979 1.95144 2.198806 3.490605 4.177732 3.79294 7.09115 0.05497 0.412276 0.522216 0.797067 0.824553 1.236829 1.016948-0.714612 1.89647-1.346769 3.105813-2.171321z m-219.495825-216.719833c0.16491 0.439761 0.219881 1.126888 0.577186 1.401739 4.837374 3.847911 9.702232 7.695822 14.649547 11.433792 1.346769 1.016948 3.325694 1.78653 4.260187-0.192396 0.412276-0.852037-0.604672-2.748508-1.45671-3.710485-1.539164-1.73156-3.46312-3.188269-5.249649-4.699948-0.549702-0.467246-1.236828-1.044433-1.868986-1.071918-2.995873-0.137425-5.167194-1.181858-6.843784-3.930366-1.071918-1.759045-2.858448-1.181858-4.067791 0.769582z m191.461047 173.623232c2.088866 2.858448 4.480068-0.274851 6.513963 0.357306l4.864859 4.947314c1.181858-3.765456-0.852037-5.936777-2.281262-8.163068-1.044433-1.594134-2.748508-1.759045-4.370127-0.549702-1.566649 1.126888-3.105814 2.253776-4.699948 3.435635z m3.435634 20.283987c0.604672-5.606956-3.46312-8.025643-5.35959-11.461277-0.907008 0.632157-2.308746 1.099403-2.556112 1.923955-0.247366 0.824552 0.357306 2.253776 1.044433 2.995873 1.95144 2.088866 4.150247 3.985336 6.871269 6.541449z m0.797068-43.893668c0.604672-2.666052 0.439761-4.342642-1.951441-4.782404-0.467246-0.082455-1.511679 0.632157-1.621619 1.126888-0.604672 2.528627 1.209343 2.995873 3.57306 3.655516zM857.328594 205.054644c0.329821-0.329821 0.659642-0.632157 0.989463-0.961978-0.989463-2.198806-2.583597-3.710485-4.919829-4.315157-0.274851 0.329821-0.577187 0.659642-0.852037 0.961978l4.782403 4.287672z m-122.308593-86.495538c-0.632157-0.192396-1.209343-0.604672-1.566649-0.439761-0.302336 0.137425-0.384791 0.852037-0.549702 1.319284l1.73156 0.659642c0.137425-0.467246 0.247366-0.934493 0.412276-1.539165z m-2.885933-8.190553c0.05497-0.824552 0.274851-1.456709 0.05497-1.78653s-0.907008-0.302336-1.374254-0.467246c-0.082455 0.494731-0.329821 1.071918-0.16491 1.456709 0.16491 0.329821 0.797067 0.439761 1.456709 0.769582zM647.012784 912.108251c0.714612-0.769582 1.346769-1.649105 2.198807-2.253776 0.989463-0.714612 2.775993-0.989463 3.105813-1.8415 1.429224-4.012821 2.611082-8.108098 3.51809-12.28583 0.16491-0.742097-1.264314-2.198806-2.253776-2.666052-0.659642-0.302336-2.253776 0.274851-2.775993 0.934492-2.775993 3.62803-4.425097 7.640851-3.050844 11.901039-1.95144 1.264314-3.985336 1.923955-4.947313 3.325694-0.852037 1.236828-0.549702 3.270724-0.742098 5.002284-2.116351-1.566649-4.590008-3.380664-7.860732-0.852037-0.879522 0.687127-2.748508 0.137425-4.315157 0.16491-0.604672 1.814015-1.209343 3.545575-1.978925 5.881807-1.95144-0.852037-3.655515-1.62162-5.716896-2.556112 1.071918-1.62162 1.95144-2.611082 2.418687-3.765456 0.714612-1.73156 0.302336-3.160784-1.56665-4.177732a115.987025 115.987025 0 0 1-9.234986-5.57947c-0.879522-0.604672-1.89647-2.198806-1.676589-3.023359 0.384791-1.429224 1.649105-3.62803 2.666052-3.683 4.507553-0.247366 6.156657-3.655515 8.300493-6.568934 0.549702-0.742097 0.934493-2.088866 1.56665-2.198806 8.382949-1.511679 12.972956-9.372411 20.833688-12.065949 1.291799 1.154373 2.721023 2.446172 4.150247 3.737971 0.357306-0.137425 0.714612-0.302336 1.071918-0.439761-0.219881-2.061381-0.439761-4.150247-0.659642-6.129172 1.73156-2.143836 3.40815-4.260187 5.30462-6.623904 1.594134 1.511679 3.40815 3.243239 5.277135 5.002284 3.133299-0.934493 5.771866-1.868985 6.788814-5.30462 0.659642-2.226291 2.363717-2.528627 4.480067-1.401739 1.649105 0.879522 3.51809 1.374254 5.936777 2.253776l-3.683001 3.600546q1.923955 2.995873 7.805762-0.054971c0.961978 2.446172 1.868985 4.864859 3.050844 7.915703 1.868985-1.89647 3.078329-3.160784 4.507553-4.644978-1.429224-1.923955-3.243239-3.51809-1.951441-6.376538 1.126888-2.528627 2.198806-4.040306 5.277135-3.792941 1.95144 0.16491 3.957851-0.549702 5.936777-0.852037 4.342642 5.497015 5.606956 8.273008 6.019231 13.550143-1.89647 0.439761-3.875396 0.769582-5.771866 1.346768-5.002284 1.539164-5.002284 1.566649-5.139709 6.92624-2.666052 3.188269-5.661926 2.638567-9.097561 0.137425-0.742097 1.67659-1.319284 2.940903-1.89647 4.232702-1.511679 3.435635-2.226291 3.73797-6.019232 2.775993-1.374254-0.357306-2.830963-0.467246-5.029769-0.824552-0.027485-0.10994-0.137425-1.099403-0.687127-1.67659-4.644978-4.699948-4.177732-9.674747-1.181858-14.951882 0.329821-0.577187 0-1.759045-0.439761-2.418687-0.192396-0.329821-1.868985-0.247366-1.923956-0.05497-1.374254 4.260187-5.634441 3.792941-8.602829 5.41456-0.632157 0.357306-1.236828 0.714612-2.171321 1.264314 1.89647 4.260187 1.89647 8.465404 1.374254 13.027926-0.329821 2.748508-0.852037 7.448456 4.095276 8.602829 1.401739-1.154373 2.638567-2.693538 4.205217-3.243239 1.044433-0.384791 2.583597 0.632157 4.397612 1.181859-0.907008 1.154373-1.236828 2.088866-1.759045 2.171321-2.940903 0.549702-5.936777 0.879522-7.613366 3.847911-5.689411-0.797067-7.283545 3.710485-9.702232 7.31103-0.687127 1.044433-2.446172 1.346769-3.710485 2.006411-0.384791-0.412276-0.769582-0.824552-1.154374-1.264314z m30.810772-33.971555c-1.236828 2.363717-2.088866 3.957851-2.885933 5.579471-1.511679 3.023358-0.714612 4.699948 2.721022 5.606955 0.852037 0.219881 1.759045 0.247366 3.29821 0.439762-0.302336-4.177732 1.181858-8.218038-3.105814-11.653673z m-45.405348 29.106697c-1.62162-0.467246-3.270724-1.044433-3.325694-0.934493-0.604672 1.346769-1.071918 2.775993-1.236828 4.205217-0.027485 0.329821 1.89647 1.209343 1.95144 1.126888 0.852037-1.236828 1.566649-2.583597 2.611082-4.425097zM949.376117 557.633212c4.754918-2.473657 4.067791 3.902881 7.008695 4.315157 0.632157-5.661926-0.604672-8.163068-5.387075-10.77415-1.978926-1.099403-3.380664-2.473657-2.473657-4.919829 2.253776-6.239112 0.934493-12.478225 0.16491-18.717337-0.10994-0.934493-0.522216-1.814015-0.522216-2.748508 0-1.78653 0.549702-3.51809 2.583597-3.73797 2.088866-0.219881 2.666052 1.346769 3.050844 3.215754 0.494731 2.446172 1.374254 4.837374 2.226291 7.668336 2.995873-1.511679 4.452582-3.105814 2.583597-5.46953-3.325694-4.150247-2.556112-8.575344-1.511679-13.495173l3.930366 0.742097c0.852037-1.044433 1.8415-2.281261 3.270724-4.040306 1.73156 1.401739 3.325694 2.721023 5.387075 4.370127-4.095276 3.188269-5.057254 6.788814-3.188269 11.021516 0.137425 0.329821 0.274851 0.797067 0.164911 1.099403-2.171321 5.936777 0 11.763613 0.357306 17.64542 0.137425 2.226291-1.016948 4.535038-1.704075 7.366 0.247366 0.412276 0.714612 1.456709 1.401739 2.281262 2.308746 2.666052 2.885933 4.837374 0.659642 8.382948-1.95144 3.133299-2.033896 7.448456-2.666053 11.296367-0.137425 0.852037 0.797067 1.923955 1.374254 2.803478 2.253776 3.57306 2.116351 4.452582-1.016948 6.953724-4.535038 3.600545-5.442045 6.953724-3.435634 12.093434 0.467246 1.181858 1.044433 2.473657 0.989462 3.710485-0.192396 5.826836-0.577187 11.653673-1.649104 17.64542-0.577187-1.484194-1.154373-2.940903-1.8415-4.754918-1.566649 0.797067-2.995873 1.511679-4.727434 2.363716-1.649105-3.270724-2.198806-7.173605-6.349053-9.262471-0.274851 1.401739-0.797067 2.446172-0.577186 3.29821 1.401739 5.551986 1.456709 5.551986-3.050844 7.283545-0.494731 2.803478-0.934493 5.442045-1.429224 8.300493-4.754918-2.418687-5.19468-3.435635-4.370127-7.420971 0.439761-2.116351 0.907008-4.370127 0.632157-6.486478-0.824552-6.513963 3.545575-10.71918 10.087023-9.344926 0.549702 0.10994 1.071918 0.192396 1.923955 0.357306 2.143836-3.875396 4.425097-7.558396 0.879523-12.010979-1.67659-2.088866-1.67659-4.397612 0.604672-6.458993 2.363717-2.143836 2.226291-5.24965 1.594134-7.888217-1.319284-5.46953-3.188269-10.801635-4.947314-16.655957z m9.372411-15.034337c0.10994-3.105814-0.797067-4.040306-3.160783-3.023358-0.247366 0.10994-0.302336 0.577187-0.687127 1.291798 1.154373 0.522216 2.281261 1.044433 3.84791 1.73156zM768.606765 77.523886c0.247366 3.490605 1.78653 5.5245 4.974799 6.156657 0.879522 0.16491 1.67659 0.797067 2.473657 1.291799 3.875396 2.446172 3.930366 2.638567 2.308747 7.14612-0.302336 0.852037-0.577187 1.73156-1.016948 2.968388-3.298209-1.566649-6.349053-2.995873-9.399897-4.425097 1.594134 4.177732 4.397612 6.568933 8.850195 7.118635 0.192396 2.583597 0.384791 4.892344 0.604672 7.915702-1.759045-0.549702-2.995873-0.549702-3.57306-1.154373-3.105814-3.353179-5.881806-7.14612-11.158941-7.14612-0.16491 0-0.357306-0.10994-0.494732-0.247366-5.057254-4.590008-12.010979-5.579471-17.562964-9.289956-4.562523-3.023358-9.289956-5.826836-14.044874-8.520374-0.989463-0.549702-2.446172-0.412276-3.683001-0.412276-3.023358-0.027485-6.074202 0.027485-9.09756 0.05497-0.082455-0.357306-0.16491-0.742097-0.219881-1.099403 1.566649-0.604672 3.105814-1.209343 4.397613-1.704075 2.885933-5.30462 1.456709-10.416844 0.549701-16.13374-1.67659 1.044433-3.133299 1.923955-4.452582 2.748508q1.704075 5.936777-3.902881 9.427381c-5.716896-2.775993-5.909292-3.050844-5.08474-8.740254 0.274851-1.89647 0.604672-3.545575-1.181858-5.057254-1.566649-1.319284-2.253776-3.600545-0.439761-4.837374 1.181858-0.797067 4.287672-0.824552 5.002284 0.05497 2.363717 2.913418 5.139709 3.298209 8.465404 3.023359 0.989463-0.082455 2.061381 0.714612 3.078328 1.126888 1.374254 0.549702 2.830963 1.759045 4.122762 1.621619 7.008695-0.769582 9.537322 4.864859 13.000441 8.960135 1.704075 2.033896 3.73797 3.160784 5.771866 2.171322 3.957851-1.95144 6.541448 0.219881 8.987621 2.391201 3.46312 3.050844 7.20109 5.112224 12.753075 4.590008z m-7.475941 8.76774c-1.071918-1.401739-2.143836-2.638567-4.040306-1.56665-0.329821 0.192396-0.439761 1.539164-0.137425 1.896471 1.319284 1.594134 2.748508 1.594134 4.177731-0.329821zM858.757818 790.926546c1.236828 2.501142 1.704075 3.957851 2.583597 5.02977 0.714612 0.907008 2.281261 2.143836 2.885933 1.89647 1.181858-0.494731 2.501142-1.8415 2.721023-3.050844 0.302336-1.539164-0.10994-3.380664-0.769582-4.864858-1.78653-4.177732-1.099403-7.970672 1.429224-12.203375 3.957851 2.885933 5.442045 7.338516 7.915702 10.994031 0.879522-0.247366 1.704075-0.494731 2.583597-0.687127 0.10994 0 0.302336 0.192396 0.797068 0.577187-2.281261 3.600545-0.577187 6.239112 2.253776 8.960135 2.940903 2.830963 3.435635 7.03618 5.689411 10.77415-3.133299 0.632157-3.875396-0.439761-4.260187-2.363716-1.319284-6.568933-3.57306-7.778277-8.740255-4.205217-3.847911 2.666052-5.057254 7.366001-9.289956 11.268882 7.063665 0.989463 9.564807 4.535038 10.389359 9.977082-3.545575 3.105814-5.002284 8.87768-11.103971 9.427382-1.484194 3.600545-7.118635 4.782403-5.497015 10.444329-4.012821-0.10994-4.919829 2.638567-5.524501 5.661926-1.319284 0-2.391202-0.027485-3.490604-0.05497-0.961978 2.336232-1.923955 4.644978-2.803478 6.761329-2.501142-0.384791-4.397612-0.714612-5.881807-0.934493 0.329821-3.353179 0.687127-6.706359 1.071918-10.526784 1.291799 0.329821 2.556112 0.687127 4.535038 1.209343l3.73797-12.038464c-3.875396-3.655515-5.964262-7.805762-4.892343-12.67062 0.329821-1.511679 2.556112-2.638567 4.535037-4.535038 1.73156 6.404023 3.188269 11.736128 4.727434 17.398054 2.611082-3.078329 4.150247-9.207501 3.62803-12.010979-0.824552-4.562523-2.858448-9.592292-1.67659-13.632598 1.319284-4.590008 1.181858-8.850195 1.181859-13.302777 0-0.659642 0.467246-1.319284 1.264313-3.325695z" p-id="7041"></path><path d="M835.697838 140.959444c-3.380664 0.577187-4.425097 2.913418-5.222164 5.771866-0.384791 1.346769-1.868985 2.913418-3.188269 3.35318-2.116351 0.714612-3.105814-1.236828-4.177732-2.858448-0.961978-1.456709-2.226291-2.940903-3.73797-3.737971-1.95144-1.044433-3.57306-1.95144-3.545575-4.452582 0-0.329821-0.219881-0.879522-0.467247-0.989463-3.902881-1.594134-4.562523-5.5245-6.211627-9.125046-8.547859 2.061381-9.592292-4.370127-11.158941-10.059538-3.215754-0.577187-6.129172-1.291799-9.070076-1.566649-3.353179-0.302336-5.5245-1.78653-6.761329-4.919829-0.659642-1.704075-1.67659-3.270724-2.418686-4.672463 1.594134-3.353179 3.050844-6.431508 5.057254-10.691695 3.078329-1.89647 7.585881 1.126888 11.873553 0.21988 0.412276-0.082455 1.126888 0.357306 1.429224 0.742097 4.672463 5.854321 9.289956 11.763613 13.577628 17.975241 1.539164 1.044433 4.507553-0.467246 5.167195 2.803478 0.082455 0.439761 0.742097 1.099403 1.126888 1.099403 4.067791-0.05497 5.332105 2.583597 6.129172 5.936776 0.247366 0.989463 1.099403 2.226291 1.978925 2.611083 4.837374 2.088866 5.881806 7.448456 9.399897 10.60924 0.192396 0.192396 0.10994 0.714612 0.21988 1.868985z m-15.529068-9.372411c-0.961978-2.913418-2.693538-3.957851-5.524501-4.892344 0.989463 3.050844 2.198806 4.672463 5.524501 4.892344z m-20.668778-17.260629c-0.357306 0.329821-0.687127 0.659642-1.044433 0.989463 0.687127 0.577187 1.401739 1.154373 2.116351 1.67659 0.05497 0.027485 0.687127-0.632157 0.659642-0.659642-0.549702-0.687127-1.154373-1.346769-1.73156-2.006411z m7.943187 3.902881c-0.879522-0.247366-1.484194-0.549702-2.033896-0.494731-0.274851 0.027485-0.439761 0.769582-0.659641 1.209343 0.549702 0.274851 1.099403 0.687127 1.676589 0.769582 0.192396 0.027485 0.522216-0.714612 1.016948-1.484194zM818.849486 763.71632c-2.391202 4.315157 2.803478 8.82271-1.484194 12.808046-2.913418-0.522216-3.792941-2.473657-2.830963-5.167194 1.044433-2.885933 0.961978-5.30462-0.907007-7.888218-0.742097-1.016948-0.687127-2.775993-0.577187-4.177731 0.137425-2.006411 0.604672-3.957851 1.016948-5.936777 0.219881-1.044433 0.247366-2.583597 0.934492-2.995873 3.600545-2.171321 3.380664-4.919829 1.73156-8.135583-0.302336-0.577187-0.137425-1.401739-0.329821-3.683 3.298209 4.974799 7.20109 6.678874 11.488763 7.283545 0.989463 0.137425 2.226291-1.594134 3.380664-2.501142-2.198806-4.342642-4.177732-8.300493-6.404023-12.698106 1.539164-0.439761 2.803478-0.824552 4.260187-1.264313l0.082455-4.425098c0.852037 0.05497 1.401739 0.027485 1.896471 0.164911 3.243239 0.852037 5.799351 2.775993 7.14612 5.771866 1.291799 2.858448 2.061381 5.936777 0 9.070076-0.439761 0.687127 0.329821 2.171321 0.742097 4.260186 1.236828-2.391202 1.89647-3.710485 2.583597-5.029769 2.363717 1.044433 1.95144 2.308746 1.264313 3.847911-0.577187 1.291799-1.566649 3.050844-1.126888 4.067792 1.539164 3.46312-0.219881 5.991747-2.088866 8.190553-2.116351 2.446172-3.298209 4.864859-2.693537 7.393485-2.418687 2.940903-4.480068 5.442045-7.20109 8.76774-1.126888-0.082455-3.243239-0.219881-5.19468-0.384791q-2.061381-5.084739-5.661926-7.256061zM851.831579 715.287614c-0.137425 3.957851 1.099403 7.805762 0.302335 11.901039-0.412276 2.143836 0.714612 4.699948 1.539165 6.926239 1.291799 3.435635-0.137425 6.266598-1.759045 8.960135-1.291799 2.143836-3.655515 1.78653-4.727433-0.604671-0.522216-1.154373-0.522216-2.528627-0.879523-3.792941-0.384791-1.401739-0.522216-3.023358-1.374254-4.067791-0.989463-1.209343-0.989463-1.89647-0.412276-3.35318 1.181858-3.023358 0.384791-4.260187-2.226291-5.002284-1.319284-0.357306-3.188269-0.549702-3.737971-1.484194-1.016948-1.67659-2.308746-4.370127-1.649104-5.689411 2.198806-4.315157-0.494731-7.063665-2.171321-10.279419-0.247366-0.467246-0.247366-1.044433-0.439762-1.8415 1.319284-0.219881 2.528627-0.412276 3.710486-0.604672 0.907008-11.406307 5.084739-14.429665 13.082897-9.234986 3.902881-4.287672 7.998157-3.133299 12.203374 0.164911 0.219881 3.078329-1.456709 5.084739-4.012821 6.568933-4.562523 2.666052-4.342642 2.528627-1.539165 6.733844 1.8415 2.748508 3.215754 5.744381 6.046717 7.750792 1.181858 0.852037 0.989463 1.126888 0.302336 4.205217-2.9683" p-id="7042"></path></svg>