<?xml version="1.0" standalone="no"?><!DOCTYPE svg PUBLIC "-//W3C//DTD SVG 1.1//EN" "http://www.w3.org/Graphics/SVG/1.1/DTD/svg11.dtd"><svg t="1769755503421" class="icon" viewBox="0 0 1024 1024" version="1.1" xmlns="http://www.w3.org/2000/svg" p-id="9048" width="16" height="16" xmlns:xlink="http://www.w3.org/1999/xlink"><path d="M755.234948 29.780409c1.868985-0.604672 3.90288101-2.033896 5.606955-1.704075 7.723307 1.511679 7.668337 1.67659 9.949598 4.83737301-1.429224 0.769582-3.270724 1.18185801-4.122761 2.336232-0.907008 1.209343-0.907008 3.105814-1.209344 4.42509699 2.803478 4.122762 5.24965 1.594134 7.998158-0.32982 1.126888 3.847911 3.490605 5.41456 7.173605 5.332104 0.961978 0 1.978926 1.264314 2.940903 2.00641099 2.143836 1.649105 4.150247 4.480068 6.45899301 4.78240301 4.919829 0.632157 7.283545 3.875396 9.97708299 7.146121 0.769582 0.934493 1.759045 1.73156 2.83096301 2.336231 2.583597 1.484194 4.672463 3.215754 5.55198599 6.321568 0.302336 1.044433 2.033896 1.704075 3.380664 2.748508-0.357306 1.456709-0.797067 3.133299-1.264313 5.08473899 2.995873 0.549702 5.771866-2.528627 8.437918 0.68712701-0.74209701 1.236828-1.594134 2.583597-2.391201 3.902881 0.824552 2.116351 1.649105 4.260187 2.830962 7.31103 6.404023 1.97892599 13.770024 4.232702 21.38339 6.568934-2.061381 1.978926-3.765456 3.600545-5.442045 5.194679 2.47365699 2.885933 4.315157 5.222165 6.376538 7.338516 1.126888 1.154373 2.556112 2.556112 4.012821 2.748507 3.600545 0.494731 5.029769 2.611082 5.24965 6.129173 1.78653-0.247366 3.215754-0.43976101 3.957851-0.549702 1.429224 2.061381 2.446172 3.985336 3.902881 5.497015 1.978926 2.033896 3.43563501 3.957851 0.742097 6.78881399 1.814015 1.099403 3.023358 1.89647 4.260187 2.61108301 5.771866 3.353179 10.141993 8.327978 14.841942 12.917986 1.209343 1.154373 1.401739 3.353179 2.088866 5.112224 1.8415-0.247366 3.87539601-0.522216 6.404023-0.879522-0.027485 1.8415-0.05497 3.02335799-0.082456 4.892344 3.353179 1.15437301 6.898754 2.39120199 10.746665 3.73796999-0.659642 0.604672-1.594134 1.484194-3.40814899 3.13329901 3.930366-0.027485 7.03618-0.05497 10.14199299-0.082455 1.704075 2.803478-1.814015 2.940903-2.721022 4.809888 1.18185801 0.824552 2.308746 1.62162 3.765455 2.638568-1.429224 0.549702-2.501142 0.961978-4.535037 1.759044 2.748508 0.65964201 4.507553 1.071918 6.623903 1.56665-0.192396 2.830963 1.401739 4.067791 3.930366 5.084739 3.050844 1.23682801 5.744381 3.325694 8.98762 5.277135-1.401739 1.814015-2.473657 3.243239-3.54557499 4.644978 0.274851 3.545575 5.387075 2.088866 5.826837 5.964262 0.302336 2.775993 1.95144 5.41456 3.16078399 8.547859 3.54557501-0.05497 6.376538 2.281261 8.850194 4.974799 2.171321 2.363717 4.39761201 0.714612 7.888218 0.10994l-3.105814 6.019232c0.21988101 3.188269 5.826836 5.112224 1.016948 10.03205301 2.198806-0.742097 2.858448-0.934493 3.84791-1.26431401-0.412276 3.655515 2.281261 5.442045 4.699949 7.750792-0.632157 1.209343-1.291799 2.446172-1.896471 3.600545 0.274851 0.467246 0.384791 0.989463 0.632157 1.071918 4.644978 1.456709 5.964262 6.074202 8.82271 9.207501 0.10994 0.137425 0.302336 0.384791 0.247366 0.494731-2.281261 5.689411 3.820426 9.922113 2.253776 15.666494 1.73156 0.302336 3.10581401 0.522216 4.892344 0.824553-1.78653 6.871269 2.885933 10.60924 6.898754 14.594576 2.556112 2.556112 4.727433 5.084739 4.315157 9.15253-0.16491 1.539164 0.577187 3.298209 1.29179901 4.782404 1.291799 2.693538 2.556112 5.167194 2.25377599 8.437918-0.16491 1.95144 0.989463 4.644978 2.473657 5.991747 2.611082 2.336232 3.078329 5.46953 4.28767199 8.327978 0.934493 2.198806 1.044433 4.782403 3.65551501 5.99174699 0.467246 0.219881 1.016948 1.401739 0.824552 1.81401501-1.401739 2.940903 1.291799 3.73797 3.02335901 5.19468-1.181858 0.522216-1.97892599 0.879522-3.29820901 1.456709 2.033896 2.088866 3.902881 4.040306 6.07420201 6.294083-0.30233601 0.797067-0.71461201 1.978926-1.29179901 3.518089 1.346769 1.456709 3.35317899 2.775993 3.023359 5.716897-0.192396 1.89647 0.879522 3.957851 1.539164 5.881806 0.742097 2.116351 2.033896 4.122762 2.363717 6.294083 0.35730601 2.336232-1.181858 5.442045-0.109941 7.063664 2.858448 4.342642 1.236828 9.839658 4.370127 13.93493501a2.473657 2.473657 0 0 1 0.439762 1.53916399c-0.137425 5.551986 0.934493 9.509837 3.325694 13.330262 0.632157 1.016948 0.549702 2.473657 1.016948 3.655515 1.016948 2.693538 1.429224 5.771866 5.551985 5.854322 0.961978 0 2.721023 2.33623199 2.638568 3.51809-0.21988101 3.188269-1.23682801 6.321568-2.116351 10.251934 0.549702 0.467246 1.73156 1.539164 2.583597 2.253776 0.274851 2.58359699-0.16491 5.24964999 0.879523 7.09115001 1.78653 3.133299 0.989463 5.689411-0.219881 8.49288899-1.016948 2.363717-2.061381 4.727433-3.188269 7.25606 1.319284 1.099403 2.363717 1.814015 3.270724 2.693537 3.353179 3.160784 4.425097 9.317441 2.666053 13.879964-0.412276 1.099403-0.797067 2.96838799-0.247366 3.545575 2.583597 2.666052 1.236828 5.442045 0.329821 7.888217-2.116351 5.689411-2.721023 11.351337-1.67659 17.37056901 0.659642 3.792941 0.797067 7.695822 0.852038 11.54373199 0 1.346769-0.604672 2.995873-1.484195 3.985337-1.759045 1.923955-2.088866 3.847911-1.209343 6.156657 1.704075 4.535038 1.044433 9.015105 0.494731 13.742538-0.76958201 6.898754-0.274851 13.934934-0.302335 21.713211-1.62162 2.143836-4.452582 4.974799-0.961978 9.070076-0.577187 2.858448-4.480068 5.799351 0.412276 8.822709-3.847911 2.913418-5.387075 6.101687-4.947314 10.719181 0.357306 3.51809-0.769582 7.338516-1.8415 10.82912-2.308746 7.475941-0.522216 15.693979-4.20521701 22.895069-0.247366 0.494731-0.274851 1.154373-0.60467099 1.56665-4.727433 5.24965-2.940903 11.461277-2.473657 17.425538 0.16491 2.03389599 0.659642 4.012821 1.099403 6.431508-0.961978 0.549702-2.061381 1.209343-3.160784 1.78653-1.868985 0.961978-2.858448 2.116351-2.143836 4.480068 0.412276 1.319284 0.439761 3.13329901-0.192396 4.260187-1.759045 3.160784-2.253776 6.156657-0.79706699 9.619777 0.302336 0.74209701-0.604672 2.830963-1.37425401 3.105814-3.243239 1.099403-2.94090299 3.188269-2.44617201 5.826836 0.467246 2.52862699 0.384791 5.167194 0.57718701 7.998157-3.655515 1.374254-6.926239 3.023358-8.410434 6.843785-0.934493 2.391202-1.566649 4.342642 0.659642 6.623903 1.264314 1.264314 1.511679 3.545575 2.226291 5.387075-4.425097 1.291799-7.475941 3.325694-8.960135 7.14612-0.742097 1.89647-1.456709 3.820426-1.95144 5.79935199-1.73156 6.651389-1.704075 6.678874 3.847911 10.08702301-1.016948 2.775993-5.854321 1.291799-5.332105 6.211627-6.70635901-4.012821-12.038464-8.108098-17.37056899-11.901038 0.247366-2.803478 1.704075-2.940903 3.62803-2.721023 4.809888 0.522216 5.442045-0.274851 4.28767199-5.084739-0.357306-1.429224-0.79706701-2.803478-1.264313-4.480068 1.401739-0.797067 2.638567-1.484194 4.150246-2.336231-0.302336-1.209343-0.329821-2.58359699-0.961977-3.600545-2.611082-4.232702-1.429224-8.025643 0.604671-12.093434 4.590008-9.097561 8.41043399-18.524942 9.234986-28.859331 0.329821-3.98533601 1.594134-7.695822 2.885933-11.51624701 1.401739-4.150247 3.46312-7.613366 5.44204601-11.35133699 1.346769-2.528627 0.412276-6.29408301 0.49473099-9.75720301-4.617493 0-5.79935099 2.748508-6.513963 5.60695601-0.879522 3.60054501-1.511679 7.283545-2.006411 10.966546-0.742097 5.46953-2.363717 7.118635-8.382948 7.778277-0.577187-0.742097-1.181858-1.649105-1.89647099-2.446172-0.577187-0.632157-1.291799-1.154373-2.72102201-2.391202-1.20934301 3.957851-2.473657 7.14612-3.105814 10.471815-0.879522 4.672463-1.236828 9.427381-1.814015 14.09984399 1.456709 1.126888 3.87539601 2.061381 4.590008 3.73797101 0.769582 1.78653 0 4.287672-0.219881 6.458993-0.549702 5.964262-5.30462 9.867143-7.503426 15.034337-0.329821 0.79706701-2.253776 1.594134-3.105814 1.319284-1.67659-0.522216-1.78653-2.088866-1.071918-3.710486 1.594134-3.62803 3.215754-7.283545 0.824553-11.186426 3.57306 0.302336 2.940903-3.023358 3.62803-5.112225-1.154373 1.73156-2.336232 3.43563501-3.490605 5.167195-2.913418 5.387075-5.854321 10.746665-8.740255 16.13374-0.329821 0.604672-0.769582 1.456709-0.577186 2.006411 1.236828 3.90288101-1.264314 5.442045-4.122762 6.761329-2.363717 1.099403-2.968388 2.611082-2.611082 5.35959 0.384791 2.830963 0.247366 6.211627-1.071918 8.602829-1.016948 1.8415-4.260187 3.57306-6.404023 3.435635-3.050844-0.16491-4.919829 0.934493-6.761329 3.105813-1.154373-0.577187-2.611082-0.852037-2.940903-1.621619-1.209343-2.748508-1.814015-5.744381-5.002284-7.256061-0.467246-0.219881-0.522216-2.693538 0.082455-3.463119 0.494731-0.632157 2.91341799-0.824552 3.29820899-0.329821 1.291799 1.73156 2.198806 1.95144 4.09527701 0.769582 0.907008-0.549702 2.611082 0.219881 4.012821 0.384791 0.687127-1.539164 0.852037-3.40815001-1.236828-3.298209-3.87539601 0.219881-5.634441-2.363717-8.080613-5.08474 1.20934301-2.363717 2.473657-4.809888 3.710485-7.25606 0.604672-1.154373 1.594134-2.281261 1.704075-3.51808999 0.549702-5.551986 4.782403-9.097561 7.173605-13.63259801 1.099403-2.088866 2.885933-2.830963 6.239113-3.215754-1.484194 3.792941-4.370127 7.503426-0.797068 11.543732 2.748508-0.989463 2.556112-3.105814 2.501142-5.139709-0.08245499-2.693538 0.522216-4.947314 2.391202-7.173605 3.16078401-3.73797 2.41868699-6.074202-2.088866-8.74025501-0.632157-0.357306-1.099403-0.961978-1.73156-1.51167899 0.687127-4.260187 1.236828-8.492889 2.116351-12.67062 0.879522-4.150247 2.171321-4.947314 6.321568-4.09527699 1.8415 0.384791 4.040306 1.511679 4.947314-0.68712701 0.934493-2.253776 1.346769-4.727433-0.357306-7.283545-2.006411-3.023358-4.260187-6.321568-4.727433-9.757203-0.467246-3.29820899 0.687127-7.118635 2.088866-10.279418 1.374254-3.133299 3.957851-5.744381 6.156657-8.795225 1.923955 1.291799 3.40815 2.281261 4.864858 3.270724 2.198806-3.078329 2.501142-5.442045 0.577187-7.475941-1.89647-2.033896-4.122762-3.73797-6.404023-5.771866 0.879522-4.754918 1.566649-9.537322 2.803478-14.154815 0.329821-1.264314 2.226291-2.446172 3.683-3.023358 5.826836-2.308746 5.854321-2.226291 10.746665-6.953725-0.989463-2.940903-1.978926-5.854321-2.940903-8.767739-2.611082-0.989463-5.24965 2.968388-8.300493-0.714612 1.099403-1.016948 2.088866-2.253776 3.353179-3.050844 2.391202-1.539164 3.62803-3.765456 4.095277-6.431508 0.357306-1.89647 0.522216-3.90288101-2.638568-3.490605-0.632157 0.082455-1.594134-1.071918-2.143836-1.86898499-1.236828-1.759045-2.308746-3.62803-3.930366-6.23911201-0.769582 1.89647-1.649105 2.940903-1.484194 3.765455 1.044433 5.112224-1.099403 9.702232-2.171321 14.457151-0.274851 1.209343-0.302336 2.50114199-0.16491001 3.73797 0.659642 5.716896 0.742097 11.241397-2.28126199 16.546016-1.346769 2.363717-1.978926 5.24965-2.528627 7.970673-1.566649 7.640851-2.940903 15.36415799-4.370127 23.032494-0.05497 0.35730601 0.05497 0.797067-0.082455 1.099404-1.704075 3.270724-4.232702 6.349053-4.974799 9.812172-0.687127 3.325694-0.714612 6.62390401-2.528627 9.757202-1.456709 2.528627-2.446172 5.497015-2.913419 8.41043401-0.934493 5.826836-3.985336 10.691695-6.129172 15.99631499-2.143836 5.30462-5.084739 9.784687-8.300493 14.319725-0.549702 0.797067-0.659642 2.143836-0.494731 3.16078399 1.099403 6.568933-0.934493 11.791098-5.85432201 16.32613601-3.40815001 3.133299-5.991747 6.953724-7.50342599 11.626187-1.401739 4.370127-3.90288101 8.410434-5.909291 12.588165-0.247366 0.494731-0.852037 0.907008-0.879523 1.401739-0.549702 8.437919-6.953724 13.357747-11.543732 19.37698001-0.329821 0.439761-0.797067 0.934493-0.824553 1.42922399-0.247366 4.452582-3.710485 7.03618-5.881806 10.334389-4.095276 6.21162699-8.492889 12.20337399-12.203374 18.634882-1.814015 3.160784-2.88593299 6.376538-6.294083 8.602829-1.814015 1.181858-2.308746 4.535038-3.160784 6.98121-0.604672 1.704075-1.401739 2.666052-3.243239 3.353179-1.566649 0.577187-2.885933 2.198806-4.040306 3.57306-2.748508 3.27072399-5.35959 6.678874-7.998158 10.032053-0.687127 0.852037-1.594134 1.73156-1.814015 2.721023-0.74209701 3.655515-3.62803 5.497015-6.184142 7.613366-1.566649 1.291799-3.270724 2.473657-4.672463 3.902881-4.122762 4.232702-8.135583 8.602829-12.203374 12.890501-0.494731 0.522216-1.044433 1.154373-1.67659 1.401739-8.273008 3.298209-13.412718 10.251934-19.459435 16.216196-3.655515 3.600545-7.998157 6.788814-12.588165 9.04259-5.057254 2.501142-8.602829 5.799351-11.928523 10.41684401-3.133299 4.342642-7.833247 8.465404-12.753076 10.416844-8.740255 3.49060501-16.106255 9.15253101-24.351778 13.38523299-6.07420199 3.133299-12.065949 6.486478-17.53548 10.82912-3.078329 2.418687-7.25606001 3.57306-10.114508 6.623904-5.497015-0.10994-10.114508 1.759045-13.687568 6.019232-5.387075-0.714612-8.602829 3.73797-12.945472 5.497015-4.260187 1.759045-8.245523 4.205217-12.478225 6.101687-1.78653 0.797067-4.727433 1.978926-5.661925 1.209344-3.490605-2.885933-7.970672-1.374254-11.818584-3.600545-0.35730601 0.879522-0.714612 1.649105-0.989462 2.446171-1.264314 3.985336-1.78653 4.617493-5.799352 4.480068-2.281261-0.082455-3.930366 0.549702-5.52450001 2.061381-2.528627 2.391202-5.442045 3.847911-9.07007599 3.655515-1.071918-0.05497-2.198806 0.247366-3.24323901 0.577187-6.926239 2.143836-13.797509 4.452582-20.77871799 6.486478-2.088866 0.604672-4.370127 0.494731-6.568933 0.769582-2.033896 0.247366-4.122762 0.274851-6.074202 0.852037-4.644978 1.374254-9.097561 3.40815-13.797509 4.42509801-5.139709 1.126888-10.471814 1.566649-15.721464 2.03389598-4.837374 0.439761-9.674747 0.632157-14.539606 0.79706701-4.45258201 0.16491-8.96013499-4.425097-8.71276901-8.71277 0-0.19239601 0-0.41227601 0.10994001-0.549701 2.55611199-2.775993 4.644978-6.596418 7.805762-7.998158 2.391202-1.044433 6.349053-2.99587299 9.619777 0.412277-0.384791 1.209343-0.824552 2.556112-1.31928401 4.122761 0.824552 0.027485 1.484194 0.274851 1.78653001 0.05497 1.016948-0.769582 2.171321-1.539164 2.748508-2.583597 2.033896-3.765456 4.837374-5.771866 9.317441-5.222165 1.401739 0.16491 3.105814-0.24736601 4.287672-0.961977 3.57306-2.171321 6.788814-1.429224 9.867143 0.742097 2.006411 1.429224 3.57306 1.566649 5.30462-0.467247 0.742097-0.879522 2.198806-1.319284 3.408149-1.676589 5.661926-1.704075 11.296367-3.490605 17.013263-4.919829 4.177732-1.044433 8.520374-1.484194 12.780561-2.281261 2.006411-0.357306 3.985336-0.879522 6.431508-0.38479199 1.539164-1.8415 2.858448-3.90288101 4.644978-5.46953001 1.566649-1.401739 3.62803-2.226291 5.964261-3.600545-3.188269-1.73156-5.35959-1.264314-8.245523-0.302336-4.425097 1.511679-9.097561 3.73797-14.182299 1.071918-2.968388-1.566649-5.991747 0.10993999-8.300494 1.951441-5.139709 4.122762-10.939061 5.222165-17.260628 4.837373-1.044433-0.05497-2.143836 0.302336-3.160784 0.659642-0.68712701 0.247366-1.20934301 0.879522-1.868985 1.236829q-8.190553 4.122762-15.226733-1.429224c-0.714612 1.044433-1.429224 2.033896-2.116351 3.07832799-1.016948 1.566649-2.308746 2.336232-4.260187 1.70407501-2.693538-0.85203701-4.809888 0.329821-7.31103 1.401739-3.683 1.594134-7.888217 2.198806-11.928524 2.775993-2.693538 0.384791-3.765456-0.879522-3.600545-3.600545 0.137425-2.00641099 0.577187-4.012821 0.90700799-6.019232-5.002284-1.319284-7.283545-0.879522-9.48235199 3.875396-1.78653 3.902881-4.480068 5.084739-8.163068 5.606955-3.215754 0.43976101-6.156657 1.539164-9.619777-0.137425-1.78653-0.852037-4.919829-1.511679-7.118635 1.291799-1.594134 2.033896-4.095276 0.852037-6.211627 0.10994001-1.154373-0.384791-2.611082-0.961978-3.62803-0.60467201-5.744381 1.95144-11.351337 2.775993-17.150688 0.137426-1.566649-0.714612-3.62803-0.412276-5.469531-0.439762-3.54557501-0.05497-7.063665 0-10.609239 0l-8.135583 0c-0.522216-1.868985-2.308746-2.143836-4.809889-2.033895-3.710485 0.16490999-7.640851 1.126888-11.103971-1.59413501-0.687127-0.549702-2.171321 0-3.27072401-0.08245499-1.291799-0.10994-2.85844799 0.027485-3.79294099-0.632157-3.820426-2.775993-7.750792-3.957851-12.395769-2.446172-0.68712701 0.219881-1.73156-0.467246-2.528628-0.907007-1.594134-0.852037-3.215754-2.666052-4.64497799-2.501142-2.638567 0.274851-5.167194 1.67659-7.72330601 2.693537-0.65964201 0.274851-1.23682801 0.824552-1.78653 1.319284-2.171321 2.006411-1.978926 3.792941 0.687127 5.222165 1.126888 0.604672 2.473657 0.769582 3.683 1.236828 2.171321 0.852037 2.77599299 3.188269 0.934493 4.205217-3.380664 1.89647-6.733844 4.122762-10.994031 3.435634-4.012821-0.659642-8.025643-1.264314-12.065949-1.731559-1.649105-0.192396-3.353179 0.30233601-5.002284 0.16491-1.15437301-0.10994-2.253776-0.742097-3.655515-1.264313 0.604672-0.852037 0.852037-1.566649 1.236828-1.649105 3.73797-0.76958201 6.349053-3.160784 9.180016-5.551986 2.803478-2.33623199 6.321568-3.902881 9.647262-5.551985 2.418687-1.18185801 3.32569399-2.721023 2.61108201-5.35959-0.604672-2.198806-0.934493-4.480068-1.37425401-6.678874 1.868985-1.89647 3.655515-3.683 5.414561-5.46953-4.919829 0.137425-9.592292 0-13.687569 2.940903-1.099403 0.769582-3.545575 0.934493-4.507552 0.219881-0.907008-0.659642-1.099403-2.968388-0.852038-4.397613 0.852037-4.837374 5.854321-9.152531 10.856606-9.729717 1.291799-0.137425 2.58359699-0.247366 4.287672-0.412276 0.522216-1.704075 1.044433-3.40815 1.511679-4.864859 3.160784 0 6.266598-0.30233601 9.289956 0 6.843784 0.71461201 13.660083 1.649105 20.476382 2.63856799 0.769582 0.10994 1.401739 1.044433 2.143836 1.53916401 0.71461201 0.467246 1.429224 1.126888 2.198807 1.264313 4.177732 0.604672 8.410434 1.016948 12.588165 1.649105 0.961978 0.137425 1.814015 1.016948 3.765455 2.171321-3.655515 1.868985-6.486478 3.325694-9.894627 5.057254 1.923955 4.397612 3.160784 8.905165 2.25377601 13.715054 6.733844-0.522216 7.778277-1.89647 5.33210499-6.788814 2.116351-2.803478 3.490605-6.871269 8.300493-4.562523 0.439761-0.577187 0.852037-0.879522 0.852038-1.154373-0.274851-5.77186599 3.023358-8.520374 8.13558201-6.019232 5.79935099 2.830963 11.461277 2.033896 17.28811399 0.961978 2.171321-0.412276 4.315157-0.824552 6.294083-1.20934401 1.814015-3.40815-4.782403-5.222165-0.934493-8.85019499 1.649105-0.577187 4.095276 1.814015 5.85432101-0.989462 0.302336-0.467246 3.46312001 0 4.39761299 0.934492 1.649105 1.649105 3.985336 2.96838799 3.298209 6.376538-0.467246 2.253776 2.08886599 3.902881 4.370127 4.04030601 2.556112 0.16491 5.19467999-0.137425 7.723307-0.63215601 2.693538-0.549702 5.277135-1.566649 8.30049301-2.528628-0.247366-1.594134-0.522216-3.32569399-0.85203701-5.41456 1.016948-0.384791 1.978926-0.907008 2.995873-1.126888 2.061381-0.439761 4.39761201-0.824552 5.41456 1.511679 1.154373 2.638567-1.346769 3.380664-3.243239 4.205217 3.545575 3.820426 3.490605 3.683 7.530911 2.308747 2.08886599-0.714612 4.315157-1.016948 6.513964-1.401739 2.171321-0.357306 4.370127-0.577187 6.541448-0.85203801 0.549702-0.082455 1.346769-0.439761 1.621619-0.21987999 3.51809 2.913418 6.67887401 0.16491 9.757203-0.824553 3.985336-1.291799 7.805762-1.649105 11.983493-1.346768 2.995873 0.192396 6.129172-1.016948 9.125046-1.896471 3.46312-1.044433 6.239112-3.62803 10.55427-2.913418 2.830963 0.467246 6.129172-1.209343 9.070075-2.281261 4.095276-1.484194 4.452582-1.484194 7.00869499 3.380664-1.319284 1.016948-2.995873 1.89647-4.06779198 3.243239-0.577187 0.742097-0.219881 2.253776-0.27485101 3.40815001 1.20934301 0 2.721023 0.494731 3.51809-0.05497001 1.15437301-0.797067 1.759045-2.336232 2.611083-3.57306 2.611082-3.820426 3.050844-3.820426 6.48647801-0.219881 0.357306 0.384791 0.879522 0.604672 1.75904499 1.181858 1.539164-2.006411 3.050844-3.930366 4.562523-5.854321-3.765456 1.126888-6.101687-1.978926-9.509837-2.47365701 1.456709-1.429224 2.885933-2.58359699 4.012821-3.98533599 0.934493-1.154373 1.539164-2.583597 1.89647-4.480068-3.078329 2.363717-6.074202 0.71461201-8.905164 0.549702-2.94090299-0.16491-5.854321-0.852037-9.42738199-1.429224l4.23270199-6.596419c0.549702 0.494731 1.099403 0.769582 1.264313 1.18185901 2.061381 5.139709 1.978926 4.947314 7.503427 3.24323899 5.387075-1.649105 10.71918-3.050844 14.677031-7.530911 1.89647-2.116351 5.332105-2.088866 7.613366-2.446172 2.39120199-0.384791 4.177732-0.549702 6.266598-2.061381 4.177732-3.050844 8.630314-5.771866 13.220322-8.163068 2.006411-1.044433 4.617493-0.934493 7.42097-1.429224-1.8415-5.46953 4.012821-6.321568 6.26659799-9.949598-0.494731-0.82455201-1.181858-1.67659-1.48419399-2.638567-0.24736601-0.742097 0-1.649105 0-2.473657 0.824552 0.082455 1.814015-0.082455 2.446172 0.302336 1.044433 0.632157 1.89647 1.594134 3.73797 2.00641-0.412276-1.539164-0.852037-3.105814-1.401739-5.16719401 1.401739-0.16491 2.693538-0.302336 4.699948-0.52221699-0.439761 3.490605-0.797067 6.376538-1.154373 9.372412 2.995873 2.226291 5.139709 2.446172 6.706359-0.13742599 2.830963-4.699948 6.706359-9.01510499 6.074202-15.22673201-0.274851-2.775993 0.302336-2.940903 5.442045-3.435635-0.659642-0.852037-1.154373-1.511679-1.676589-2.171321q3.40815001-0.824552 5.112224 7.063665c-0.879522 0.797067-1.759045 1.594134-2.72102301 2.446172 3.51809 2.281261 4.260187 2.198806 5.02976901-0.549702 0.329821-1.209343 0.247366-2.55611199 0.329821-3.847911 0.219881-3.90288101 0.467246-4.122762 5.30462-4.370127 0.21988101 2.391202-5.387075 2.501142-2.253776 6.349053 2.088866-2.253776 4.562523-3.325694 7.366001-4.260187 2.198806-0.742097 3.710485-3.847911 5.304619-6.046717 0.824552-1.15437301 0.907008-3.023358 1.923956-3.820426 1.649105-1.264314 1.73156-2.281261 1.319284-4.205217-0.357306-1.67659 0.522216-3.600545 0.852037-5.46953 6.101687 3.023358 7.17360501 2.775993 9.344926-2.253776 1.209343 1.236828 2.281261 2.336232 3.380665 3.43563399 4.782403-5.771866 4.644978-7.668337-1.099403-11.24139599 3.188269-1.429224 3.105814-6.513963 8.300493-5.854322-0.16491 1.511679-0.329821 2.858448-0.494732 4.480068 3.298209 0.687127 6.486478 1.374254 9.482352 1.97892599 2.116351-2.693538 3.655515-6.51396299 6.074202-7.14612099 2.336232-0.632157 3.078329-1.759045 4.095277-3.215754 0.549702-0.797067 1.539164-1.868985 1.319283-2.528627-1.016948-3.380664 1.181858-4.315157 3.545575-5.249649 1.044433-0.412276 2.116351-0.687127 3.325694-1.099403 0.522216-3.38066399 1.484194-5.964262 5.826837-5.991747 3.02335799 0 6.211627-5.854321 6.019232-9.674747-0.13742499-2.775993-0.192396-5.5245-0.329821-9.042591 4.315157 3.133299 7.14612-0.989463 11.158941-0.632156-1.62162-1.868985-2.83096299-3.270724-4.012821-4.644979 0.192396-0.274851 0.384791-0.577187 0.577186-0.852037 1.20934301 0.16491 2.41868699 0.357306 3.655516 0.467246 2.143836 0.219881 5.826836-1.868985 6.101687-3.79294 0.137425-0.961978-0.714612-2.253776-1.456709-3.133299-1.126888-1.346769-2.556112-2.446172-4.315157-4.095277 1.594134-0.852037 2.473657-1.319284 3.463119-1.84150001-0.302336-1.016948-0.604672-2.061381-1.016948-3.49060399 1.264314-0.357306 2.446172-0.659642 3.29821-0.907008 0.797067-1.8415 1.071918-4.177732 2.363716-5.084739 1.456709-1.016948 3.820426-0.714612 5.854322-1.016948 0.412276-1.73156 0.85203701-3.62803 1.291798-5.497016 0.27485101 0 0.549702 0 0.852038-0.02748501 0.32982101 0.852037 0.659642 1.704075 1.016948 2.61108301 1.566649-0.219881 3.243239-0.961978 4.370127-0.467247 2.803478 1.236828 4.617493-0.137425 5.551985-2.143836 1.016948-2.226291 0.879522-4.754918-1.814015-6.266597-0.412276-0.247366-0.604672-0.879522-0.907007-1.374254 4.837374-2.611082 6.761329-9.234986 14.567091-8.76774l-5.579471-3.902881c3.050844-1.62162 5.551986-2.91341799 7.943187-4.17773099-0.219881-2.611082-0.961978-5.057254-0.467246-7.22857601 0.522216-2.253776 3.46312-4.507553 3.078329-6.266597-0.632157-2.885933 1.291799-4.370127 1.374253-7.750792 2.088866 2.748508 3.820426 3.875396 6.129173 2.088866 2.55611199-1.978926 4.122762-6.596418 3.105813-9.592292a2.583597 2.583597 0 0 0-0.494731-0.989463c-4.837374-5.606956-2.281261-10.746665 1.044433-15.776434 2.143836-3.243239 4.287672-6.486478 6.678874-9.537322 1.594134-2.033896 2.06138099-3.902881 0.522216-6.101687-2.033896-2.940903-0.82455201-6.074202-0.522216-9.15253 0.027485-0.30233601 0.87952201-0.494731 1.649104-0.907008 0.549702 1.456709 1.071918 2.748508 1.8415 4.782403 1.181858-0.604672 3.160784-1.016948 3.325695-1.814015 0.907008-4.425097 1.374254-8.960135 2.00641-13.495172 0.742097-0.21988101 1.594134-0.467246 2.116351-0.632157-0.989463-3.792941-1.89647-7.31103-2.803478-10.829121 2.583597-0.742097 4.892344-1.374254 7.750792-2.198806-1.209343-2.198806-2.061381-3.710485-3.078328-5.551985 1.511679-0.357306 2.693538-0.632157 4.287672-1.01694799-0.412276-4.974799-0.74209701-10.032053 6.926239-10.38935901-2.088866-2.693538-5.442045-3.298209-3.957851-6.486478 0.05497-0.137425-1.89647-1.209343-3.40815-2.143837 0.522216-1.759045 1.044433-3.655515 1.649105-5.551985 0.27485101-0.879522 1.236828-1.923955 0.989463-2.501142-1.511679-3.710485 0.76958201-6.019232 3.16078399-8.547859l-3.21575399-4.205217c0.65964201-1.181858 1.374254-2.473657 2.088865-3.765455 0.769582 1.016948 1.566649 2.061381 2.913419 3.820425 0.357306-3.710485-0.412276-4.754918-2.995874-3.62803 1.401739-3.435635 2.913418-6.843784 4.205217-10.306904 1.456709-3.875396 0.412276-5.332105-4.205217-5.909291 1.264314-4.315157 5.442045-2.006411 8.108098-3.35318-1.016948-3.600545-4.150247-4.809888-6.294083-6.431508-0.302336-2.50114199-1.071918-4.727433-0.687127-6.761329 0.357306-1.978926 1.89647-3.765456 3.270725-6.32156699 0.027485 0 1.071918-0.192396 2.171321-0.38479201 0.16491-1.566649 0.302336-3.023358 0.467246-4.535037-0.852037-0.32982101-1.67659-0.632157-2.721023-1.016948 0.357306-1.649105 0.714612-3.243239 1.181859-5.277135-2.226291-0.714612-4.287672-1.401739-5.909292-1.923955 0.219881-3.73797 0.219881-7.393486 0.769582-10.939061 0.302336-1.8415 1.20934301-4.012821 2.583597-5.167194 2.116351-1.78653 2.748508-3.600545 2.198807-7.14612-1.209343 1.67659-1.78653 2.721023-2.638568 3.490604-0.604672 0.549702-1.566649 0.659642-2.363716 0.961978-0.274851-0.961978-0.989463-2.061381-0.74209801-2.885933 0.357306-1.154373 1.429224-2.088866 3.18826901-4.452583l-3.84791-0.302335c0-0.41227601-0.16491-0.879522 0-1.071918 1.456709-1.704075 2.03389599-3.270724 0.577186-5.497016-1.209343-1.814015-1.511679-4.205217-2.473657-6.184142-1.20934301-2.446172-1.8415-4.644978-0.494731-7.393486 0.577187-1.181858 0-3.160784-0.577187-4.617493-1.23682801-3.298209-2.77599299-6.458993-4.425097-10.169478 2.308746-1.511679 4.342642-2.858448 6.733844-4.452583-3.050844-5.029769-8.437919-8.520374-12.972957-13.660083 3.160784-4.590008 2.006411-10.032053-0.439761-14.814457-2.143836-4.205217-2.775993-10.47181401-9.729717-10.444329-0.82455201-2.858448-1.346769-5.277135 1.456709-7.613366 2.061381-1.704075 1.511679-3.215754-0.989463-4.727434-0.74209701-0.467246-1.594134-0.769582-2.088866-0.989462-1.016948-3.160784 3.957851-4.122762 1.78653-7.613367-1.456709 0.577187-2.913418 1.126888-4.947314 1.923956 0-2.253776-0.027485-4.37012701-0.05497-6.843785q-3.270724-2.226291-0.989462-6.788814c-1.456709-3.325694-2.88593299-6.486478-4.507553-10.141993-2.143836-0.632157-4.809888-1.456709-7.833247-2.336232-0.05496999-2.775993-0.76958201-5.936777 0-8.712769 0.714612-2.611082 2.940903-4.782403 4.837374-7.640851-2.061381-0.65964201-3.545575-1.181858-5.08474-1.594135-1.429224-0.384791-2.885933-0.604672-4.397612-0.934492-2.116351-2.693538-4.067791-5.551986-6.431508-8.053128-0.852037-0.907008-2.638567-0.961978-4.535038-1.594135-0.247366-1.923955-1.071918-4.177732-0.687127-6.211627 0.522216-2.885933-0.632157-5.084739-2.473657-6.431508-2.198806-1.62162-3.105814-3.43563501-2.995873-6.074202-1.78653-0.797067-4.782403 1.566649-5.084739-1.704075-0.16491-1.868985 0.687127-3.820426 1.209343-6.321568-1.264314-0.687127-2.748508-1.868985-4.452582-2.308746-2.721023-0.68712701-4.260187-2.336232-4.699949-4.864859-0.687127-3.820426-3.545575-5.332105-6.541448-6.871269-1.594134-0.824552-3.160784-1.73156-4.535038-2.858448-4.260187-3.435635-8.437919-7.008695-12.945471-10.77415-0.467246-2.50114199-1.016948-5.35959-1.594134-8.410434-2.033896 0.68712701-3.902881 1.319284-5.469531 1.8415-3.325694-9.94959801-10.691695-15.611524-19.212069-21.273449-0.467246-5.79935099-4.562523-8.520374-10.581754-8.492889-2.446172-1.923955-0.79706701-6.019232-4.56252299-6.816299-2.528627-0.549702-4.947314-1.511679-7.50342601-2.336232 0.05497-1.649105 0.10994-2.91341799 0.16491-4.315157-0.494731-0.192396-0.989463-0.522216-1.48419399-0.522216-4.067791-0.137425-7.475941-1.126888-10.16947801-4.782404-1.401739-1.923955-4.315157-2.748508-6.404023-4.205216-2.116351-1.456709-4.425097-4.754918-6.019232-4.397613-3.957851 0.907008-3.160784-4.040306-6.486478-4.040306-2.00641099 0-3.93036601-2.885933-6.046717-4.232702-2.418687-1.566649-5.002284-2.913418-7.750792-4.480068-2.281261 0.879522-4.919829 1.89647-8.327978 3.215755 0.329821-3.05084401 0.494731-5.46953-2.473657-6.349053-0.769582-0.21988101-1.346769-1.236828-1.923956-1.951441-1.67659-2.088866-3.46312001-3.160784-6.266597-1.868985-2.418687 1.12688801-4.507553 0.577187-6.294083-1.759045-0.907008-1.181858-2.638567-1.868985-4.095276-2.446172-4.315157-1.67659-8.740255-3.050844-13.000442-4.809888-3.51809-1.456709-8.053128-2.143836-13.220322-1.868986-1.759045 0.082455-3.545575-0.79706701-5.30462-1.236828-1.868985-5.24965-2.281261-5.387075-7.283545-2.446172-1.814015 1.071918-3.600545 2.143836-6.046717 3.62803-1.429224-0.192396-3.73797-0.494731-6.486478-0.824552 0.852037-3.57306001-2.446172-5.22216499-4.507553-7.475941-0.577187-0.659642-2.611082 0-4.452583 0.082455 0.742097 2.336232 1.291799 4.067791 1.841501 5.771866-3.435635 0.934493-3.188269-2.583597-4.947314-3.105813-4.040306-0.879522-8.080613-1.759045-13.082897-2.858448-0.74209701 0.494731-2.308746 1.8415-4.122761 2.666052-0.989463 0.439761-2.858448 0.494731-3.490605-0.137425-0.632157-0.632157-0.467246-2.39120199-0.164911-3.51809 0.357306-1.209343 1.291799-2.253776 2.116351-3.57306-0.769582-0.687127-1.539164-1.401739-2.391201-2.171321 0.769582-3.160784 2.721023-5.167194 5.90929099-5.854322-1.126888-6.211627-0.742097-11.928523 1.48419402-17.810329 1.291799-3.40815 2.418687-7.778277-1.34676901-11.323852 1.15437301-0.797067 2.308746-1.594134 4.150247-2.885933-2.363717-1.401739-4.205217-2.473657-5.716896-3.40815-0.68712701-2.748508-0.604672-5.909292-2.116351-7.860732-4.177732-5.5245-0.934493-10.032053 1.78653-14.072359 3.133299-4.617493 6.56893299-9.262471 11.818583-12.120919 3.875396-2.116351 7.503426-4.425097 12.203374-4.342643 2.666052 0.05497 5.41456-1.209343 7.998158-0.907007 2.693538 0.329821 5.222165 2.52862699 7.888217 2.638567 3.105814 0.137425 4.837374 2.198806 7.20109 3.133299 6.486478 2.528627 13.137867 5.084739 20.421412 3.57306 1.071918-0.219881 2.226291-0.439761 3.270725-0.274851 2.693538 0.412276 5.442045 1.8415 7.970672 1.45670899 4.892344-0.769582 9.619777-2.501142 14.539606-3.84790999-0.742097-1.923955-1.346769-3.46312-1.923956-5.002284 5.167194-3.875396 10.004568-8.05312799 15.391644-11.37882201 3.243239-2.00641099 7.25606-3.54557501 10.99403-3.79294099 3.380664-0.21988101 5.964262-1.649105 8.76774-2.858448 2.391202-1.016948 4.672463-2.253776 7.723307-3.710485-1.319284-0.412276-2.116351-0.687127-2.968389-0.934493q3.078329-9.97708301 12.45074-7.888217c0.797067-1.20934301 1.67659-2.528627 2.666053-4.012821 1.539164 0.247366 3.215754 0.852037 4.727433 0.604671 1.346769-0.219881 2.528627-1.429224 4.04030599-2.363716 1.099403 0.632157 2.363717 1.346769 3.62803001 2.088866 0.32982101-0.10994 0.824552-0.10994 0.961978-0.329821 1.62162-2.583597 3.40815001-3.160784 5.936777-0.989463 0.879522 0.769582 2.281261 1.154373 3.490605 1.291798 2.336232 0.27485101 5.084739-0.412276 6.981209 0.577187 2.143836 1.126888 3.545575 3.683 5.222165 5.606956-1.319284 0.247366-2.611082 0.494731-4.425098 0.852037 2.583597 1.814015 3.243239-0.082455 4.315157-0.907007zM969.83842899 512.995549c0.329821-2.50114199 0.907008-3.985336 0.63215701-5.332105-0.549702-2.666052-1.484194-5.24965-2.363717-7.833247-1.67659-5.029769-1.566649-9.949598-0.412276-15.199248 0.79706701-3.655515 0.329821-7.860732-0.68712701-11.543732-1.484194-5.277135-1.978926-10.141993 1.04443301-14.951882 0.357306-0.577187 0.824552-1.759045 0.577187-2.006411-2.391202-2.363717 0.797067-4.562523 0.10994-6.898754-0.439761-0.357306-0.824552-0.742097-1.264313-1.07191799-3.93036601-2.968388-4.095276-3.51809001-1.099403-7.36600102 1.539164-1.978926 1.209343-3.57306 0.05497-5.55198499-2.611082-4.452582-4.727433-9.04259 0.357306-13.797509-2.088866-1.8415-3.820426-3.40815-6.376538-5.661926 0.824552-1.20934301 2.693538-2.721023 2.501142-3.930366-0.742097-4.782403-2.06138099-9.454867-3.325694-14.15481499-0.494731-1.868985-1.374254-3.655515-2.171321-5.71689601-0.934493-0.329821-2.143836-0.742097-3.737971-1.31928299-0.329821 2.44617199-1.484194 4.205217-0.824552 7.00869399 1.374254 5.854321 1.12688801 12.065949 2.446172 17.947756 0.989463 4.397612 3.710485 8.382949 2.721022 13.22032201-0.05497 0.27485101 0.329821 0.632157 0.549702 0.96197699 4.315157 6.404023 3.243239 13.495173 1.676589 20.201532-1.099403 4.699948-1.759045 8.575344 1.56665 12.56068 1.044433 1.264314 1.78653 3.435635 1.539164 5.002284-1.15437301 7.25606-1.429224 14.594576-1.181858 21.850636 0.219881 6.074202 2.391202 12.093434-0.60467199 18.057696-0.137425 0.27485101 0.137425 0.742097 0.10993999 1.099403-0.412276 5.002284 0.907008 10.114508-0.961977 15.06182199-0.247366 0.68712701-0.302336 1.484194-0.274851 2.22629201 0.082455 2.638567 1.264314 3.683 3.957851 3.408149 3.655515-0.384791 5.24965-2.885933 6.294083-6.019232-6.211627-2.666052-7.805762-3.215754-2.638568-13.137867 0.384791 0.632157 0.769582 1.20934301 1.81401499 2.885934z m-320.228633 382.125026c5.222165-2.143836 5.19468-2.088866 10.00456901 1.67659 0.852037 0.659642 2.556112 1.099403 3.490604 0.71461199 2.363717-0.989463 4.507553-2.501142 6.733844-3.79294099 0.30233601-0.16491 0.65964201-0.219881 0.961978-0.329821l2.198806 2.501142c3.35317899-2.803478 6.541448-5.5245 9.839658-8.135583 4.342642-3.46312 7.833247-8.657799 14.979367-7.503426 1.236828 1.89647 1.456709 4.177732 1.319283 6.651389-0.027485 0.769582 0.494731 2.116351 1.071918 2.281261 0.907008 0.274851 2.446172 0.16491 2.968389-0.43976101 0.852037-0.989463 1.67659-2.583597 1.484194-3.76545499-0.467246-2.748508-1.594134-5.332105-4.480068-6.541449 2.061381-2.116351 4.260187-3.62803 5.469531-5.71689601 2.143836-3.710485 4.617493-6.101687 9.262471-5.46952998 0.989463 0.137425 2.08886599-0.742097 4.397612-1.62162001-3.435635-1.319284-5.579471-2.171321-7.723307-2.995873-2.363717 2.03389599-4.809888 3.765456-6.733844 5.909292-1.594134 1.759045-3.215754 2.77599299-5.551985 3.353179-4.315157 1.071918-8.740255 2.171321-12.698106 4.122761-5.77186599 2.858448-11.131456 6.458993-16.491046 9.647263-5.139709-2.336232-8.630314-2.033896-11.131456 1.704074-1.401739 2.088866-3.160784 2.83096299-5.057254 3.957851-1.539164 0.907008-4.205217 0.907008-4.31515801 3.737971z m-179.42258299 7.585881c3.435635-1.319284 6.596418-1.814015 8.685285-3.545575 2.528627-2.08886599 4.177732-5.24965 6.458993-8.300493-3.160784-5.112224-8.135583-3.188269-12.753076-2.858448 0.302336 2.775993 1.016948 5.222165 0.659642 7.475941-0.357306 2.308746-1.814015 4.425097-3.050844 7.228575zM928.693269 320.407614c4.425097 1.868985 4.397612 5.057254 4.177732 8.410433-0.082455 1.264314-0.10993999 2.803478 0.522216 3.765456 2.583597 3.902881 5.35959 7.640851 8.190553 11.351337 0.412276 0.522216 1.429224 0.577187 2.171321 0.852037 0.247366-0.329821 0.494731-0.65964201 0.769582-0.98946299l-5.139709-5.96426201c1.319284-10.169479-2.995873-17.97524-10.66421-17.398053z m-201.60304 545.496324c0.494731-1.67659 0.879522-3.02335799 1.291798-4.452582 2.08886599-0.137425 3.87539601-0.247366 5.799352-0.357306-0.907008-2.473657 4.205217-4.864859-0.164911-7.118635-2.666052 0.742097-5.579471 1.016948-7.860732 2.336231-2.171321 1.264314-5.057254 2.281261-5.826836 5.222165 2.253776 1.456709 4.232702 2.721023 6.761329 4.370127zM990.974454 588.497055c4.535038-5.881806 6.623904-14.072359 5.222164-19.569375-1.099403 1.62162-2.006411 3.46312-3.380664 4.837374-3.847911 3.875396-4.727433 9.207501-1.8415 14.759486z m-361.758585 272.78939c1.154373 2.666052 1.18185801 6.458993 5.689411 6.046717 2.143836-0.192396 3.160784-1.401739 3.655515-3.545575 0.797067-3.380664-1.044433-4.782403-3.655515-5.854321-1.923955 1.126888-3.792941 2.226291-5.689411 3.353179zM950.956181 379.115738c-0.412276 2.50114199-1.016948 4.974799-1.071918 7.503426 0 0.687127 1.649105 2.006411 2.528627 2.006411 1.649105 0 3.90288101-3.51809 3.29821-5.057254-1.291799-3.298209-2.88593299-6.486478-4.480068-9.949598-4.232702 2.693538 0 3.875396-0.302336 5.497015zM899.311722 264.145661l5.35959 4.397612c0.879522-4.947314-0.082455-5.881806-5.35959-4.397612z m-228.51093101 634.438034c-2.226291 0.219881-4.260187 0.604672-4.37012699 3.243239 0 0.577187 1.649105 1.8415 2.281261 1.704075 2.473657-0.549702 3.105814-2.308746 2.08886599-4.947314z m-68.16299099-14.29224c1.67659-0.632157 3.133299-1.20934301 4.974799-1.92395601q-4.012821-2.281261-4.974799 1.92395601z m-44.635765 0.357306c1.923955 2.033896 3.133299 3.49060501 6.816299 2.501142-2.446172-1.291799-3.353179-3.325694-6.816299-2.501142zM898.04740801 256.587265c0.439761 1.8415 0.85203701 3.710485 4.23270199 2.556112-1.89647-1.154373-3.050844-1.8415-4.23270199-2.556112z m-19.40446401 293.650563c0.384791 0.16490999 0.76958201 0.329821 1.126888 0.494731 0.439761-0.907008 0.879522-1.8415 1.319284-2.748507-0.412276-0.192396-0.852037-0.35730601-1.264314-0.549702-0.384791 0.934493-0.797067 1.868985-1.181858 2.803478z m-465.322355 330.617992c-0.467246 0.08245499-0.961978 0.137425-1.429224 0.219881l0.247366 2.446172c0.467246-0.10993999 1.374254-0.16491 1.374253-0.302336 0.05497-0.769582-0.10994-1.566649-0.192395-2.363717zM873.035988 716.275179l0.742097 0.742097c0.604672-0.632157 1.236828-1.236828 1.8415-1.868986-0.247366-0.219881-0.687127-0.687127-0.714612-0.65964099-0.659642 0.549702-1.264314 1.181858-1.868985 1.78652999z m69.72964-362.253316c0.907008 0.16491 1.704075 0.494731 1.814016 0.302336 0.357306-0.494731 0.467246-1.181858 0.687126-1.81401499-0.439761-0.13742499-1.126888-0.522216-1.29179801-0.35730601-0.467246 0.384791-0.714612 1.044433-1.18185799 1.868985z m-410.984357 538.047868c0.384791-0.522216 0.687127-0.961978 0.989463-1.374253-0.439761-0.274851-1.016948-0.907008-1.264314-0.797068-0.494731 0.247366-0.797067 0.879522-1.181858 1.346769 0.439761 0.247366 0.87952201 0.494731 1.456709 0.797067z m330.123261-273.201666c0.274851 0.219881 0.549702 0.412276 0.824552 0.632157 0.219881-0.384791 0.439761-0.74209701 0.659642-1.126888-0.32982101-0.137425-0.68712701-0.412276-0.961978-0.329821-0.21988101 0.05497-0.329821 0.522216-0.494731 0.824552z m20.668778-142.894915c0.192396-0.247366 0.577187-0.494731 0.549701-0.714612-0.027485-0.27485101-0.412276-0.494731-0.632157-0.742097-0.192396 0.247366-0.577187 0.494731-0.54970099 0.714612 0.027485 0.27485101 0.412276 0.494731 0.63215699 0.742097z m-110.682406 288.9781c0.247366 0.219881 0.494731 0.604672 0.714612 0.577187 0.24736601 0 0.467246-0.412276 0.71461199-0.632157-0.247366-0.219881-0.494731-0.604672-0.71461199-0.577187-0.24736601 0-0.467246 0.412276-0.714612 0.632157z m12.753076-514.245792c0.467246-0.10993999 0.961978-0.137425 1.319284-0.329821 0.137425-0.082455 0-0.604672 0-0.934492-0.43976101 0-0.907008 0-1.346769 0.10994-0.05497 0 0 0.604672 0.027485 1.126888z" p-id="9049"></path><path d="M733.906528 942.614788c3.847911-1.016948 7.695822-2.033896 11.928523-3.13329901 0.852037 4.122762-1.291799 5.579471-3.79294 7.00869501-2.693538 1.566649-5.442045 3.160784-7.833247 5.139709-5.002284 4.150247-4.699948 3.188269-9.619777 0.302336-1.044433-0.604672-1.759045-1.759045-2.55611199-2.556112-2.363717 0.604672-2.281261 1.814015-1.73156001 3.490605 1.401739 4.177732 1.264314 5.002284-2.666053 6.184142-4.864859 1.456709-9.949598 2.171321-14.951882 3.215754-0.219881-0.384791-0.412276-0.76958201-0.632157-1.154373 3.023358-2.693538 6.046717-5.387075 8.905165-7.943187-0.274851-3.46312-0.549702-6.733844-0.852037-10.38935899-2.08886599 0.05497-4.260187 0.10994-6.56893299 0.16490999 0.769582-3.353179 1.346769-5.964262 2.00640999-8.547859 0.13742499-0.522216 0.412276-1.126888 0.824553-1.42922401 5.854321-4.370127 10.77415-10.032053 19.541889-9.20750099 4.837374 0.439761 8.52037399-3.957851 11.378822-7.943187 0.824552-1.12688801 1.071918-2.666052 1.923956-4.892344-5.029769 1.67659-9.674747 1.95144-13.082897 5.579471-0.879522 0.934493-1.978926 1.814015-3.133299 2.28126101-6.019232 2.44617199-12.175889 4.562523-18.140151 7.14611999-6.156657 2.666052-11.98349399 6.019232-18.195121 8.520374-6.156657 2.50114199-12.725591 3.985336-18.882248 6.541449-5.387075 2.226291-11.296367 4.535038-12.28582901 11.488762-0.384791 2.748508-1.759045 3.160784-4.61749299 3.160784 0.907008-1.566649 1.511679-2.611082 2.226291-3.82042601-0.439761-0.302336-0.852037-0.824552-1.264313-0.82455199-5.167194 0.10994-10.361874 0.05497-15.501584 0.522216-6.651389 0.577187-13.440203 1.264314-19.81674 2.638568-6.046717 1.291799-12.753076 1.67659-18.305062 5.5245-1.759045 1.209343-4.562523 1.044433-6.926239 1.319284-2.55611199 0.302336-5.167194 0.302336-7.72330699 0.659642-5.30461999 0.742097-10.636725 2.446172-15.91385901 2.226291-4.864859-0.192396-9.04259-0.549702-13.96242 1.566649-4.617493 2.006411-10.636725 0.852037-16.023799 0.989463-2.08886599 0.05497-4.205217-0.274851-5.08474-2.611082-0.907008-2.418687 0-4.39761201 1.759045-6.046717 0.797067-0.742097 1.73156-1.346769 2.501142-1.951441-0.71461201-8.465404 0.577187-9.289956 9.262471-10.554269 4.699948-0.687127 6.458993 1.649105 5.469531 6.404023-0.219881 1.016948-0.577187 1.978926-0.852038 2.91341799 0.68712701 0.329821 1.209343 0.71461201 1.319284 0.63215701 3.90288101-3.023358 7.970672-1.319284 12.010979-0.439762 3.73797 0.82455201 4.837374-0.219881 4.205216-3.902881-0.247366-1.429224-0.577187-2.940903-0.302336-4.287672 0.659642-3.270724 1.814015-3.875396 5.13971-3.683 2.363717 0.137425 4.754918-0.05497 7.14612 0.082455 0.824552 0.05497 2.198806 0.522216 2.308746 1.016948 0.192396 0.907008-0.082455 2.226291-0.687127 2.913418-1.044433 1.154373-2.473657 1.923955-4.205216 3.188269 3.847911 2.336232 6.926239 3.820426 10.82912 1.78653 2.033896-1.044433 3.050844-1.923955 3.023359-4.56252299 0-5.497015 1.759045-7.03618 7.03617899-7.72330601 1.071918-0.137425 2.226291-0.439761 3.13329901-0.989463 1.814015-1.126888 3.51809-1.814015 5.799351-1.181858 1.099403 0.302336 2.446172-0.604672 3.710486-0.687127 1.15437301-0.082455 2.336232 0.19239601 3.51809 0.329821-0.329821 1.319284-0.302336 2.913418-1.071918 3.902881-1.236828 1.594134-3.07832901 2.693538-4.535038 4.122761-0.577187 0.577187-0.852037 1.456709-1.62162 2.885933 1.67659-0.05497 2.721023 0.08245499 3.62803-0.192395 1.044433-0.302336 2.116351-1.594134 2.968389-1.42922399 5.222165 1.099403 6.59641799-2.858448 8.630314-6.10168701 0.934493-1.484194 2.061381-2.858448 3.51809-4.864859 0.989463 2.088866 1.594134 3.40815 2.226291 4.699948 0.714612 1.484194 1.759045 2.473657 3.545575 1.868985 1.73156-0.577187 2.171321-1.8415 1.759045-3.545575-1.62162-7.09115 0.412276-7.723307 6.074202-10.55426899 3.325694-1.67659 6.67887401-3.380664 10.526785-0.85203701 1.099403 0.714612 2.858448 0.439761 5.606955 0.769582-2.418687 1.319284-3.820426 2.088866-5.277135 2.88593301 3.270724 3.820426 7.833247 3.46312 12.17589-0.76958201-0.302336-2.116351-4.287672-3.545575-1.64910501-6.129173 0.989463-0.961978 3.270724-1.539164 4.53503801-1.071918 3.160784 1.18185801 0.68712701 3.73797 0.494731 5.854322 3.820426 1.649105 5.24965-2.58359699 8.135583-2.858448 2.638567-0.247366 5.222165-1.044433 8.163068-1.649105-2.006411-1.978926-3.62803-3.600545-5.689411-5.634441 3.820426-2.226291 5.551986-6.18414199 9.949598-6.404023 0.32982101 0 0.797067-0.21988101 0.96197699-0.494731 3.710485-5.854321 10.30690401-6.211627 15.96883001-8.327978 2.446172-0.907008 4.919829-1.78653 7.366001-2.693538 0.71461201-0.247366 1.649105-0.384791 2.033896-0.907007 2.913418-3.95785101 6.871269-4.974799 11.571217-4.837374 1.016948 0.027485 2.088866-1.759045 3.133299-2.721023 1.484194-1.319284 2.858448-3.57306 4.507552-3.79294 5.46953-0.742097 9.509837-4.177732 13.989905-6.678874 2.363717-1.319284 3.875396-1.511679 6.019232 0 1.539164 1.071918 3.435635 1.62162 6.458993 2.940903-1.978926-5.936777 1.264314-9.234986 2.913418-12.945471 1.704075-3.902881 5.057254-6.321568 9.289956-7.448456 3.02335799-0.797067 5.909292-1.62162 8.68528399-3.490605 2.033896-1.374254 3.13329901-2.803478 4.26018701-4.727433 0.824552-1.401739 1.923955-3.215754 3.270724-3.62803 6.761329-2.006411 9.78468699-9.234986 16.353621-11.488762 1.154373-0.384791 1.67659-2.363717 2.666053-3.46312 1.374254-1.484194 2.69353801-3.188269 4.397612-4.122762 4.727433-2.638567 5.35959-2.226291 8.98762 1.923956 1.044433 1.181858 3.105814 1.95144 4.754919 2.033895 2.08886599 0.137425 2.528627-1.868985 2.666052-3.62803 0.329821-4.342642 0.632157-8.657799 0.989463-13.852479-0.05497 0 0.907008-0.604672 1.89646999-0.687126 2.940903-0.219881 4.150247-1.126888 3.79294101-4.562523-0.467246-4.617493 2.775993-7.943187 5.826836-10.994031 3.902881-3.930366 7.778277-7.943187 12.065949-11.461277 2.198806-1.814015 5.222165-2.611082 8.190553-4.012821-0.302336-1.291799-0.604672-2.666052-0.687127-3.10581399 3.875396-5.139709 7.448456-9.592292 10.691695-14.29224001 2.775993-4.04030601 4.809888-5.854321 8.82271-6.706359-0.632157 5.057254 0 6.07420199 5.881806 8.60282901 1.23682801-2.363717 2.748508-4.672463 3.683-7.20109001 0.714612-1.95144 0.467246-4.04030601-1.814015-5.277135-2.473657-1.319284-3.133299-3.49060501-2.638567-6.541448 6.84378401 0 5.332105-8.053128 10.11450799-10.087024-1.429224-6.816299 1.759045-11.736128 8.98762101-14.29224 1.511679-0.522216 2.995873-1.154373 4.864858-1.868985-0.604672-1.8415-0.961978-3.243239-1.511679-4.562523-2.143836-5.139709-0.439761-11.131456 4.122762-14.154814 3.023358-2.006411 5.661926-1.814015 7.695821 1.264313 1.67659 2.556112 3.023358 3.545575 5.744381 1.374254 0.852037-0.687127 2.556112-0.989463 3.655515-0.659642 4.535038 1.346769 9.070075 2.885933 13.467688 4.617493 2.198806 0.852037 2.41868699 3.57306 0.742097 5.716896-0.687127 0.852037-2.391202 1.704075-2.281261 2.226291 1.044433 4.672463-2.666052 6.513963-5.057254 9.180016-1.374254 1.511679-2.693538 3.05084401-1.18185899 5.442045 0.467246 0.74209701-0.137425 2.446172-0.68712701 3.435635-0.907008 1.62162-1.95144 3.270724-3.353179 4.425097-1.319284 1.071918-3.40815001 2.391202-4.727433 2.006411-2.006411-0.549702-3.847911-2.336232-2.748508-5.167194 0.082455-0.24736601-0.219881-0.632157-0.577187-1.539165-1.044433 0.549702-2.748508 0.907008-2.968388 1.67659-1.73156 5.991747-6.431508 10.05953801-9.867143 14.841942-1.978926 2.775993-4.370127 5.30462-6.266597 8.327978-1.67659 2.721023-4.507553 4.727433-7.695822 7.888217 3.32569399-0.412276 5.68941099-0.302336 7.778277-1.016948 3.243239-1.099403 4.947314 0.16491 6.376538 3.325695-0.797067 1.346769-1.374254 3.600545-2.748508 4.342642-3.51809 1.89647-5.387075 5.002284-7.42097 8.108097-0.302336 0.467246-1.18185801 0.824552-1.126889 1.154374 0.797067 6.23911199-4.45258201 6.294083-8.080612 7.888217-0.71461201 0.302336-2.116351 0.329821-2.473657-0.10994-0.577187-0.714612-0.989463-2.088866-0.659642-2.885934 1.649105-4.315157 4.260187-7.833247 9.399896-9.015105-0.632157-2.363717-1.181858-4.397612-1.8415-6.816299-5.277135 1.566649-8.492889 4.672463-9.839657 9.757202-0.659642 2.473657-1.374254 4.947314-2.253777 8.080613 0.852037 0.659642 2.116351 1.67659 3.40815 2.638567 2.638567 1.89647 3.160784 4.480068 0.632157 6.321568-2.336232 1.67659-3.243239 3.60054501-3.93036599 6.239113-0.879522 3.325694-4.260187 3.545575-9.01510601 0.879522 0.247366-1.511679 0.522216-3.10581401 0.852038-5.029769-4.535038-0.329821-6.871269 2.143836-8.575344 5.964262 2.116351 1.209343 4.287672 2.473657 6.596418 3.79294001-1.016948 3.298209-3.13329901 6.046717-0.742097 9.28995599 0.549702 0.742097-0.577187 2.693538-0.961978 4.122762-7.17360501-0.494731-11.98349399 3.710485-16.491046 6.513963-0.467246 2.116351-0.357306 3.95785101-1.209343 4.80988901-1.374254 1.319284-3.325694 2.253776-5.167195 2.72102199-0.852037 0.21988101-2.583597-0.824552-3.023358-1.731559-0.439761-0.87952201-0.16491-2.91341799 0.549701-3.40815 2.638567-1.8415 1.814015-4.012821 1.401739-7.338516-5.661926 7.09115-14.567091 9.317441-18.662367 17.480509 2.803478 0.934493 5.277135 1.759045 7.970672 2.638568-0.659642 2.198806-1.319284 3.73797-1.539164 5.35959-0.219881 1.649105-2.226291 3.820426 0.329821 4.91982899 1.154373 0.494731 3.05084401-0.412276 4.507552-0.96197799 2.253776-0.879522 4.342642-2.253776 6.651389-2.885933 1.539164-0.412276 3.325694 0.05497 5.002284 0.137425 0 3.957851-2.473657 5.46953-4.535038 6.761329-3.023358 1.89647-5.222165 3.95785101-5.909291 7.640852-0.247366 1.319284-1.539164 2.446172-2.611082 4.040306 1.704075 0.577187 3.160784 1.099403 4.590007 1.594134-0.13742499 0.522216-0.10994 0.961978-0.302335 1.209344-1.511679 1.8415-3.188269 3.57306001-4.562523 5.49701499-2.198806 3.078329-4.342642 6.019232-8.382949 6.95372501-1.319284 0.302336-2.446172 1.511679-3.655515 2.336231-3.133299 2.143836-5.579471 0.852037-6.32156799-2.995873-0.412276-2.116351-1.236828-4.232702-2.33623101-6.101687-0.989463-1.704075-2.666052-2.693538-5.057254-0.687127 0.30233601 0.797067 0.824552 1.704075 0.989462 2.666052 0.137425 0.769582-0.192396 1.62162-0.302336 2.446172-0.82455201-0.467246-1.868985-0.797067-2.418686-1.484194-0.494731-0.632157-0.439761-1.67659-0.659642-2.66605199-2.308746-0.10994-4.342642-0.10994-6.376538-0.30233601-4.04030601-0.412276-7.228575 0.577187-9.509837 4.370127-0.934493 1.566649-3.078329 2.418687-4.754918 3.655515 1.264314 4.480068 2.473657 5.22216499 6.239112 3.188269 2.088866-1.126888 3.95785101-2.721023 5.799352-4.287672 3.57306-3.05084401 6.871269-2.995873 10.279419 0.329821 1.209343 1.181858 2.391202 2.363717 3.57306 3.545575-2.061381 0.522216-4.232702 0.687127-6.046717 1.594134-1.89647 0.934493-3.435635 2.58359699-4.644978 4.919829 1.099403-0.16491 2.171321-0.329821 4.150246-0.604671-0.10994 1.456709-0.05497 3.792941-0.357306 3.84791-2.55611199 0.412276-5.19468 0.412276-8.795224 0.577187l-3.435635 3.62803c1.484194 0.714612 2.721023 1.319284 4.452582 2.171321-2.858448 4.864859-7.695822 6.541448-11.406307 9.647262-6.129172-9.839658-10.60924-9.509837-13.742538-4.342642 1.8415 3.73797 9.125046 1.8415 8.93265 8.60282899-2.226291-0.329821-3.957851-0.577187-6.046717-0.90700699-1.67659 5.991747-7.338516 6.404023-12.203374 9.125045-0.467246-2.033896-0.82455201-3.57306-1.236829-5.277135-4.480068-0.797067-7.888217 2.473657-11.956008 3.710486-2.143836-2.418687-4.177732-4.754918-6.129172-6.98121-0.824552 0.549702-1.401739 0.797067-1.374254 0.961978 0.714612 5.029769-1.154373 8.465404-5.826837 10.71918-1.759045 0.852037-4.480068 1.704075-3.79294001 4.809889-3.050844 1.016948-6.376538 1.62162-8.85019499 5.167194 4.040306-0.879522 7.860732-0.604672 8.685284-5.222165z m87.072724-65.414483c1.319284-1.071918 2.638567-2.116351 4.617493-3.683001q-4.562523 0.412276-4.590008 3.710486-3.765456-0.329821-3.353179 2.693537c1.209343-0.989463 2.281261-1.868985 3.353179-2.721022z m-12.478225-10.691695c-3.243239 1.484194-6.156657 2.940903-9.125046 4.205217-3.545575 1.511679-6.266598 3.847911-8.437918 7.036179-1.099403 1.62162-2.611082 3.133299-4.287672 4.150247-4.397612 2.693538-8.93265 5.112224-13.467688 7.58588101-4.644978 2.528627-9.317441 5.002284-14.40218 7.72330699 0.05497 0.41227601 0.16491 1.484194 0.302335 2.583597 0.05497 0.549702 0 1.15437301 0.164911 1.67659 0.76958201 2.721023 3.710485 3.90288101 5.442045 1.8415 2.69353801-3.243239 6.04671699-3.188269 9.482352-3.133299 1.8415 2.033896 1.814015 4.095276 1.181858 6.431508-0.522216 1.868985 0.384791 3.95785101 2.501142 2.995874 3.023358-1.346769 6.898754-2.281261 7.420971-6.816299-0.769582-0.604672-1.484194-1.154373-2.19880599-1.759045-3.29820899-2.803478-3.188269-6.596418-2.72102301-10.306904 0.494731-3.90288101 3.985336-3.02335799 6.568933-3.65551599 1.511679-0.357306 3.62803-1.044433 4.150247-2.17132101 2.94090299-6.431508 8.190553-9.949598 14.539606-12.120919 2.638567-0.907008 3.655515-2.281261 2.885933-6.239112z m-90.096083 69.72964c-1.67659 1.456709-3.133299 2.418687-4.095276 3.710486-0.467246 0.632157-0.082455 1.89647-0.082455 2.885933 0.824552-0.19239601 2.08886599-0.082455 2.391201-0.577187 2.391202-3.985336 6.486478-4.37012701 10.389359-5.35959 2.528627-0.632157 4.919829-1.8415 7.503427-2.830963-3.188269-4.260187-3.490605-5.79935099-1.814016-7.695821 1.78653-2.006411 4.232702-1.978926 7.970673 0.247365 1.016948-2.061381 2.00641099-4.067791 3.298209-6.706358-7.833247 1.044433-14.12733 3.930366-19.376979 8.602829-2.198806 1.95144-4.177732 3.490605-7.09115 3.79294-0.41227601 0.05497-0.79706701 0.522216-1.236829 0.824553 0.714612 1.016948 1.346769 1.89647 2.171321 3.105813z m216.719833-219.495825c-0.439761 0.16490999-1.126888 0.219881-1.401739 0.577186-3.847911 4.837374-7.695822 9.702232-11.433792 14.649547-1.016948 1.346769-1.78653 3.325694 0.192396 4.260187 0.85203701 0.412276 2.748508-0.604672 3.710485-1.45670999 1.73156-1.539164 3.188269-3.46312001 4.699948-5.24964901 0.467246-0.549702 1.044433-1.236828 1.07191799-1.868986 0.137425-2.99587299 1.181858-5.167194 3.93036601-6.843784 1.759045-1.071918 1.181858-2.858448-0.769582-4.067791z m-173.62323199 191.461047c-2.858448 2.088866 0.274851 4.480068-0.35730601 6.513963l-4.947314 4.864859c3.765456 1.181858 5.936777-0.85203701 8.163068-2.281262 1.594134-1.044433 1.759045-2.748508 0.549702-4.370127-1.126888-1.566649-2.253776-3.105814-3.43563499-4.699948z m-20.28398701 3.435634c5.606956 0.604672 8.02564299-3.46312 11.461277-5.35959-0.632157-0.907008-1.099403-2.308746-1.923955-2.556112-0.824552-0.24736601-2.253776 0.357306-2.995873 1.044433-2.088866 1.95144-3.985336 4.150247-6.541449 6.871269z m43.893668 0.797068c2.666052 0.604672 4.342642 0.439761 4.782404-1.951441 0.08245499-0.467246-0.632157-1.511679-1.126888-1.621619-2.528627-0.604672-2.995873 1.209343-3.655516 3.57306zM818.94535601 857.328594c0.329821 0.329821 0.632157 0.659642 0.96197799 0.989463 2.198806-0.989463 3.710485-2.58359699 4.315157-4.919829-0.329821-0.274851-0.659642-0.577187-0.961978-0.852037l-4.28767199 4.782403z m86.49553799-122.308593c0.192396-0.632157 0.604672-1.209343 0.43976099-1.566649-0.137425-0.30233601-0.85203701-0.384791-1.31928399-0.549702l-0.659642 1.73156c0.467246 0.13742499 0.934493 0.247366 1.539165 0.412276z m8.190553-2.885933c0.824552 0.05497 1.456709 0.274851 1.78653 0.05497s0.302336-0.907008 0.46724599-1.374254c-0.494731-0.08245499-1.071918-0.329821-1.45670899-0.16491-0.329821 0.16490999-0.439761 0.79706701-0.769582 1.456709zM111.891749 647.012784c0.769582 0.714612 1.649105 1.346769 2.253776 2.198807 0.714612 0.989463 0.989463 2.775993 1.8415 3.105813 4.012821 1.429224 8.108098 2.611082 12.28583 3.51809 0.742097 0.16491 2.198806-1.264314 2.666052-2.253776 0.302336-0.65964201-0.274851-2.253776-0.934492-2.775993-3.62803-2.775993-7.640851-4.425097-11.901039-3.050844-1.264314-1.95144-1.923955-3.985336-3.325694-4.947313-1.23682801-0.852037-3.270724-0.549702-5.002284-0.742098 1.566649-2.116351 3.380664-4.590008 0.852037-7.860732-0.687127-0.879522-0.13742499-2.748508-0.16491-4.315157-1.814015-0.604672-3.545575-1.209343-5.881807-1.978925 0.852037-1.95144 1.62162-3.655515 2.556112-5.716896 1.62162 1.071918 2.611082 1.95144 3.765456 2.418687 1.73156 0.714612 3.160784 0.30233601 4.177732-1.56665a115.987025 115.987025 0 0 1 5.57947-9.234986c0.604672-0.879522 2.198806-1.89647 3.023359-1.676589 1.429224 0.384791 3.62803 1.649105 3.683 2.666052 0.247366 4.507553 3.655515 6.156657 6.568934 8.30049301 0.742097 0.549702 2.088866 0.934493 2.198806 1.56664999 1.511679 8.382949 9.37241099 12.972956 12.065949 20.833688-1.154373 1.291799-2.44617199 2.721023-3.737971 4.15024699 0.13742499 0.357306 0.302336 0.71461201 0.439761 1.07191802 2.061381-0.219881 4.150247-0.439761 6.129172-0.65964201 2.143836 1.73156 4.260187 3.40815 6.623904 5.30462-1.511679 1.594134-3.243239 3.40815001-5.002284 5.277135 0.934493 3.133299 1.868985 5.771866 5.30462 6.788814 2.226291 0.659642 2.528627 2.363717 1.401739 4.480067-0.879522 1.649105-1.374254 3.51809-2.253776 5.936777l-3.600546-3.683001q-2.995873 1.923955 0.054971 7.805762c-2.446172 0.961978-4.864859 1.868985-7.915703 3.050844 1.89647 1.868985 3.160784 3.078329 4.644978 4.507553 1.923955-1.429224 3.51809001-3.243239 6.376538-1.951441 2.528627 1.12688801 4.040306 2.198806 3.792941 5.27713501-0.16491 1.95144 0.549702 3.957851 0.852037 5.93677699-5.497015 4.342642-8.273008 5.606956-13.550143 6.019231-0.439761-1.89647-0.769582-3.875396-1.34676801-5.771866-1.539164-5.002284-1.566649-5.002284-6.92623999-5.139709-3.188269-2.666052-2.638567-5.661926-0.137425-9.097561-1.67659-0.742097-2.940903-1.319284-4.232702-1.89646999-3.435635-1.511679-3.73797-2.226291-2.775993-6.019232 0.357306-1.374254 0.467246-2.830963 0.824552-5.02976901 0.10994-0.027485 1.099403-0.137425 1.67659-0.687127 4.699948-4.644978 9.674747-4.177732 14.951882-1.181858 0.577187 0.329821 1.759045 0 2.418687-0.439761 0.329821-0.192396 0.247366-1.868985 0.05497-1.923956-4.260187-1.374254-3.792941-5.634441-5.41456-8.602829-0.357306-0.632157-0.71461201-1.236828-1.264314-2.171321-4.260187 1.89647-8.465404 1.89647-13.027926 1.374254-2.748508-0.329821-7.448456-0.852037-8.602829 4.095276 1.154373 1.401739 2.693538 2.638567 3.243239 4.205217 0.384791 1.044433-0.632157 2.583597-1.181859 4.397612-1.154373-0.907008-2.088866-1.236828-2.171321-1.759045-0.549702-2.940903-0.87952201-5.936777-3.847911-7.613366 0.797067-5.689411-3.710485-7.28354501-7.31103-9.702232-1.044433-0.687127-1.346769-2.446172-2.006411-3.710485 0.412276-0.384791 0.824552-0.769582 1.264314-1.154374z m33.971555 30.810772c-2.363717-1.23682801-3.957851-2.08886599-5.579471-2.885933-3.023358-1.511679-4.699948-0.714612-5.606955 2.721022-0.21988101 0.852037-0.247366 1.759045-0.439762 3.29821 4.177732-0.302336 8.218038 1.181858 11.653673-3.105814z m-29.10669699-45.405348c0.467246-1.62162 1.044433-3.270724 0.93449299-3.325694-1.346769-0.604672-2.775993-1.071918-4.205217-1.236828-0.32982101-0.027485-1.209343 1.89647-1.126888 1.95144 1.23682801 0.852037 2.583597 1.566649 4.42509701 2.611082zM466.366788 949.376117c2.473657 4.754918-3.902881 4.067791-4.315157 7.008695 5.661926 0.632157 8.163068-0.604672 10.77415-5.387075 1.099403-1.978926 2.473657-3.380664 4.919829-2.47365701 6.239112 2.253776 12.478225 0.934493 18.717337 0.16491001 0.934493-0.10994 1.814015-0.522216 2.748508-0.52221601 1.78653 0 3.51809 0.549702 3.73797 2.58359701 0.219881 2.088866-1.346769 2.666052-3.215754 3.050844-2.44617199 0.494731-4.837374 1.374254-7.668336 2.226291 1.511679 2.995873 3.105814 4.45258201 5.46953001 2.583597 4.150247-3.325694 8.575344-2.556112 13.49517299-1.511679l-0.74209699 3.930366c1.044433 0.852037 2.281261 1.8415 4.04030599 3.270724-1.401739 1.73156-2.721023 3.32569399-4.370127 5.387075-3.188269-4.095276-6.788814-5.057254-11.021516-3.188269-0.32982101 0.137425-0.797067 0.27485101-1.099403 0.164911-5.936777-2.171321-11.76361299 0-17.64542 0.357306-2.226291 0.137425-4.535038-1.016948-7.366-1.704075-0.412276 0.247366-1.456709 0.714612-2.281262 1.401739-2.666052 2.308746-4.837374 2.885933-8.382948 0.65964199-3.133299-1.95144-7.448456-2.033896-11.296367-2.66605299-0.852037-0.137425-1.923955 0.797067-2.803478 1.374254-3.57306 2.253776-4.452582 2.116351-6.953724-1.016948-3.600545-4.535038-6.953724-5.442045-12.093434-3.435634-1.181858 0.467246-2.473657 1.044433-3.710485 0.989462-5.826836-0.192396-11.653673-0.577187-17.64542-1.64910401 1.484194-0.577187 2.940903-1.154373 4.754918-1.84149998-0.797067-1.566649-1.511679-2.995873-2.363716-4.72743401 3.270724-1.649105 7.173605-2.198806 9.262471-6.349053-1.401739-0.274851-2.446172-0.797067-3.29821-0.577186-5.551986 1.401739-5.551986 1.456709-7.283545-3.050844-2.803478-0.494731-5.442045-0.934493-8.300493-1.429224 2.418687-4.754918 3.435635-5.19468 7.420971-4.370127 2.116351 0.439761 4.370127 0.907008 6.486478 0.632157 6.513963-0.824552 10.71918 3.545575 9.344926 10.087023-0.10994 0.549702-0.192396 1.071918-0.357306 1.923955 3.875396 2.143836 7.558396 4.425097 12.010979 0.879523 2.088866-1.67659 4.397612-1.67659 6.458993 0.604672 2.143836 2.363717 5.24965 2.226291 7.888217 1.594134 5.46953-1.319284 10.80163501-3.188269 16.655957-4.947314z m15.034337 9.37241099c3.105814 0.10994 4.040306-0.797067 3.023358-3.16078298-0.10994-0.24736601-0.577187-0.302336-1.291798-0.68712701-0.522216 1.154373-1.044433 2.281261-1.73156 3.84790999zM946.476114 768.606765c-3.490605 0.247366-5.5245 1.78653-6.156657 4.974799-0.16491 0.879522-0.797067 1.67659-1.291799 2.473657-2.446172 3.875396-2.638567 3.930366-7.14612 2.308747-0.852037-0.30233601-1.73156-0.577187-2.968388-1.016948 1.566649-3.298209 2.99587299-6.349053 4.425097-9.399897-4.177732 1.594134-6.568933 4.39761201-7.118635 8.850195-2.58359699 0.192396-4.892344 0.384791-7.91570201 0.604672 0.549702-1.759045 0.549702-2.995873 1.15437301-3.57306001 3.353179-3.105814 7.14612-5.881806 7.14612-11.15894099 0-0.16491 0.10994-0.35730601 0.247366-0.494732 4.590008-5.057254 5.579471-12.010979 9.289956-17.562964 3.023358-4.562523 5.826836-9.289956 8.520374-14.04487399 0.549702-0.989463 0.412276-2.44617199 0.412276-3.68300101 0.027485-3.02335799-0.027485-6.07420199-0.05497-9.09756 0.35730601-0.082455 0.742097-0.16491 1.099403-0.219881 0.604672 1.566649 1.20934301 3.105814 1.704075 4.397613 5.30462 2.885933 10.416844 1.456709 16.13374 0.549701-1.044433-1.67659-1.923955-3.133299-2.748508-4.452582q-5.936777 1.704075-9.427381-3.902881c2.775993-5.71689599 3.05084401-5.909292 8.740254-5.08474 1.89647 0.274851 3.545575 0.604672 5.057254-1.181858 1.319284-1.566649 3.600545-2.253776 4.837374-0.43976101 0.797067 1.18185801 0.824552 4.287672-0.05497 5.00228401-2.91341799 2.363717-3.298209 5.139709-3.023359 8.46540401 0.082455 0.989463-0.714612 2.06138099-1.126888 3.07832799-0.549702 1.374254-1.759045 2.830963-1.621619 4.122762 0.769582 7.008695-4.864859 9.537322-8.960135 13.000441-2.033896 1.704075-3.16078401 3.73797-2.171322 5.771866 1.95144 3.957851-0.21988101 6.541448-2.391201 8.987621-3.050844 3.46312001-5.112224 7.20109-4.590008 12.753075z m-8.76774-7.475941c1.401739-1.071918 2.638567-2.143836 1.56665-4.040306-0.192396-0.329821-1.539164-0.439761-1.896471-0.137425-1.594134 1.319284-1.594134 2.748508 0.329821 4.177731zM233.073454 858.757818c-2.50114199 1.236828-3.957851 1.704075-5.02977 2.583597-0.907008 0.714612-2.143836 2.281261-1.89647 2.885933 0.494731 1.181858 1.8415 2.501142 3.05084399 2.721023 1.539164 0.302336 3.380664-0.10994 4.86485801-0.76958201 4.177732-1.78653 7.970672-1.099403 12.203375 1.42922401-2.885933 3.95785101-7.338516 5.442045-10.99403101 7.915702 0.24736601 0.879522 0.494731 1.704075 0.68712701 2.583597 0 0.10994-0.192396 0.302336-0.577187 0.797068-3.600545-2.281261-6.239112-0.577187-8.960135 2.253776-2.830963 2.940903-7.03618 3.435635-10.77415 5.689411-0.632157-3.133299 0.439761-3.87539601 2.363716-4.260187 6.568933-1.319284 7.778277-3.57306 4.205217-8.740255-2.666052-3.847911-7.366001-5.057254-11.26888201-9.289956-0.989463 7.063665-4.535038 9.564807-9.97708199 10.389359-3.105814-3.54557501-8.87768-5.002284-9.42738201-11.103971-3.600545-1.484194-4.782403-7.118635-10.44432899-5.497015 0.10994-4.012821-2.638567-4.919829-5.661926-5.524501 0-1.319284 0.027485-2.391202 0.05497-3.490604-2.336232-0.961978-4.644978-1.923955-6.761329-2.803478 0.384791-2.50114199 0.714612-4.39761201 0.934493-5.881807 3.353179 0.32982101 6.706359 0.68712701 10.526784 1.071918-0.329821 1.291799-0.687127 2.556112-1.209343 4.535038l12.038464 3.73797c3.655515-3.87539601 7.805762-5.964262 12.67062-4.892343 1.511679 0.329821 2.638567 2.556112 4.535038 4.535037-6.404023 1.73156-11.73612799 3.188269-17.398054 4.727434 3.078329 2.611082 9.207501 4.150247 12.010979 3.62803 4.562523-0.824552 9.592292-2.85844799 13.632598-1.67659 4.590008 1.319284 8.850195 1.18185801 13.302777 1.18185901 0.659642 0 1.319284 0.467246 3.325695 1.26431299z" p-id="9050"></path><path d="" p-id="9051"></path></svg>