<?xml version="1.0" standalone="no"?><!DOCTYPE svg PUBLIC "-//W3C//DTD SVG 1.1//EN" "http://www.w3.org/Graphics/SVG/1.1/DTD/svg11.dtd"><svg t="1769746471168" class="icon" viewBox="0 0 1024 1024" version="1.1" xmlns="http://www.w3.org/2000/svg" p-id="29055" xmlns:xlink="http://www.w3.org/1999/xlink" width="128" height="128"><path d="M742.391762 128.7135l0 110.25101 91.336218 0 0-35.756365-36.684504 0-0.071631-18.968004L906.581242 184.240141l0 91.676979L742.391762 275.91712l-0.054235 72.655763-37.024242-0.054235c0 0 0-145.57861 0-219.806171L65.721329 128.712477l0 165.18925 146.025795 0 0-90.122577-36.613896 0 0 35.809577-72.941266 0 0-55.348586 146.292877 0 0 110.233614c0 0 109.215424 0 164.654061 0l0 108.928898c11.251252-0.14224 72.941266 0 72.941266 0l0 128.754432 164.902724 0 0 91.12337 73.189929 0 0 109.411899c0 0 124.504642 0 182.461635 0l0 91.641163c-43.364647 0-146.097426 0-146.097426 0l0.034792-18.396999 18.414395 0 0-36.34579-54.740742 0-0.072655 109.680005 237.506299 0L961.679118 128.7135 742.391762 128.7135zM413.103084 239.590773 303.298236 239.590773l0-55.348586 109.840664 0L413.103084 239.590773zM797.0445 330.856383 906.581242 330.856383l0 91.176582L797.0445 422.032966 797.0445 330.856383zM540.803511 477.220892l0-73.852008 54.812373 0c0-49.829895 0-164.349115 0-164.349115l-54.402027 0c0 0 0 72.655763 0 109.555162-29.166273 0-73.263607 0-73.263607 0l-0.053212-164.332742L650.928654 184.242188l0.054235 292.979728C650.98289 477.220892 582.292438 477.220892 540.803511 477.220892zM705.314309 568.682977c0 0 0-105.071034 0-165.314093 19.61064 0 37.077453 0 37.077453 0l0 73.709769c0 0 49.25889 0 73.012897 0 0 33.773198 0 91.605348 0 91.605348L705.314309 568.684zM906.634454 678.327166 778.737552 678.327166l0-55.045687c0 0 61.349253 0 91.139743 0L869.877295 477.077629c11.68104 0 36.757159 0 36.757159 0L906.634454 678.327166z" fill="#E60012" p-id="29056"></path></svg>