<?xml version="1.0" standalone="no"?><!DOCTYPE svg PUBLIC "-//W3C//DTD SVG 1.1//EN" "http://www.w3.org/Graphics/SVG/1.1/DTD/svg11.dtd"><svg t="1769746476659" class="icon" viewBox="0 0 1024 1024" version="1.1" xmlns="http://www.w3.org/2000/svg" p-id="29206" xmlns:xlink="http://www.w3.org/1999/xlink" width="128" height="128"><path d="M281.608238 895.2865l0-110.25101001-91.336218 1e-8 0 35.756365 36.684504 0 0.071631 18.968004L117.418758 839.759859l0-91.676979L281.608238 748.08288l0.054235-72.655763 37.024242 0.054235c0 0 0 145.57861 0 219.806171L958.278671 895.287523l0-165.18925-146.025795 0 0 90.122577 36.613896 0 0-35.809577 72.94126599 0 0 55.348586-146.29287699 0-1e-8-110.233614c0 0-109.215424 0-164.65406099 0l0-108.928898c-11.251252 0.14223999-72.941266 0-72.941266 0l0-128.754432-164.902724 0 0-91.12337-73.189929 0 0-109.411899c0 0-124.504642 0-182.461635 0l0-91.641163c43.364647 0 146.097426 0 146.097426 0l-0.034792 18.396999-18.414395-1e-8 0 36.34579001 54.74074201 0 0.07265498-109.680005-237.50629898 0L62.320882 895.2865 281.608238 895.2865zM610.896916 784.409227L720.701764 784.409227l0 55.348586-109.840664-1e-8L610.896916 784.409227zM226.9555 693.143617L117.418758 693.143617l0-91.176582L226.9555 601.96703399 226.9555 693.143617zM483.196489 546.779108l0 73.852008-54.812373 0c0 49.829895 0 164.349115 0 164.349115l54.402027 0c0 0 0-72.655763 0-109.55516199 29.166273 0 73.26360699 0 73.263607-1e-8l0.05321201 164.332742L373.071346 839.757812l-0.054235-292.979728C373.01711 546.779108 441.70756199 546.779108 483.196489 546.779108zM318.685691 455.317023c0 0 0 105.071034 0 165.31409301-19.61064 0-37.07745301 0-37.077453-1e-8l0-73.709769c0 0-49.25889 0-73.012897 0 0-33.773198 0-91.60534799 0-91.605348L318.685691 455.316zM117.365546 345.672834L245.262448 345.672834l0 55.04568699c0 0-61.349253 0-91.139743 1e-8L154.122705 546.922371c-11.68104001 0-36.75715901 0-36.757159 0L117.365546 345.672834z" p-id="29207"></path></svg>