<?xml version="1.0" standalone="no"?><!DOCTYPE svg PUBLIC "-//W3C//DTD SVG 1.1//EN" "http://www.w3.org/Graphics/SVG/1.1/DTD/svg11.dtd"><svg t="1769746444318" class="icon" viewBox="0 0 1024 1024" version="1.1" xmlns="http://www.w3.org/2000/svg" p-id="27611" xmlns:xlink="http://www.w3.org/1999/xlink" width="128" height="128"><path d="M469.886887 419.466017H262.5536a18.757009 18.757009 0 1 1 0-37.514017h19.260104a33.346783 33.346783 0 1 0 0-66.698017H107.390887a33.346783 33.346783 0 0 0 0 66.698017h35.750956a18.757009 18.757009 0 0 1 0 37.514017H70.117287c-27.964104 0-50.630122 22.67047-50.630122 50.634574 0 27.959652 22.666017 50.630122 50.630122 50.630122h399.7696c27.964104 0 50.634574-22.666017 50.634574-50.630122s-22.67047-50.634574-50.634574-50.634574zM679.366122 706.573357h62.878052a19.286817 19.286817 0 1 1 0 38.582539h-19.794365a34.299548 34.299548 0 0 0 0 68.590191h246.454539a34.295096 34.295096 0 0 0 0-68.590191h-103.869218a19.282365 19.282365 0 0 1-19.286817-19.286818 19.286817 19.286817 0 0 1 19.286817-19.295721h54.31207c28.756591 0 52.068174-23.311583 52.068174-52.068174 0-28.747687-23.311583-52.05927-52.068174-52.05927h-239.981078c-28.756591 0-52.063722 23.311583-52.063722 52.05927-0.004452 28.756591 23.30713 52.068174 52.063722 52.068174z" fill="#FBF0E2" p-id="27612"></path><path d="M213.107757 126.459548l9.558817 9.554365-9.558817 9.558817-9.558818-9.558817zM213.112209 172.250157l-9.558818-9.558818 9.558818-9.558817 9.558817 9.558817zM216.887652 149.352626l9.558818-9.554365 9.554365 9.554365-9.554365 9.558817zM190.210226 149.357078L199.769043 139.798261l9.558818 9.558817-9.558818 9.558818z" fill="#F5B158" p-id="27613"></path><path d="M554.76313 759.84807l7.31047 7.301565-7.301565 7.306017-7.31047-7.301565zM554.776487 794.86887l-7.301565-7.301566 7.301565-7.306017 7.306017 7.301565zM557.657043 777.340661l7.31047-7.301565 7.306017 7.306017-7.310469 7.306017zM537.270539 777.35847l7.301565-7.301566 7.314922 7.306018-7.301565 7.301565z" fill="#F5B158" p-id="27614"></path><path d="M139.575652 577.620591l7.858087 7.858087-7.862539 7.862539-7.858087-7.862539zM139.566748 615.285983l-7.862539-7.86254 7.862539-7.862539 7.862539 7.862539zM142.674365 596.448835l7.858087-7.862539 7.862539 7.862539-7.862539 7.862539zM120.738504 596.448835l7.858087-7.862539 7.862539 7.862539-7.862539 7.862539z" fill="#D04E39" p-id="27615"></path><path d="M658.004591 578.043548l7.791305 7.791304-7.800209 7.791305-7.786852-7.791305zM658.009043 615.388383l-7.800208-7.791305 7.791304-7.791304 7.791304 7.791304zM661.081043 596.715965l7.791305-7.791304 7.795756 7.791304-7.795756 7.795757zM639.332174 596.715965l7.800209-7.791304 7.791304 7.791304-7.795757 7.795757z" fill="#FBEDD7" p-id="27616"></path><path d="M653.263026 823.923757s-4.358678 86.140661-52.718191 126.504069l74.769808 28.164452s28.881252-82.200487 6.357705-157.731617" fill="#F5B158" p-id="27617"></path><path d="M814.556383 557.879652c7.043339 65.233252-40.131896 123.819409-105.360696 130.853844l-106.3936 11.486608c-65.224348 7.043339-123.810504-40.131896-130.849391-105.365147l-17.234366-159.672766c-7.038887-65.2288 40.122991-123.814957 105.351792-130.849391l106.398052-11.491061c65.219896-7.043339 123.819409 40.131896 130.853843 105.360696l17.234366 159.677217z" fill="#D04E39" p-id="27618"></path><path d="M554.932313 304.234852l-2.248348-20.836174a11.544487 11.544487 0 0 1 10.248905-12.710956l95.125147-10.271165a11.548939 11.548939 0 0 1 12.724313 10.235547l2.243896 20.836174" fill="#FBEDD7" p-id="27619"></path><path d="M589.904139 709.818991c-65.277774 0-119.790191-49.013983-126.802365-114.006817l-17.234365-159.672765c-3.659687-33.916661 6.10393-67.223374 27.492174-93.785044 21.388243-26.566122 51.845565-43.2128 85.757774-46.868035l106.398052-11.49106a128.899339 128.899339 0 0 1 13.850713-0.747966c65.282226 0 119.799096 49.00953 126.806817 114.006818l17.234365 159.672765c3.659687 33.916661-6.099478 67.227826-27.496626 93.789496-21.392696 26.570574-51.850017 43.2128-85.762226 46.868034l-106.3936 11.486609a130.056904 130.056904 0 0 1-13.850713 0.747965z m89.461983-408.767443c-3.962435 0-7.978296 0.213704-11.940731 0.645565l-106.398052 11.491061c-29.184 3.147687-55.389496 17.47033-73.799235 40.332243s-26.806539 51.525009-23.658852 80.709009l17.234365 159.668313c6.037148 55.932661 52.9408 98.112557 109.100522 98.112557 3.957983 0 7.973843-0.218157 11.940731-0.645566l106.3936-11.486608c29.188452-3.147687 55.393948-17.474783 73.803687-40.336696s26.810991-51.525009 23.658852-80.709009l-17.234366-159.677217c-6.032696-55.928209-52.931896-98.103652-109.100521-98.103652z" fill="#A53A2A" p-id="27620"></path><path d="M554.918957 313.1392a8.899896 8.899896 0 0 1-8.837566-7.951583l-2.248348-20.836174a20.341983 20.341983 0 0 1 4.407653-15.021634 20.31527 20.31527 0 0 1 13.743861-7.501913l95.116243-10.266713a20.497809 20.497809 0 0 1 22.536904 18.120347l2.243896 20.845079a8.904348 8.904348 0 0 1-7.898157 9.808139 8.957774 8.957774 0 0 1-9.803686-7.898157l-2.243896-20.836174a2.591165 2.591165 0 0 0-2.916174-2.337391l-95.125148 10.271165a2.591165 2.591165 0 0 0-1.776417 0.966122 2.617878 2.617878 0 0 0-0.574331 1.9456l2.248348 20.82727a8.904348 8.904348 0 0 1-8.873182 9.866017z" fill="#A53A2A" p-id="27621"></path><path d="M710.144 694.445635l2.506574 23.235895a10.921183 10.921183 0 0 1-9.683478 12.025322l-89.960626 9.696835a10.89447 10.89447 0 0 1-12.02087-9.679026l-2.502122-23.226991" fill="#FBEDD7" p-id="27622"></path><path d="M611.764313 748.374817a19.62073 19.62073 0 0 1-12.345878-4.367582 19.674157 19.674157 0 0 1-7.288209-13.334261l-2.502122-23.222539a8.904348 8.904348 0 0 1 7.898157-9.803687 8.944417 8.944417 0 0 1 9.803687 7.898156l2.502122 23.226992a2.003478 2.003478 0 0 0 2.190469 1.780869l89.987339-9.696835a2.016835 2.016835 0 0 0 1.78087-2.217182l-2.506574-23.240348a8.904348 8.904348 0 0 1 7.898156-9.803687 8.935513 8.935513 0 0 1 9.803687 7.898157l2.506574 23.235895a19.843339 19.843339 0 0 1-17.568278 21.829009l-89.973983 9.696835a19.919026 19.919026 0 0 1-2.186017 0.120208zM595.366957 275.228939a8.899896 8.899896 0 0 1-8.837566-7.94713l-1.006191-9.282783a23.908174 23.908174 0 0 1 5.164522-17.643965 23.832487 23.832487 0 0 1 16.134678-8.819757 23.877009 23.877009 0 0 1 17.639513 5.173426 23.8592 23.8592 0 0 1 8.810852 16.139131l1.006192 9.27833a8.904348 8.904348 0 0 1-17.701844 1.918887l-1.006191-9.282782a6.188522 6.188522 0 0 0-6.838539-5.511792c-1.651757 0.178087-3.129878 0.988383-4.167235 2.275061a6.18407 6.18407 0 0 0-1.340105 4.567931l1.006192 9.27833a8.904348 8.904348 0 0 1-8.864278 9.857113z" fill="#A53A2A" p-id="27623"></path><path d="M607.761809 249.295026a8.899896 8.899896 0 0 1-8.837566-7.951583l-7.546434-69.992626a8.904348 8.904348 0 0 1 7.893704-9.808139 8.913252 8.913252 0 0 1 9.808139 7.898157l7.546435 69.992626a8.904348 8.904348 0 0 1-8.864278 9.861565zM615.610991 768.253774a8.904348 8.904348 0 0 1-8.837565-7.951583l-2.145948-19.981356a8.904348 8.904348 0 0 1 7.898157-9.803687 8.966678 8.966678 0 0 1 9.803687 7.898156l2.145948 19.981357a8.904348 8.904348 0 0 1-8.864279 9.857113zM637.871861 765.845148a8.899896 8.899896 0 0 1-8.837565-7.947131l-2.154853-19.99026a8.904348 8.904348 0 0 1 17.701844-1.914435l2.154852 19.990261a8.904348 8.904348 0 0 1-8.864278 9.861565zM663.783513 797.250783a8.899896 8.899896 0 0 1-8.837565-7.947131l-5.293635-49.054052a8.904348 8.904348 0 1 1 17.701844-1.914435l5.293634 49.054052a8.904348 8.904348 0 0 1-8.864278 9.861566zM704.645565 758.650435a8.899896 8.899896 0 0 1-8.837565-7.947131l-2.159304-19.999165a8.895443 8.895443 0 1 1 17.701843-1.914435l2.159304 19.999166a8.895443 8.895443 0 0 1-8.864278 9.861565zM682.389148 761.07687a8.904348 8.904348 0 0 1-8.837565-7.951583l-2.159305-20.052591a8.904348 8.904348 0 0 1 7.898157-9.803687 8.957774 8.957774 0 0 1 9.803687 7.898156l2.159304 20.052592a8.904348 8.904348 0 0 1-8.864278 9.857113z" fill="#A53A2A" p-id="27624"></path><path d="M653.254122 832.828104a8.899896 8.899896 0 0 1-8.837565-7.94713l-3.517218-32.5632a8.904348 8.904348 0 0 1 7.893704-9.808139l28.413774-3.067548a8.810852 8.810852 0 0 1 6.540244 1.918887c1.8432 1.478122 3.018574 3.628522 3.267896 5.979269l3.512765 32.572105a8.9088 8.9088 0 0 1-7.902609 9.808139l-28.409322 3.063096c-0.320557 0.026713-0.641113 0.044522-0.961669 0.044521z m6.304278-33.573843l1.602783 14.861356 10.703026-1.153113-1.602783-14.865808-10.703026 1.157565z" fill="#A53A2A" p-id="27625"></path><path d="M675.319096 987.496626c-1.059617 0-2.128139-0.191443-3.138783-0.569878l-74.769809-28.164452a8.9088 8.9088 0 0 1-2.568904-15.168557c44.739896-37.349287 49.485913-119.300452 49.530435-120.124104a8.904348 8.904348 0 1 1 17.786435 0.908243c-0.169183 3.401461-4.425461 77.997635-45.269705 122.693009l52.691478 19.847791c6.393322-22.67047 20.813913-85.659826 3.56174-143.506921a8.904348 8.904348 0 0 1 17.069634-5.084383c23.088974 77.409948-5.275826 159.757357-6.491269 163.2256a8.890991 8.890991 0 0 1-8.401252 5.943652z" fill="#A53A2A" p-id="27626"></path><path d="M624.978365 406.884174l99.292383 79.943235-79.938783 99.283478-99.28793-79.938783z" fill="#FBEDD7" p-id="27627"></path><path d="M644.314157 595.050852c-2.021287 0-3.9936-0.685635-5.583027-1.967861l-99.292382-79.947687a8.904348 8.904348 0 0 1-1.353461-12.519513l79.938783-99.28793a8.895443 8.895443 0 0 1 12.519513-1.349009l99.28793 79.947687a8.904348 8.904348 0 0 1 1.353461 12.519513l-79.934331 99.283478a8.877635 8.877635 0 0 1-6.936486 3.321322z m-86.77287-90.201043l85.419409 68.777182 68.768278-85.410504-85.419409-68.781635-68.768278 85.414957z" fill="#A53A2A" p-id="27628"></path><path d="M628.691478 441.125843L690.086957 490.571687l-49.441392 61.395478-61.39993-49.436939z" fill="#F5B158" p-id="27629"></path><path d="M640.618852 560.862609c-2.021287 0-3.9936-0.685635-5.587478-1.967861l-61.395478-49.441391a8.913252 8.913252 0 0 1-1.349009-12.519514l49.432487-61.408834a8.859826 8.859826 0 0 1 5.979269-3.267896 8.86873 8.86873 0 0 1 6.540244 1.918887l61.404383 49.441391a8.904348 8.904348 0 0 1 1.35346 12.519513l-49.436939 61.404383a8.877635 8.877635 0 0 1-6.940939 3.321322z m-48.880417-59.6992l47.526956 38.270887 38.275339-47.531409-47.53586-38.275339-38.266435 47.535861z" fill="#A53A2A" p-id="27630"></path><path d="M337.928904 776.913252s-26.935652 92.747687-90.018504 124.277983l74.235548 49.948939s52.638052-82.138157 47.535861-170.251131" fill="#F5B158" p-id="27631"></path><path d="M582.219687 528.504209c-9.126957 72.895443-75.615722 124.598539-148.515617 115.480487l-118.908661-14.879166c-72.904348-9.131409-124.594087-75.624626-115.480487-148.524521l22.336556-178.452035c9.126957-72.9088 75.61127-124.611896 148.511165-115.484939l118.913114 14.888069c72.904348 9.118052 124.598539 75.620174 115.480486 148.52007l-22.336556 178.452035z" fill="#D04E39" p-id="27632"></path><path d="M364.601878 185.223791l2.90727-23.284869a12.929113 12.929113 0 0 1 14.433948-11.223931l106.322365 13.312a12.929113 12.929113 0 0 1 11.22393 14.429496l-2.916174 23.28487" fill="#FBEDD7" p-id="27633"></path><path d="M450.386365 653.930852c-5.903583 0-11.887304-0.373983-17.790887-1.113043l-118.908661-14.879166c-77.645913-9.728-132.919652-80.811409-123.205008-158.461773l22.336556-178.456487c8.873183-70.878609 69.342609-124.326957 140.657531-124.326957 5.908035 0 11.896209 0.373983 17.795339 1.113044l118.913113 14.888069c37.616417 4.705948 71.150191 23.779061 94.421704 53.711026 23.271513 29.931965 33.489252 67.13433 28.783305 104.750748l-22.336557 178.452035c-8.86873 70.874157-69.342609 124.322504-140.666435 124.322504zM353.475896 194.502122c-62.357148 0-115.231165 46.743374-122.991305 108.730991l-22.336556 178.452035c-8.494748 67.909009 39.842504 130.079165 107.751513 138.582817l118.908661 14.879165c5.168974 0.650017 10.40473 0.975026 15.578156 0.975027 62.3616 0 115.24007-46.738922 123.000209-108.722087l22.336556-178.456487c4.118261-32.897113-4.826157-65.4336-25.172591-91.607931-20.350887-26.178783-49.677357-42.856626-82.574469-46.974887l-118.913113-14.888069a127.229774 127.229774 0 0 0-15.587061-0.970574z" fill="#A53A2A" p-id="27634"></path><path d="M496.582122 210.645704a8.904348 8.904348 0 0 1-8.84647-10.012939l2.916174-23.284869a4.024765 4.024765 0 0 0-3.490504-4.487792L380.838957 159.543652a4.05593 4.05593 0 0 0-4.492244 3.503861l-2.90727 23.280417a8.859826 8.859826 0 0 1-9.937252 7.728974 8.895443 8.895443 0 0 1-7.728974-9.937252l2.90727-23.284869a21.860174 21.860174 0 0 1 24.375652-18.957357l106.322365 13.312a21.860174 21.860174 0 0 1 18.952905 24.366748l-2.920626 23.289322a8.917704 8.917704 0 0 1-8.828661 7.800208z" fill="#A53A2A" p-id="27635"></path><path d="M433.2544 650.453704l-3.245635 25.956174a12.243478 12.243478 0 0 1-13.654817 10.618435l-100.530087-12.590748a12.221217 12.221217 0 0 1-10.600626-13.650365l3.245635-25.94727" fill="#FBEDD7" p-id="27636"></path><path d="M417.867687 696.026157c-0.85927 0-1.727443-0.057878-2.604522-0.160279l-100.547895-12.5952a20.95193 20.95193 0 0 1-14.046609-7.991652 20.996452 20.996452 0 0 1-4.282991-15.609322l3.245634-25.938365a8.904348 8.904348 0 1 1 17.670679 2.208278l-3.245635 25.94727a3.307965 3.307965 0 0 0 2.8672 3.713113l100.534539 12.590748a3.33913 3.33913 0 0 0 3.713113-2.880557l3.245635-25.960626a8.873183 8.873183 0 0 1 9.937252-7.728974 8.899896 8.899896 0 0 1 7.728974 9.937252l-3.245635 25.956174c-1.322296 10.667409-10.462609 18.512139-20.969739 18.51214zM452.024765 167.428452a8.904348 8.904348 0 0 1-8.846469-10.008487l1.295582-10.378017c0.26713-2.132591-0.311652-4.234017-1.625043-5.925844a7.969391 7.969391 0 0 0-5.329252-3.03193 8.058435 8.058435 0 0 0-8.962226 6.967652l-1.286679 10.364661a8.904348 8.904348 0 0 1-17.67513-2.19047l1.286678-10.382469c1.785322-14.140104 14.732243-24.202017 28.845635-22.4256a25.635617 25.635617 0 0 1 17.176487 9.772522 25.644522 25.644522 0 0 1 5.231304 19.064208l-1.295582 10.373565a8.886539 8.886539 0 0 1-8.815305 7.800209z" fill="#A53A2A" p-id="27637"></path><path d="M438.637078 138.155409a8.904348 8.904348 0 0 1-8.846469-10.012939l9.79033-78.224696a8.904348 8.904348 0 1 1 17.670678 2.21273l-9.79033 78.224696a8.904348 8.904348 0 0 1-8.824209 7.800209zM313.553252 705.749704a8.904348 8.904348 0 0 1-8.846469-10.012939l2.800417-22.341008a8.9088 8.9088 0 0 1 17.670678 2.217182l-2.800417 22.341009a8.904348 8.904348 0 0 1-8.824209 7.795756zM338.432 708.861774a8.904348 8.904348 0 0 1-8.84647-10.008487l2.795966-22.341009a8.904348 8.904348 0 1 1 17.670678 2.208279l-2.795965 22.341008a8.904348 8.904348 0 0 1-8.824209 7.800209zM358.573635 749.746087a8.904348 8.904348 0 0 1-8.84647-10.012939l6.865252-54.810713a8.904348 8.904348 0 1 1 17.670679 2.217182l-6.865253 54.810713a8.9088 8.9088 0 0 1-8.824208 7.795757zM413.054887 718.197983a8.904348 8.904348 0 0 1-8.84647-10.01294l2.800418-22.341008a8.904348 8.904348 0 1 1 17.670678 2.217182l-2.800417 22.341009a8.904348 8.904348 0 0 1-8.824209 7.795757zM388.176139 715.12153a8.904348 8.904348 0 0 1-8.846469-10.008487l2.804869-22.407791a8.904348 8.904348 0 1 1 17.670678 2.208278l-2.804869 22.407792a8.904348 8.904348 0 0 1-8.824209 7.800208z" fill="#A53A2A" p-id="27638"></path><path d="M369.681809 789.793391c-0.36953 0-0.739061-0.022261-1.108592-0.071234l-31.752904-3.975792a8.895443 8.895443 0 0 1-7.728974-9.946156l4.559026-36.409879a8.931061 8.931061 0 0 1 9.941705-7.724521l31.748452 3.975791a8.904348 8.904348 0 0 1 7.728974 9.937252l-4.554574 36.409878a8.913252 8.913252 0 0 1-8.833113 7.804661z m-21.8112-20.609113l14.082226 1.763061 2.346295-18.7392-14.077773-1.763061-2.350748 18.7392z" fill="#A53A2A" p-id="27639"></path><path d="M322.145948 960.044522a8.904348 8.904348 0 0 1-4.973078-1.518192l-74.235548-49.948939a8.904348 8.904348 0 0 1 0.992835-15.351095c58.915617-29.446678 85.187896-117.90247 85.446121-118.797357a8.904348 8.904348 0 1 1 17.1008 4.968626c-1.06407 3.673043-25.177043 84.751583-81.804243 122.341287l54.592556 36.730435c12.45273-22.225252 45.510122-88.299965 41.525426-157.068244a8.904348 8.904348 0 0 1 8.37454-9.402991 8.939965 8.939965 0 0 1 9.402991 8.378991c5.209043 89.960626-46.712209 172.116591-48.924939 175.571479a8.890991 8.890991 0 0 1-7.497461 4.096z" fill="#A53A2A" p-id="27640"></path><path d="M414.47513 315.178296l87.618783 112.697878-112.693426 87.61433-87.618783-112.697878z" fill="#FBEDD7" p-id="27641"></path><path d="M389.404939 524.377043a8.895443 8.895443 0 0 1-7.034435-3.44153L294.760626 408.246539a8.899896 8.899896 0 0 1 1.567165-12.4928l112.68007-87.623235a8.913252 8.913252 0 0 1 12.497252 1.562713l87.627687 112.693426a8.9088 8.9088 0 0 1-1.567165 12.497253L394.872209 522.50713c-1.571617 1.219896-3.499409 1.869913-5.46727 1.869913zM314.283409 404.341983l76.684243 98.63346 98.633461-76.693147-76.693148-98.629009-98.624556 76.688696z" fill="#A53A2A" p-id="27642"></path><path d="M409.684591 353.395757l54.182957 69.689878-69.694331 54.182956-54.182956-69.689878z" fill="#F5B158" p-id="27643"></path><path d="M394.186574 486.159583a8.899896 8.899896 0 0 1-7.038887-3.437079L332.969183 413.032626a8.904348 8.904348 0 0 1 1.562713-12.4928L404.21287 346.347965a8.913252 8.913252 0 0 1 12.497252 1.562713l54.191861 69.694331a8.9088 8.9088 0 0 1-1.567166 12.497252l-69.69433 54.182956a8.842017 8.842017 0 0 1-5.453913 1.874366z m-41.694609-77.027061l43.248418 55.629913 55.634365-43.25287-43.257322-55.634365-55.625461 43.257322z" fill="#A53A2A" p-id="27644"></path></svg>