<?xml version="1.0" standalone="no"?><!DOCTYPE svg PUBLIC "-//W3C//DTD SVG 1.1//EN" "http://www.w3.org/Graphics/SVG/1.1/DTD/svg11.dtd"><svg t="1769755186982" class="icon" viewBox="0 0 1109 1024" version="1.1" xmlns="http://www.w3.org/2000/svg" p-id="6444" xmlns:xlink="http://www.w3.org/1999/xlink" width="138.625" height="128"><path d="M12.563077 1003.102681c28.84169-22.638028 116.195483-95.685097 110.212226-169.943902 0 0 122.489266-12.043901 128.151222-124.180017 0 0-12.036065-76.367835-67.048138-92.24874-55.120807-15.952414-83.320874 23.856622-86.694537 35.179555-6.916794 9.934872-14.901328 43.796895 16.619506 51.131968 16.619506 3.908513 25.886306-14.643699 25.886306-17.990914 0 0 16.272736-3.916349 17.928221 19.290813 1.023658 23.206183-40.806246 32.500411-60.434033 19.868763-20.5721-13.27327-41.793659-42.435282-21.871999-92.249719 20.216513-44.463987 57.380691-57.736278 57.380691-57.736278s-36.159132-33.863003-34.138264-68.392118c8.278407-25.904918 34.806335-45.10561 34.806336-45.105609s-33.817942-26.554378-33.817943-61.725116c0-33.951165 7.931636-59.846287 33.149871-69.130719 0 0 25.948999-7.976697 37.87731 29.891797 0 0 23.589197-40.476128 63.371785-24.524694 39.861933 16.620486 50.801851 42.506792 46.138084 74.267622-5.261309 32.002786-29.14438 36.559779-38.776562 37.868494-8.643789 1.361612-19.583706-9.934872-19.583706-19.219304 0-9.284432 9.293248-7.254748 12.889276-6.684635 2.991629 1.379245 28.272556 6.684635 28.272556-17.839079 0-23.928131-35.901503-38.589462-55.751655-33.863003-19.272201 5.946033-54.113801 33.863003-53.455525 98.195753 11.287668 71.739333 100.189192 69.781158 100.189192 69.781158s59.107686-10.014217 72.407405-21.329313c0 0 51.434658 69.060189 144.707056 21.329313l3.979042-2.029684 33.854187 4.646135-1.042271-25.235867s67.769107-94.225527-8.892601-167.994544c0 0 56.740048-65.641465 16.556813-138.74241-40.476128-72.968702-111.82363-42.435282-117.12902-36.489249-5.634528 6.667982-61.760381 44.536475-22.878024 96.90467 13.192945 15.231445 31.147615 2.680123 31.147614 2.680123s14.964021-6.017542 3.658721-32.554287c0 0 12.311326-7.975717 20.233166-0.667092 7.976697 7.405603 13.913914 39.167413-16.290368 56.428542-30.505992 18.568865-66.691572-5.946033-80.64075-37.129893-14.260684-29.874165-7.263565-39.158597-3.338399-49.172814 3.044526-8.643789 24.934157-33.142034 24.934157-33.142034s-18.934247-4.72646-19.940273-24.595223c-0.943333-20.509407 1.006026-37.850861 44.52668-43.796895 44.135828-5.963666 77.651081 42.48818 77.651081 42.48818s36.158152-37.209238 67.688781-37.209238c31.601159 0 55.448965 29.891797 55.448965 29.891796s33.194931-61.732952 95.569506-68.320608c62.446085-5.376899 68.070817 49.021959 63.114157 76.937949-4.968415 28.512552-25.549331 24.595223-32.536656 24.595223-7.317441 0-13.602408-10.601964-6.988303-16.691015 7.362502-5.874524 40.530005-40.404619-4.976252-58.386717-57.095634-7.254748-77.026111 55.120807-80.000107 65.7933-3.293338 9.284432-3.293338 108.869225 103.563835 111.468043 98.24865 0 116.559886-60.416401 126.831732-86.871841 0 0 14.243052-35.269675 12.934337-47.88271 0 0 57.060369 20.607365 137.087905-55.779083 0 0 88.259902-84.273023 91.571852-86.871841H13.570082l-0.998189 73.688692v929.398316h-0.008816z" fill="#2C2C2C" p-id="6445"></path></svg>