<?xml version="1.0" standalone="no"?><!DOCTYPE svg PUBLIC "-//W3C//DTD SVG 1.1//EN" "http://www.w3.org/Graphics/SVG/1.1/DTD/svg11.dtd"><svg t="1769755178188" class="icon" viewBox="0 0 1097 1024" version="1.1" xmlns="http://www.w3.org/2000/svg" p-id="5963" xmlns:xlink="http://www.w3.org/1999/xlink" width="137.125" height="128"><path d="M-8.50801901 981.33333334c29.443044-23.109155 118.617301-97.680026 112.510596-173.486777 0 0 125.042065-12.295197 130.821625-126.768663 0 0-12.28611-77.960456-68.44599099-94.172305-56.26892901-16.284548-85.057683 24.354123-88.50179301 35.913244-7.060878 10.141493-15.21224 44.709808 16.9661 52.197792 16.9661 3.98935099 26.426041-14.948706 26.426041-18.36555299 0 0 16.611693-3.998438 18.301942 19.69230799 1.045046 23.690746-41.656455 33.17794899-61.694083 20.28298599-21.00088699-13.549253-42.66515199-43.319442-22.327642-94.17230499 20.637393-45.39136 58.577118-58.940613 58.577118-58.940613s-36.91285401-34.568315-34.850023-69.818182c8.451244-26.444216 35.531575-46.04565 35.531575-46.04565s-34.522878-27.107593-34.522878-63.01175c0-34.659189 8.096837-61.094317 33.841326-70.572433 0 0 26.489652-8.142274 38.666714 30.515353 0 0 24.081502-41.320223 64.692911-25.035675 40.693195 16.9661 51.86156 43.392141 47.099783 75.815839-5.370629 32.66905699-29.752014 37.321785-39.584537 38.65762701-8.823826 1.390366-19.992191-10.141493-19.992191-19.61960901 0-9.478116 9.487203-7.40619799 13.158496-6.82460701 3.053353 1.408541 28.861453 6.824607 28.861453-18.21106799 0-24.426822-36.64932-39.393703-56.914132-34.568315-19.674133 6.070356-55.242057 34.568315-54.569593 100.242661 11.522772 73.23502901 102.278229 71.23581 102.278229 71.23580999s60.340066-10.223279 73.916581-21.77331299c0 0 52.506762 70.499734 147.724113 21.773313l4.06205-2.071918 34.559228 4.743602-1.063221-25.762664c0 0 69.182067-96.189699-9.078272-171.496645 0 0 57.922828-67.010188 16.90248799-141.635583-41.320223-74.489085-114.155408-43.319442-119.57147399-37.249086-5.752298 6.806432-63.04809899 45.464059-23.354514 98.924994 13.467467 15.548472 31.79667 2.735295 31.79667 2.735295s15.275851-6.143055 3.734905-33.232473c0 0 12.567818-8.142274 20.655568-0.681552 8.142274 7.560683 14.203543 39.984381-16.629868 57.60477099-31.14238 18.956232-68.082496-6.070356-82.32238799-37.90337599-14.55795-30.49717801-7.415285-39.975294-3.40776-50.198573 3.107877-8.823826 25.45369399-33.832239 25.45369399-33.832239s-19.328813-4.825388-20.355685-25.108374c-0.96326-20.937276 1.026872-38.63945201 45.454971-44.709808 45.055128-6.088531 79.269036 43.373966 79.269036 43.373966s36.912854-37.985162 69.10028-37.985162c32.260126 0 56.605161 30.515353 56.605161 30.51535301s33.886763-63.020837 97.56189-69.74548302c63.747826-5.488765 69.491037 50.044088 64.429378 78.54204702-5.070747 29.10681199-26.080721 25.108374-33.214298 25.10837399-7.469809 0-13.885485-10.823045-7.133577-17.038799 7.51524599-5.997657 41.374747-41.247524-5.079834-59.60399-58.286323-7.40619799-78.63292 56.268929-81.668098 67.164673-3.362323 9.478116-3.362323 111.138405 105.722339 113.791914 100.297185 0 118.989883-61.675908 129.476696-88.68354 0 0 14.539775-36.004118 13.203933-48.880906 0 0 58.249973 21.037237 139.945334-56.941394 0 0 90.101168-86.030031 93.481666-88.68354 0 0-1090.746654 0-1095.48116899 0l-1.01778401 75.225161L-8.49893201 981.33333334-8.50801901 981.33333334z" fill="#89330e" p-id="5964"></path></svg>