<?xml version="1.0" standalone="no"?><!DOCTYPE svg PUBLIC "-//W3C//DTD SVG 1.1//EN" "http://www.w3.org/Graphics/SVG/1.1/DTD/svg11.dtd"><svg t="1769755181282" class="icon" viewBox="0 0 1097 1024" version="1.1" xmlns="http://www.w3.org/2000/svg" p-id="6122" xmlns:xlink="http://www.w3.org/1999/xlink" width="137.125" height="128"><path d="M1024 1053.84135234c-23.109155-29.443044-97.680026-118.617301-173.486777-112.510596 0 0-12.295197-125.042065-126.768663-130.821625 0 0-77.960456 12.28611-94.172305 68.44599099-16.284548 56.26892901 24.354123 85.057683 35.913244 88.50179301 10.141493 7.060878 44.709808 15.21224 52.197792-16.9661 3.98935099-16.9661-14.948706-26.426041-18.36555299-26.426041 0 0-3.998438-16.611693 19.69230799-18.301942 23.690746-1.045046 33.17794899 41.656455 20.28298599 61.694083-13.549253 21.00088699-43.319442 42.66515199-94.17230499 22.327642-45.39136-20.637393-58.940613-58.577118-58.940613-58.577118s-34.568315 36.91285401-69.818182 34.850023c-26.444216-8.451244-46.04565-35.531575-46.04565-35.531575s-27.107593 34.522878-63.01175 34.522878c-34.659189 0-61.094317-8.096837-70.572433-33.841326 0 0-8.142274-26.489652 30.515353-38.666714 0 0-41.320223-24.081502-25.035675-64.692911 16.9661-40.693195 43.392141-51.86156 75.815839-47.099783 32.66905699 5.370629 37.321785 29.752014 38.65762701 39.584537 1.390366 8.823826-10.141493 19.992191-19.61960901 19.992191-9.478116 0-7.40619799-9.487203-6.82460701-13.158496 1.408541-3.053353 6.824607-28.861453-18.21106799-28.861453-24.426822 0-39.393703 36.64932-34.568315 56.914132 6.070356 19.674133 34.568315 55.242057 100.242661 54.569593 73.23502901-11.522772 71.23581-102.278229 71.23580999-102.278229s-10.223279-60.340066-21.77331299-73.916581c0 0 70.499734-52.506762 21.773313-147.724113l-2.071918-4.06205 4.743602-34.559228-25.762664 1.063221c0 0-96.189699-69.182067-171.496645 9.078272 0 0-67.010188-57.922828-141.635583-16.90248799-74.489085 41.320223-43.319442 114.155408-37.249086 119.57147399 6.806432 5.752298 45.464059 63.04809899 98.924994 23.354514 15.548472-13.467467 2.735295-31.79667 2.735295-31.79667s-6.143055-15.275851-33.232473-3.734905c0 0-8.142274-12.567818-0.681552-20.655568 7.560683-8.142274 39.984381-14.203543 57.60477099 16.629868 18.956232 31.14238-6.070356 68.082496-37.90337599 82.32238799-30.49717801 14.55795-39.975294 7.415285-50.198573 3.40776-8.823826-3.107877-33.832239-25.45369399-33.832239-25.45369399s-4.825388 19.328813-25.108374 20.355685c-20.937276 0.96326-38.63945201-1.026872-44.709808-45.454971-6.088531-45.055128 43.373966-79.269036 43.373966-79.269036s-37.985162-36.912854-37.985162-69.10028c0-32.260126 30.515353-56.605161 30.51535301-56.605161s-63.020837-33.886763-69.74548302-97.56189c-5.488765-63.747826 50.044088-69.491037 78.54204702-64.429378 29.10681199 5.070747 25.108374 26.080721 25.10837399 33.214298 0 7.469809-10.823045 13.885485-17.038799 7.133577-5.997657-7.51524599-41.247524-41.374747-59.60399 5.079834-7.40619799 58.286323 56.268929 78.63292 67.164673 81.668098 9.478116 3.362323 111.138405 3.362323 113.791914-105.722339 0-100.297185-61.675908-118.989883-88.68354-129.476696 0 0-36.004118-14.539775-48.880906-13.203933 0 0 21.037237-58.249973-56.941394-139.945334 0 0-86.030031-90.101168-88.68354-93.481666 0 0 0 1090.746654 0 1095.48116899l75.225161 1.01778401L1024 1053.83226534 1024 1053.84135234z" fill="#89330e" p-id="6123"></path></svg>