<?xml version="1.0" standalone="no"?><!DOCTYPE svg PUBLIC "-//W3C//DTD SVG 1.1//EN" "http://www.w3.org/Graphics/SVG/1.1/DTD/svg11.dtd"><svg t="1769755184422" class="icon" viewBox="0 0 1045 1024" version="1.1" xmlns="http://www.w3.org/2000/svg" p-id="6281" xmlns:xlink="http://www.w3.org/1999/xlink" width="130.625" height="128"><path d="M976.209903 1023.980389c-21.580907-27.496069-91.220868-110.7734-162.014163-105.070228 0 0-11.482922-116.774477-118.387279-122.171339 0 0-72.804861 11.473583-87.943902 63.919979-15.208147 52.548188 22.743581 79.432569 33.538237 82.649767 9.470422 6.593154 41.753532 14.2061 48.746385-15.84505 3.725226-15.844116-13.961425-24.678569-17.15154-24.678569 0 0-3.733631-15.51259 18.389858-17.091772 22.124422-0.975899 30.98409 38.902413 18.941778 57.615391-12.653067 19.611366-40.455446 39.843758-87.944836 20.850617-42.3895-19.272369-55.042567-54.703571-55.042567-54.70357s-32.28311 34.472112-65.202189 32.545529c-24.695379-7.892174-43.000254-33.181497-43.000254-33.181498s-25.315472 32.239218-58.845304 32.239218c-32.368092 0-57.054133-7.560648-65.90633-31.602315 0 0-7.603607-24.738337 28.498116-36.111062 0 0-38.587697-22.488633-23.380483-60.415147 15.844116-38.002158 40.522685-48.431669 70.802634-43.985492 30.508748 5.01584 34.854067 27.78557 36.101723 36.967424 1.298086 8.240509-9.471356 18.67002-18.322619 18.670021-8.851263 0-6.916275-8.859668-6.373694-12.287922 1.315829-2.851119 6.373694-26.953488-17.005856-26.953488-22.812688 0-36.789055 34.226503-32.28311 53.151471 5.668619 18.373048 32.282176 51.589099 93.614388 50.961535 68.392304-10.761971 66.524555-95.515757 66.524555-95.515756s-9.547-56.349991-20.333251-69.029207c0 0 65.838157-49.034018 20.333251-137.955686l-1.934054-3.793399 4.429367-32.273771-24.059411 0.992709s-89.829395-64.60731-160.155752 8.477713c0 0-62.578935-54.091883-132.270259-15.784348-69.563383 38.587697-40.455446 106.606451-34.785893 111.664316 6.356884 5.37258 42.457673 58.879858 92.383541 21.81064 14.520816-12.576489 2.554147-29.69441 2.554147-29.694409s-5.736791-14.265868-31.034519-3.488022c0 0-7.603607-11.736002-0.636903-19.289179 7.061026-7.603607 37.340975-13.264754 53.795845 15.530334 17.702526 29.082722-5.668619 63.580048-35.396648 76.878422-28.480373 13.595346-37.331636 6.92468-46.87957 3.182645-8.240509-2.902482-31.594844-23.770843-31.594844-23.770843s-4.505945 18.050862-23.447723 19.00995c-19.553466 0.899321-36.084913-0.959089-41.753531-42.449268-5.686362-42.075719 40.505875-74.028237 40.505875-74.028237s-35.473225-34.471178-35.473225-64.530733c0-30.126794 28.497182-52.86197 28.497182-52.86197s-58.852775-31.645274-65.134016-91.109736c-5.125104-59.532636 46.735753-64.896811 73.349311-60.169539 27.181353 4.734744 23.447723 24.355449 23.447722 31.01771 0 6.976043-10.107324 12.967782-15.912289 6.662261-5.60138-7.018067-38.519524-38.63906-55.662659 4.744083-6.916275 54.431813 52.549122 73.433359 62.723685 76.267668 8.851263 3.139686 103.788952 3.139686 106.267455-98.731087 0-93.665751-57.597648-111.121735-82.819732-120.915277 0 0-33.62322-13.578536-45.647789-12.33088 0 0 19.645919-54.398194-53.176686-130.691076 0 0-80.341229-84.143966-82.819732-87.300462v1023.041844l70.250714 0.950685h886.036843v0.008405z" fill="#2C2C2C" p-id="6282"></path></svg>