<?xml version="1.0" standalone="no"?><!DOCTYPE svg PUBLIC "-//W3C//DTD SVG 1.1//EN" "http://www.w3.org/Graphics/SVG/1.1/DTD/svg11.dtd"><svg t="1769755568378" class="icon" viewBox="0 0 1024 1024" version="1.1" xmlns="http://www.w3.org/2000/svg" p-id="10401" xmlns:xlink="http://www.w3.org/1999/xlink" width="16" height="16"><path d="M512 64C264.6 64 64 264.6 64 512s200.6 448 448 448 448-200.6 448-448S759.4 64 512 64z m0 808c-198.8 0-360-161.2-360-360s161.2-360 360-360 360 161.2 360 360-161.2 360-360 360z" fill="" p-id="10402"></path><path d="M633.2 390.7C580.7 338.2 540.3 278.1 512 214c-28.3 64.1-68.7 124.2-121.2 176.7-52.6 52.6-112.7 93-176.8 121.3 64.1 28.3 124.2 68.7 176.7 121.3 52.6 52.5 93 112.6 121.3 176.7 28.3-64.1 68.7-124.2 121.2-176.8C685.8 580.7 745.9 540.3 810 512c-64.1-28.3-124.2-68.7-176.8-121.3zM571 571c-21.3 21.3-41 43.7-59 67.4-18.1-23.6-37.8-46.1-59-67.4-21.3-21.3-43.8-41-67.4-59 23.6-18.1 46.1-37.8 67.4-59 21.3-21.3 41-43.7 59-67.4 18.1 23.6 37.8 46.1 59 67.4 21.3 21.3 43.8 41 67.4 59-23.6 18.1-46.1 37.8-67.4 59z" fill="" p-id="10403"></path></svg>